<svg width="187" height="92" viewBox="0 0 187 92" fill="none" xmlns="http://www.w3.org/2000/svg">
<mask id="path-1-outside-1_11_13" maskUnits="userSpaceOnUse" x="0" y="0" width="187" height="92" fill="black">
<rect fill="white" width="187" height="92"/>
<path d="M53.5252 3.97786L83.5331 88H66.9687L60.6071 69.8752H29.1588L22.7971 88H6.23273L36.2406 3.97786H53.5252ZM44.7629 25.1034L34.2001 55.4714H55.4457L45.0029 25.1034H44.7629ZM166.214 88V32.5454H165.974L147.009 88H131.045L111.96 31.8252H111.72V88H95.5156V3.97786H117.841L138.967 65.7942H139.207L160.213 3.97786H182.419V88H166.214Z"/>
</mask>
<path d="M53.5252 3.97786L57.0576 2.71627L56.1686 0.226875H53.5252V3.97786ZM83.5331 88V91.751H88.8558L87.0656 86.7384L83.5331 88ZM66.9687 88L63.4294 89.2423L64.31 91.751H66.9687V88ZM60.6071 69.8752L64.1464 68.633L63.2658 66.1242H60.6071V69.8752ZM29.1588 69.8752V66.1242H26.5L25.6195 68.633L29.1588 69.8752ZM22.7971 88V91.751H25.4559L26.3364 89.2423L22.7971 88ZM6.23273 88L2.70026 86.7384L0.910055 91.751H6.23273V88ZM36.2406 3.97786V0.226875H33.5972L32.7082 2.71627L36.2406 3.97786ZM44.7629 25.1034V21.3524H42.0962L41.2201 23.8712L44.7629 25.1034ZM34.2001 55.4714L30.6573 54.2392L28.924 59.2224H34.2001V55.4714ZM55.4457 55.4714V59.2224H60.7021L58.9928 54.2517L55.4457 55.4714ZM45.0029 25.1034L48.5501 23.8837L47.6796 21.3524H45.0029V25.1034ZM49.9927 5.23946L80.0006 89.2616L87.0656 86.7384L57.0576 2.71627L49.9927 5.23946ZM83.5331 84.249H66.9687V91.751H83.5331V84.249ZM70.508 86.7577L64.1464 68.633L57.0677 71.1175L63.4294 89.2423L70.508 86.7577ZM60.6071 66.1242H29.1588V73.6262H60.6071V66.1242ZM25.6195 68.633L19.2578 86.7577L26.3364 89.2423L32.6981 71.1175L25.6195 68.633ZM22.7971 84.249H6.23273V91.751H22.7971V84.249ZM9.76519 89.2616L39.7731 5.23946L32.7082 2.71627L2.70026 86.7384L9.76519 89.2616ZM36.2406 7.72885H53.5252V0.226875H36.2406V7.72885ZM41.2201 23.8712L30.6573 54.2392L37.7429 56.7037L48.3057 26.3357L41.2201 23.8712ZM34.2001 59.2224H55.4457V51.7204H34.2001V59.2224ZM58.9928 54.2517L48.5501 23.8837L41.4558 26.3232L51.8986 56.6912L58.9928 54.2517ZM45.0029 21.3524H44.7629V28.8544H45.0029V21.3524ZM166.214 88H162.463V91.751H166.214V88ZM166.214 32.5454H169.965V28.7944H166.214V32.5454ZM165.974 32.5454V28.7944H163.293L162.425 31.3316L165.974 32.5454ZM147.009 88V91.751H149.691L150.558 89.2138L147.009 88ZM131.045 88L127.493 89.2066L128.358 91.751H131.045V88ZM111.96 31.8252L115.512 30.6186L114.647 28.0742H111.96V31.8252ZM111.72 31.8252V28.0742H107.969V31.8252H111.72ZM111.72 88V91.751H115.471V88H111.72ZM95.5156 88H91.7646V91.751H95.5156V88ZM95.5156 3.97786V0.226875H91.7646V3.97786H95.5156ZM117.841 3.97786L121.391 2.76485L120.524 0.226875H117.841V3.97786ZM138.967 65.7942L135.418 67.0072L136.285 69.5451H138.967V65.7942ZM139.207 65.7942V69.5451H141.894L142.759 67.001L139.207 65.7942ZM160.213 3.97786V0.226875H157.526L156.661 2.77103L160.213 3.97786ZM182.419 3.97786H186.169V0.226875H182.419V3.97786ZM182.419 88V91.751H186.169V88H182.419ZM169.965 88V32.5454H162.463V88H169.965ZM166.214 28.7944H165.974V36.2964H166.214V28.7944ZM162.425 31.3316L143.46 86.7862L150.558 89.2138L169.523 33.7592L162.425 31.3316ZM147.009 84.249H131.045V91.751H147.009V84.249ZM134.597 86.7934L115.512 30.6186L108.408 33.0318L127.493 89.2066L134.597 86.7934ZM111.96 28.0742H111.72V35.5762H111.96V28.0742ZM107.969 31.8252V88H115.471V31.8252H107.969ZM111.72 84.249H95.5156V91.751H111.72V84.249ZM99.2666 88V3.97786H91.7646V88H99.2666ZM95.5156 7.72885H117.841V0.226875H95.5156V7.72885ZM114.292 5.19087L135.418 67.0072L142.517 64.5811L121.391 2.76485L114.292 5.19087ZM138.967 69.5451H139.207V62.0432H138.967V69.5451ZM142.759 67.001L163.764 5.1847L156.661 2.77103L135.656 64.5873L142.759 67.001ZM160.213 7.72885H182.419V0.226875H160.213V7.72885ZM178.668 3.97786V88H186.169V3.97786H178.668ZM182.419 84.249H166.214V91.751H182.419V84.249Z" fill="black" mask="url(#path-1-outside-1_11_13)"/>
</svg>
