<svg width="649" height="94" viewBox="0 0 649 94" fill="none" xmlns="http://www.w3.org/2000/svg">
<mask id="path-1-outside-1_11_11" maskUnits="userSpaceOnUse" x="0" y="0" width="649" height="94" fill="black">
<rect fill="white" width="649" height="94"/>
<path d="M21.3616 52.9905V89H4.55715V4.97786H56.0507V19.3817H21.3616V38.5867H48.8488V52.9905H21.3616ZM132.998 89H114.514L96.5089 57.3117H86.0661V89H69.2617V4.97786H114.754L128.677 13.02V49.2695L114.754 57.3117L132.998 89ZM86.0661 19.3817V42.9079H111.873V19.3817H86.0661ZM214.505 81.558L200.581 89.6002H163.011L149.087 81.558V12.4198L163.011 4.37771H200.581L214.505 12.4198V81.558ZM165.892 18.7815V75.1964H197.7V18.7815H165.892ZM251.696 34.6257V89H234.891V4.97786H250.615L286.865 59.3522H287.105V4.97786H303.909V89H288.185L251.936 34.6257H251.696ZM356.617 19.3817V89H339.813V19.3817H317.127V4.97786H379.303V19.3817H356.617ZM440.534 52.9905V74.5962H474.023V89H423.73V4.97786H474.023V19.3817H440.534V38.5867H466.821V52.9905H440.534ZM506.411 34.6257V89H489.607V4.97786H505.331L541.58 59.3522H541.821V4.97786H558.625V89H542.901L506.651 34.6257H506.411ZM644.462 80.9579L630.538 89H579.044V4.97786H630.538L644.462 13.02V80.9579ZM595.849 19.3817V74.5962H627.657V19.3817H595.849Z"/>
</mask>
<path d="M21.3616 52.9905V49.2395H17.6106V52.9905H21.3616ZM21.3616 89V92.751H25.1126V89H21.3616ZM4.55715 89H0.806161V92.751H4.55715V89ZM4.55715 4.97786V1.22687H0.806161V4.97786H4.55715ZM56.0507 4.97786H59.8017V1.22687H56.0507V4.97786ZM56.0507 19.3817V23.1326H59.8017V19.3817H56.0507ZM21.3616 19.3817V15.6307H17.6106V19.3817H21.3616ZM21.3616 38.5867H17.6106V42.3377H21.3616V38.5867ZM48.8488 38.5867H52.5998V34.8357H48.8488V38.5867ZM48.8488 52.9905V56.7415H52.5998V52.9905H48.8488ZM17.6106 52.9905V89H25.1126V52.9905H17.6106ZM21.3616 85.249H4.55715V92.751H21.3616V85.249ZM8.30814 89V4.97786H0.806161V89H8.30814ZM4.55715 8.72885H56.0507V1.22687H4.55715V8.72885ZM52.2997 4.97786V19.3817H59.8017V4.97786H52.2997ZM56.0507 15.6307H21.3616V23.1326H56.0507V15.6307ZM17.6106 19.3817V38.5867H25.1126V19.3817H17.6106ZM21.3616 42.3377H48.8488V34.8357H21.3616V42.3377ZM45.0978 38.5867V52.9905H52.5998V38.5867H45.0978ZM48.8488 49.2395H21.3616V56.7415H48.8488V49.2395ZM132.998 89V92.751H139.486L136.249 87.1284L132.998 89ZM114.514 89L111.252 90.853L112.331 92.751H114.514V89ZM96.5089 57.3117L99.7702 55.4586L98.6918 53.5607H96.5089V57.3117ZM86.0661 57.3117V53.5607H82.3151V57.3117H86.0661ZM86.0661 89V92.751H89.8171V89H86.0661ZM69.2617 89H65.5107V92.751H69.2617V89ZM69.2617 4.97786V1.22687H65.5107V4.97786H69.2617ZM114.754 4.97786L116.63 1.72974L115.759 1.22687H114.754V4.97786ZM128.677 13.02H132.428V10.8548L130.553 9.77187L128.677 13.02ZM128.677 49.2695L130.553 52.5177L132.428 51.4347V49.2695H128.677ZM114.754 57.3117L112.878 54.0635L109.634 55.937L111.503 59.1833L114.754 57.3117ZM86.0661 19.3817V15.6307H82.3151V19.3817H86.0661ZM86.0661 42.9079H82.3151V46.6588H86.0661V42.9079ZM111.873 42.9079V46.6588H115.624V42.9079H111.873ZM111.873 19.3817H115.624V15.6307H111.873V19.3817ZM132.998 85.249H114.514V92.751H132.998V85.249ZM117.775 87.147L99.7702 55.4586L93.2475 59.1647L111.252 90.853L117.775 87.147ZM96.5089 53.5607H86.0661V61.0626H96.5089V53.5607ZM82.3151 57.3117V89H89.8171V57.3117H82.3151ZM86.0661 85.249H69.2617V92.751H86.0661V85.249ZM73.0127 89V4.97786H65.5107V89H73.0127ZM69.2617 8.72885H114.754V1.22687H69.2617V8.72885ZM112.878 8.22598L126.801 16.2681L130.553 9.77187L116.63 1.72974L112.878 8.22598ZM124.926 13.02V49.2695H132.428V13.02H124.926ZM126.801 46.0214L112.878 54.0635L116.63 60.5598L130.553 52.5177L126.801 46.0214ZM111.503 59.1833L129.748 90.8716L136.249 87.1284L118.004 55.44L111.503 59.1833ZM82.3151 19.3817V42.9079H89.8171V19.3817H82.3151ZM86.0661 46.6588H111.873V39.1569H86.0661V46.6588ZM115.624 42.9079V19.3817H108.122V42.9079H115.624ZM111.873 15.6307H86.0661V23.1326H111.873V15.6307ZM214.505 81.558L216.381 84.8062L218.256 83.7232V81.558H214.505ZM200.581 89.6002V93.3511H201.586L202.457 92.8483L200.581 89.6002ZM163.011 89.6002L161.135 92.8483L162.006 93.3511H163.011V89.6002ZM149.087 81.558H145.336V83.7232L147.211 84.8062L149.087 81.558ZM149.087 12.4198L147.211 9.17171L145.336 10.2546V12.4198H149.087ZM163.011 4.37771V0.626717H162.006L161.135 1.12959L163.011 4.37771ZM200.581 4.37771L202.457 1.12959L201.586 0.626717H200.581V4.37771ZM214.505 12.4198H218.256V10.2546L216.381 9.17171L214.505 12.4198ZM165.892 18.7815V15.0305H162.141V18.7815H165.892ZM165.892 75.1964H162.141V78.9474H165.892V75.1964ZM197.7 75.1964V78.9474H201.451V75.1964H197.7ZM197.7 18.7815H201.451V15.0305H197.7V18.7815ZM212.629 78.3099L198.705 86.352L202.457 92.8483L216.381 84.8062L212.629 78.3099ZM200.581 85.8492H163.011V93.3511H200.581V85.8492ZM164.887 86.352L150.963 78.3099L147.211 84.8062L161.135 92.8483L164.887 86.352ZM152.838 81.558V12.4198H145.336V81.558H152.838ZM150.963 15.6679L164.887 7.62582L161.135 1.12959L147.211 9.17171L150.963 15.6679ZM163.011 8.12869H200.581V0.626717H163.011V8.12869ZM198.705 7.62582L212.629 15.6679L216.381 9.17171L202.457 1.12959L198.705 7.62582ZM210.754 12.4198V81.558H218.256V12.4198H210.754ZM162.141 18.7815V75.1964H169.643V18.7815H162.141ZM165.892 78.9474H197.7V71.4454H165.892V78.9474ZM201.451 75.1964V18.7815H193.949V75.1964H201.451ZM197.7 15.0305H165.892V22.5325H197.7V15.0305ZM251.696 34.6257V30.8747H247.945V34.6257H251.696ZM251.696 89V92.751H255.447V89H251.696ZM234.891 89H231.14V92.751H234.891V89ZM234.891 4.97786V1.22687H231.14V4.97786H234.891ZM250.615 4.97786L253.736 2.89719L252.623 1.22687H250.615V4.97786ZM286.865 59.3522L283.744 61.4329L284.857 63.1032H286.865V59.3522ZM287.105 59.3522V63.1032H290.856V59.3522H287.105ZM287.105 4.97786V1.22687H283.354V4.97786H287.105ZM303.909 4.97786H307.66V1.22687H303.909V4.97786ZM303.909 89V92.751H307.66V89H303.909ZM288.185 89L285.064 91.0807L286.178 92.751H288.185V89ZM251.936 34.6257L255.057 32.545L253.943 30.8747H251.936V34.6257ZM247.945 34.6257V89H255.447V34.6257H247.945ZM251.696 85.249H234.891V92.751H251.696V85.249ZM238.642 89V4.97786H231.14V89H238.642ZM234.891 8.72885H250.615V1.22687H234.891V8.72885ZM247.494 7.05854L283.744 61.4329L289.986 57.2715L253.736 2.89719L247.494 7.05854ZM286.865 63.1032H287.105V55.6012H286.865V63.1032ZM290.856 59.3522V4.97786H283.354V59.3522H290.856ZM287.105 8.72885H303.909V1.22687H287.105V8.72885ZM300.158 4.97786V89H307.66V4.97786H300.158ZM303.909 85.249H288.185V92.751H303.909V85.249ZM291.306 86.9193L255.057 32.545L248.815 36.7064L285.064 91.0807L291.306 86.9193ZM251.936 30.8747H251.696V38.3767H251.936V30.8747ZM356.617 19.3817V15.6307H352.866V19.3817H356.617ZM356.617 89V92.751H360.368V89H356.617ZM339.813 89H336.062V92.751H339.813V89ZM339.813 19.3817H343.564V15.6307H339.813V19.3817ZM317.127 19.3817H313.376V23.1326H317.127V19.3817ZM317.127 4.97786V1.22687H313.376V4.97786H317.127ZM379.303 4.97786H383.054V1.22687H379.303V4.97786ZM379.303 19.3817V23.1326H383.054V19.3817H379.303ZM352.866 19.3817V89H360.368V19.3817H352.866ZM356.617 85.249H339.813V92.751H356.617V85.249ZM343.564 89V19.3817H336.062V89H343.564ZM339.813 15.6307H317.127V23.1326H339.813V15.6307ZM320.878 19.3817V4.97786H313.376V19.3817H320.878ZM317.127 8.72885H379.303V1.22687H317.127V8.72885ZM375.552 4.97786V19.3817H383.054V4.97786H375.552ZM379.303 15.6307H356.617V23.1326H379.303V15.6307ZM440.534 52.9905V49.2395H436.784V52.9905H440.534ZM440.534 74.5962H436.784V78.3472H440.534V74.5962ZM474.023 74.5962H477.774V70.8452H474.023V74.5962ZM474.023 89V92.751H477.774V89H474.023ZM423.73 89H419.979V92.751H423.73V89ZM423.73 4.97786V1.22687H419.979V4.97786H423.73ZM474.023 4.97786H477.774V1.22687H474.023V4.97786ZM474.023 19.3817V23.1326H477.774V19.3817H474.023ZM440.534 19.3817V15.6307H436.784V19.3817H440.534ZM440.534 38.5867H436.784V42.3377H440.534V38.5867ZM466.821 38.5867H470.572V34.8357H466.821V38.5867ZM466.821 52.9905V56.7415H470.572V52.9905H466.821ZM436.784 52.9905V74.5962H444.285V52.9905H436.784ZM440.534 78.3472H474.023V70.8452H440.534V78.3472ZM470.272 74.5962V89H477.774V74.5962H470.272ZM474.023 85.249H423.73V92.751H474.023V85.249ZM427.481 89V4.97786H419.979V89H427.481ZM423.73 8.72885H474.023V1.22687H423.73V8.72885ZM470.272 4.97786V19.3817H477.774V4.97786H470.272ZM474.023 15.6307H440.534V23.1326H474.023V15.6307ZM436.784 19.3817V38.5867H444.285V19.3817H436.784ZM440.534 42.3377H466.821V34.8357H440.534V42.3377ZM463.07 38.5867V52.9905H470.572V38.5867H463.07ZM466.821 49.2395H440.534V56.7415H466.821V49.2395ZM506.411 34.6257V30.8747H502.66V34.6257H506.411ZM506.411 89V92.751H510.162V89H506.411ZM489.607 89H485.856V92.751H489.607V89ZM489.607 4.97786V1.22687H485.856V4.97786H489.607ZM505.331 4.97786L508.452 2.89719L507.338 1.22687H505.331V4.97786ZM541.58 59.3522L538.459 61.4329L539.573 63.1032H541.58V59.3522ZM541.821 59.3522V63.1032H545.572V59.3522H541.821ZM541.821 4.97786V1.22687H538.07V4.97786H541.821ZM558.625 4.97786H562.376V1.22687H558.625V4.97786ZM558.625 89V92.751H562.376V89H558.625ZM542.901 89L539.78 91.0807L540.893 92.751H542.901V89ZM506.651 34.6257L509.772 32.545L508.659 30.8747H506.651V34.6257ZM502.66 34.6257V89H510.162V34.6257H502.66ZM506.411 85.249H489.607V92.751H506.411V85.249ZM493.358 89V4.97786H485.856V89H493.358ZM489.607 8.72885H505.331V1.22687H489.607V8.72885ZM502.21 7.05854L538.459 61.4329L544.701 57.2715L508.452 2.89719L502.21 7.05854ZM541.58 63.1032H541.821V55.6012H541.58V63.1032ZM545.572 59.3522V4.97786H538.07V59.3522H545.572ZM541.821 8.72885H558.625V1.22687H541.821V8.72885ZM554.874 4.97786V89H562.376V4.97786H554.874ZM558.625 85.249H542.901V92.751H558.625V85.249ZM546.022 86.9193L509.772 32.545L503.53 36.7064L539.78 91.0807L546.022 86.9193ZM506.651 30.8747H506.411V38.3767H506.651V30.8747ZM644.462 80.9579L646.338 84.206L648.213 83.1231V80.9579H644.462ZM630.538 89V92.751H631.543L632.414 92.2481L630.538 89ZM579.044 89H575.293V92.751H579.044V89ZM579.044 4.97786V1.22687H575.293V4.97786H579.044ZM630.538 4.97786L632.414 1.72974L631.543 1.22687H630.538V4.97786ZM644.462 13.02H648.213V10.8548L646.338 9.77187L644.462 13.02ZM595.849 19.3817V15.6307H592.098V19.3817H595.849ZM595.849 74.5962H592.098V78.3472H595.849V74.5962ZM627.657 74.5962V78.3472H631.408V74.5962H627.657ZM627.657 19.3817H631.408V15.6307H627.657V19.3817ZM642.586 77.7098L628.662 85.7519L632.414 92.2481L646.338 84.206L642.586 77.7098ZM630.538 85.249H579.044V92.751H630.538V85.249ZM582.795 89V4.97786H575.293V89H582.795ZM579.044 8.72885H630.538V1.22687H579.044V8.72885ZM628.662 8.22598L642.586 16.2681L646.338 9.77187L632.414 1.72974L628.662 8.22598ZM640.711 13.02V80.9579H648.213V13.02H640.711ZM592.098 19.3817V74.5962H599.6V19.3817H592.098ZM595.849 78.3472H627.657V70.8452H595.849V78.3472ZM631.408 74.5962V19.3817H623.906V74.5962H631.408ZM627.657 15.6307H595.849V23.1326H627.657V15.6307Z" fill="black" mask="url(#path-1-outside-1_11_11)"/>
</svg>
