<svg width="205" height="31" viewBox="0 0 205 31" fill="none" xmlns="http://www.w3.org/2000/svg">
<path d="M204.439 0.920254H200.029V30H204.439V0.920254ZM184.382 0.920254H179.309L173.929 30H178.389L179.19 24.7902H184.502L185.268 30H189.745L184.382 0.920254ZM179.7 21.4702L181.743 6.98137H181.931L183.991 21.4702H179.7ZM171.102 0.920254H165.348L162.556 12.1742C162.26 13.4227 162.028 14.6145 161.858 15.7496C161.687 16.8733 161.523 17.9345 161.364 18.9334H161.228C161.069 17.9345 160.904 16.8733 160.734 15.7496C160.564 14.6145 160.331 13.4227 160.036 12.1742L157.158 0.920254H151.523V30H155.643V20.3805C155.643 18.905 155.632 17.4862 155.609 16.1241C155.575 14.7621 155.535 13.5135 155.49 12.3785C155.445 11.2321 155.393 10.2219 155.337 9.34793C155.28 8.47395 155.229 7.78158 155.184 7.27081H155.507L159.9 26.2544H162.692L167.118 7.27081H167.442C167.397 7.78158 167.345 8.47395 167.289 9.34793C167.232 10.2219 167.181 11.2321 167.135 12.3785C167.09 13.5135 167.056 14.7621 167.033 16.1241C166.999 17.4862 166.982 18.905 166.982 20.3805V30H171.102V0.920254ZM139.094 0.920254H127.977V4.39348H134.685V13.0936H129.424V16.5668H134.685V30H139.094V0.920254ZM125.031 0.920254H120.247C119.702 0.920254 119.106 0.942955 118.459 0.988357C117.801 1.03376 117.148 1.14726 116.501 1.32887C115.843 1.49913 115.213 1.76018 114.611 2.11205C113.999 2.46391 113.459 2.9463 112.994 3.55922C112.517 4.17215 112.137 4.94397 111.853 5.87471C111.57 6.79409 111.428 7.91211 111.428 9.22875V9.96085C111.428 12.1742 111.745 13.9789 112.381 15.375C113.017 16.7597 113.953 17.7586 115.19 18.3715L110.525 30H115.19L119.055 19.1206H120.707V30H125.031V0.920254ZM120.043 15.9368C119.271 15.9368 118.618 15.8517 118.085 15.6815C117.551 15.5112 117.12 15.2274 116.791 14.8302C116.462 14.4216 116.223 13.8881 116.076 13.2298C115.928 12.5601 115.854 11.7372 115.854 10.7611V8.4626C115.854 7.71347 115.922 7.0665 116.059 6.52168C116.195 5.97686 116.428 5.52852 116.757 5.17666C117.075 4.82479 117.5 4.56374 118.034 4.39348C118.567 4.22322 119.237 4.13809 120.043 4.13809H120.707V15.9368H120.043ZM100.753 30.2554C101.218 30.2554 101.723 30.2157 102.268 30.1362C102.813 30.0681 103.352 29.9149 103.885 29.6765C104.419 29.4382 104.935 29.1033 105.435 28.672C105.923 28.2293 106.36 27.6505 106.746 26.9354C107.12 26.2203 107.421 25.3407 107.648 24.2964C107.875 23.2408 107.989 21.9866 107.989 20.5338V10.2333C107.989 8.76906 107.875 7.52052 107.648 6.48763C107.41 5.44339 107.097 4.56941 106.712 3.86569C106.326 3.15061 105.889 2.58309 105.401 2.16312C104.901 1.74316 104.385 1.42535 103.851 1.20969C103.306 0.982681 102.767 0.835126 102.234 0.767024C101.7 0.698921 101.207 0.66487 100.753 0.66487C100.321 0.66487 99.8446 0.698921 99.3225 0.767024C98.789 0.823776 98.2612 0.959981 97.7391 1.17564C97.2056 1.37995 96.6892 1.69208 96.1898 2.11205C95.6903 2.52066 95.2477 3.08251 94.8618 3.79758C94.4758 4.50131 94.1694 5.38096 93.9424 6.43655C93.704 7.48079 93.5848 8.74636 93.5848 10.2333V20.5338C93.5848 21.9753 93.704 23.2181 93.9424 24.2624C94.1807 25.2953 94.4929 26.1749 94.8788 26.9013C95.2647 27.6164 95.713 28.1953 96.2238 28.638C96.7232 29.0693 97.2397 29.4098 97.7731 29.6595C98.2953 29.8978 98.8174 30.0568 99.3395 30.1362C99.8616 30.2157 100.333 30.2554 100.753 30.2554ZM100.753 26.9354C100.321 26.9354 99.9467 26.8616 99.6289 26.7141C99.2998 26.5665 99.033 26.3111 98.8287 25.9479C98.6131 25.5847 98.4542 25.108 98.352 24.5178C98.2385 23.9162 98.1818 23.1614 98.1818 22.2533V9.02445C98.1818 8.09371 98.2385 7.31621 98.352 6.69194C98.4542 6.06766 98.6131 5.56825 98.8287 5.19368C99.033 4.80777 99.2998 4.53536 99.6289 4.37645C99.9467 4.21755 100.321 4.13809 100.753 4.13809C101.195 4.13809 101.581 4.21755 101.91 4.37645C102.24 4.53536 102.512 4.80777 102.728 5.19368C102.943 5.56825 103.108 6.06766 103.221 6.69194C103.323 7.31621 103.375 8.09371 103.375 9.02445V22.2533C103.375 23.1614 103.323 23.9162 103.221 24.5178C103.108 25.108 102.943 25.5847 102.728 25.9479C102.512 26.3111 102.24 26.5665 101.91 26.7141C101.581 26.8616 101.195 26.9354 100.753 26.9354ZM89.4136 0.920254H85.8382L78.7896 20.3805H78.6874C78.7215 19.9265 78.7669 19.4214 78.8236 18.8652C78.8804 18.3091 78.9315 17.6791 78.9769 16.9754C79.0223 16.2603 79.062 15.4545 79.096 14.5578C79.1301 13.6611 79.1471 12.6509 79.1471 11.5272V0.920254H75.1972V30H78.8066L85.8212 11.0505H85.9574C85.9233 11.5613 85.8779 12.1174 85.8212 12.719C85.7644 13.3092 85.7133 14.0073 85.6679 14.8132C85.6225 15.619 85.5828 16.5611 85.5487 17.6394C85.5147 18.7063 85.4977 19.9776 85.4977 21.4531V30H89.4136V0.920254ZM67.5186 4.39348H72.2007V0.920254H58.444V4.39348H63.109V30H67.5186V4.39348ZM48.0073 0.920254H37.2301V4.39348H43.5976V13.0936H38.6772V16.5668H43.5976V26.5268H37.0598V30H48.0073V0.920254ZM33.876 0.920254H30.3006L23.252 20.3805H23.1499C23.1839 19.9265 23.2293 19.4214 23.2861 18.8652C23.3428 18.3091 23.3939 17.6791 23.4393 16.9754C23.4847 16.2603 23.5244 15.4545 23.5585 14.5578C23.5925 13.6611 23.6096 12.6509 23.6096 11.5272V0.920254H19.6596V30H23.2691L30.2836 11.0505H30.4198C30.3858 11.5613 30.3404 12.1174 30.2836 12.719C30.2269 13.3092 30.1758 14.0073 30.1304 14.8132C30.085 15.619 30.0453 16.5611 30.0112 17.6394C29.9772 18.7063 29.9601 19.9776 29.9601 21.4531V30H33.876V0.920254ZM14.6711 0.920254H10.0912C9.39886 0.920254 8.68378 0.942955 7.946 0.988357C7.19688 1.02241 6.47045 1.14159 5.76673 1.34589C5.05165 1.5502 4.38198 1.86801 3.7577 2.29933C3.12208 2.71929 2.56591 3.31519 2.08919 4.08702C1.61248 4.8475 1.23791 5.81228 0.965503 6.98137C0.681743 8.13911 0.539863 9.55791 0.539863 11.2378V19.6825C0.539863 21.3623 0.681743 22.7868 0.965503 23.9559C1.23791 25.125 1.61248 26.0898 2.08919 26.8503C2.56591 27.6107 3.12208 28.2066 3.7577 28.638C4.38198 29.0579 5.05165 29.3701 5.76673 29.5744C6.47045 29.7787 7.19688 29.9035 7.946 29.9489C8.68378 29.983 9.39886 30 10.0912 30H14.6711V0.920254ZM9.1378 26.9184C8.34327 26.9184 7.69062 26.8162 7.17985 26.6119C6.65773 26.4076 6.24912 26.0501 5.95401 25.5393C5.64755 25.0172 5.43756 24.3134 5.32406 23.4281C5.21056 22.5314 5.1538 21.4021 5.1538 20.04V11.0164C5.1538 9.65439 5.21056 8.5307 5.32406 7.64537C5.43756 6.74869 5.64755 6.04496 5.95401 5.5342C6.24912 5.01208 6.65773 4.64886 7.17985 4.44456C7.69062 4.24025 8.34327 4.13809 9.1378 4.13809H10.2615V26.9184H9.1378Z" fill="#231E1E"/>
</svg>
