<svg width="203" height="31" viewBox="0 0 203 31" fill="none" xmlns="http://www.w3.org/2000/svg">
<path d="M0.634019 29.9074H5.04365V0.827637H0.634019V29.9074ZM20.6732 29.9074H25.6446L31.0758 0.827637H26.6492L25.8489 6.03747H20.4689L19.7027 0.827637H15.259L20.6732 29.9074ZM25.3382 9.35747L23.2611 23.9144H23.0738L20.9796 9.35747H25.3382ZM33.7318 29.9074H39.197L42.1084 18.1427C42.4149 16.9055 42.6532 15.7137 42.8235 14.5673C42.9937 13.4323 43.1526 12.371 43.3002 11.3835H43.4364C43.5953 12.371 43.7542 13.4323 43.9131 14.5673C44.0834 15.7137 44.3217 16.9055 44.6282 18.1427L47.5055 29.9074H52.9708V0.827637H49.0208V10.4471C49.0208 12.4221 49.0435 14.2779 49.0889 16.0145C49.1457 17.7511 49.2081 19.2721 49.2762 20.5773C49.3556 21.8826 49.4238 22.8758 49.4805 23.5568H49.157L44.7644 4.57327H41.9722L37.5455 23.5568H37.2221C37.2902 22.8758 37.3583 21.8826 37.4264 20.5773C37.4945 19.2721 37.5512 17.7511 37.5966 16.0145C37.6534 14.2779 37.6818 12.4221 37.6818 10.4471V0.827637H33.7318V29.9074ZM65.2973 29.9074H76.415V26.298H69.7069V17.7341H74.9678V14.2608H69.7069V0.827637H65.2973V29.9074ZM78.7816 29.9074H83.5658C84.2354 29.9074 84.9732 29.8677 85.7791 29.7882C86.585 29.7088 87.3852 29.5271 88.1797 29.2434C88.9742 28.971 89.7007 28.534 90.359 27.9324C91.0173 27.3422 91.5451 26.5306 91.9424 25.4977C92.351 24.4762 92.5553 23.1766 92.5553 21.5989V20.8668C92.5553 16.5082 91.2443 13.7047 88.6224 12.4561L93.4066 0.827637H88.7075L84.7065 11.707H83.1912V0.827637H78.7816V29.9074ZM83.7701 14.8908C85.3818 14.8908 86.4885 15.2654 87.0901 16.0145C87.703 16.7636 88.0095 18.1143 88.0095 20.0666V22.365C88.0095 23.8633 87.72 24.9643 87.1412 25.668C86.5736 26.3717 85.4499 26.7236 83.7701 26.7236H83.1912V14.8908H83.7701ZM103.435 0.572253C102.731 0.572253 101.959 0.674406 101.119 0.878714C100.291 1.08302 99.5017 1.50866 98.7526 2.15563C98.0035 2.80261 97.3906 3.77307 96.9139 5.06701C96.4371 6.37231 96.1988 8.1146 96.1988 10.2939V20.5944C96.1988 22.3423 96.3577 23.7952 96.6755 24.9529C97.0047 26.122 97.4303 27.0528 97.9524 27.7451C98.4859 28.4489 99.0704 28.971 99.7061 29.3115C100.353 29.6633 101 29.8904 101.647 29.9925C102.294 30.106 102.89 30.1628 103.435 30.1628C103.957 30.1628 104.536 30.1117 105.171 30.0095C105.818 29.9074 106.46 29.686 107.095 29.3455C107.731 29.0164 108.31 28.5056 108.832 27.8132C109.365 27.1209 109.791 26.1901 110.109 25.021C110.438 23.8519 110.602 22.3764 110.602 20.5944V10.2939C110.602 8.1373 110.353 6.41204 109.853 5.11809C109.354 3.82414 108.724 2.84801 107.963 2.18969C107.203 1.54271 106.414 1.1114 105.597 0.895739C104.791 0.680081 104.07 0.572253 103.435 0.572253ZM103.435 4.02845C104.309 4.02845 104.956 4.35761 105.376 5.01594C105.796 5.67426 106.006 6.90578 106.006 8.7105V21.8202C106.006 23.6817 105.796 24.9586 105.376 25.651C104.956 26.3547 104.309 26.7066 103.435 26.7066C102.538 26.7066 101.874 26.3547 101.443 25.651C101.023 24.9586 100.813 23.6817 100.813 21.8202V8.7105C100.813 6.90578 101.023 5.67426 101.443 5.01594C101.874 4.35761 102.538 4.02845 103.435 4.02845ZM114.944 29.9074H118.434L125.534 10.7876H125.636C125.591 11.3892 125.528 12.0589 125.449 12.7966C125.381 13.5458 125.318 14.4425 125.261 15.4867C125.205 16.5309 125.176 17.8022 125.176 19.3004V29.9074H129.092V0.827637H125.568L118.502 19.4366H118.366C118.423 18.7556 118.485 18.0122 118.553 17.2063C118.622 16.4004 118.684 15.3845 118.741 14.1587C118.797 12.9328 118.826 11.3381 118.826 9.37449V0.827637H114.944V29.9074ZM136.158 26.4342H131.476V29.9074H145.233V26.4342H140.568V0.827637H136.158V26.4342ZM155.567 29.9074H166.685V26.4342H159.977V17.7341H165.238V14.2608H159.977V4.30086H166.685V0.827637H155.567V29.9074ZM169.324 29.9074H172.814L179.914 10.7876H180.016C179.97 11.3892 179.908 12.0589 179.829 12.7966C179.76 13.5458 179.698 14.4425 179.641 15.4867C179.585 16.5309 179.556 17.8022 179.556 19.3004V29.9074H183.472V0.827637H179.948L172.882 19.4366H172.746C172.803 18.7556 172.865 18.0122 172.933 17.2063C173.001 16.4004 173.064 15.3845 173.12 14.1587C173.177 12.9328 173.206 11.3381 173.206 9.37449V0.827637H169.324V29.9074ZM192.87 0.827637H188.29V29.9074H192.87C193.699 29.9074 194.55 29.8677 195.424 29.7882C196.298 29.7088 197.138 29.5044 197.944 29.1753C198.761 28.8461 199.493 28.3127 200.14 27.5749C200.787 26.8484 201.298 25.8383 201.672 24.5443C202.058 23.2617 202.251 21.6102 202.251 19.5899V11.1452C202.251 9.12479 202.058 7.46763 201.672 6.17368C201.298 4.87973 200.787 3.86387 200.14 3.12609C199.493 2.39967 198.761 1.87187 197.944 1.54271C197.138 1.2249 196.298 1.02627 195.424 0.946816C194.55 0.867363 193.699 0.827637 192.87 0.827637ZM192.7 26.5533V4.18168H193.653C194.72 4.18168 195.538 4.37464 196.105 4.76055C196.684 5.14647 197.081 5.83884 197.297 6.83768C197.524 7.83651 197.637 9.24396 197.637 11.06V19.675C197.637 21.5024 197.524 22.9099 197.297 23.8973C197.081 24.8962 196.684 25.5886 196.105 25.9745C195.538 26.3604 194.72 26.5533 193.653 26.5533H192.7Z" fill="#FFB11B"/>
</svg>
