<svg width="937" height="94" viewBox="0 0 937 94" fill="none" xmlns="http://www.w3.org/2000/svg">
<mask id="path-1-outside-1_0_6" maskUnits="userSpaceOnUse" x="0" y="-0.147461" width="937" height="94" fill="black">
<rect fill="white" y="-0.147461" width="937" height="94"/>
<path d="M4.73018 88.8525V4.8304H21.5346V88.8525H4.73018ZM111.959 4.8304L141.967 88.8525H125.402L119.041 70.7278H87.5923L81.2307 88.8525H64.6663L94.6742 4.8304H111.959ZM103.196 25.956L92.6337 56.324H113.879L103.437 25.956H103.196ZM224.648 88.8525V33.3979H224.408L205.443 88.8525H189.479L170.394 32.6777H170.153V88.8525H153.949V4.8304H176.275L197.401 66.6467H197.641L218.646 4.8304H240.852V88.8525H224.648ZM309.189 52.8431V88.8525H292.384V4.8304H343.878V19.2342H309.189V38.4393H336.676V52.8431H309.189ZM420.825 88.8525H402.341L384.336 57.1642H373.893V88.8525H357.089V4.8304H402.581L416.504 12.8725V49.1221L402.581 57.1642L420.825 88.8525ZM373.893 19.2342V42.7604H399.7V19.2342H373.893ZM502.332 81.4106L488.408 89.4527H450.838L436.914 81.4106V12.2724L450.838 4.23024H488.408L502.332 12.2724V81.4106ZM453.719 18.634V75.0489H485.527V18.634H453.719ZM539.523 34.4782V88.8525H522.718V4.8304H538.442L574.692 59.2047H574.932V4.8304H591.736V88.8525H576.012L539.763 34.4782H539.523ZM644.444 19.2342V88.8525H627.64V19.2342H604.954V4.8304H667.13V19.2342H644.444ZM728.361 52.8431V74.4487H761.85V88.8525H711.557V4.8304H761.85V19.2342H728.361V38.4393H754.648V52.8431H728.361ZM794.238 34.4782V88.8525H777.434V4.8304H793.158L829.407 59.2047H829.648V4.8304H846.452V88.8525H830.728L794.478 34.4782H794.238ZM932.289 80.8104L918.365 88.8525H866.871V4.8304H918.365L932.289 12.8725V80.8104ZM883.676 19.2342V74.4487H915.484V19.2342H883.676Z"/>
</mask>
<path d="M4.73018 88.8525H0.979196V92.6035H4.73018V88.8525ZM4.73018 4.8304V1.07941H0.979196V4.8304H4.73018ZM21.5346 4.8304H25.2856V1.07941H21.5346V4.8304ZM21.5346 88.8525V92.6035H25.2856V88.8525H21.5346ZM8.48117 88.8525V4.8304H0.979196V88.8525H8.48117ZM4.73018 8.58139H21.5346V1.07941H4.73018V8.58139ZM17.7836 4.8304V88.8525H25.2856V4.8304H17.7836ZM21.5346 85.1015H4.73018V92.6035H21.5346V85.1015ZM111.959 4.8304L115.491 3.56881L114.602 1.07941H111.959V4.8304ZM141.967 88.8525V92.6035H147.289L145.499 87.5909L141.967 88.8525ZM125.402 88.8525L121.863 90.0948L122.744 92.6035H125.402V88.8525ZM119.041 70.7278L122.58 69.4855L121.699 66.9768H119.041V70.7278ZM87.5923 70.7278V66.9768H84.9336L84.053 69.4855L87.5923 70.7278ZM81.2307 88.8525V92.6035H83.8894L84.77 90.0948L81.2307 88.8525ZM64.6663 88.8525L61.1338 87.5909L59.3436 92.6035H64.6663V88.8525ZM94.6742 4.8304V1.07941H92.0308L91.1417 3.56881L94.6742 4.8304ZM103.196 25.956V22.205H100.53L99.6536 24.7237L103.196 25.956ZM92.6337 56.324L89.0909 55.0917L87.3576 60.075H92.6337V56.324ZM113.879 56.324V60.075H119.136L117.426 55.1042L113.879 56.324ZM103.437 25.956L106.984 24.7362L106.113 22.205H103.437V25.956ZM108.426 6.092L138.434 90.1141L145.499 87.5909L115.491 3.56881L108.426 6.092ZM141.967 85.1015H125.402V92.6035H141.967V85.1015ZM128.942 87.6103L122.58 69.4855L115.501 71.97L121.863 90.0948L128.942 87.6103ZM119.041 66.9768H87.5923V74.4788H119.041V66.9768ZM84.053 69.4855L77.6914 87.6103L84.77 90.0948L91.1316 71.97L84.053 69.4855ZM81.2307 85.1015H64.6663V92.6035H81.2307V85.1015ZM68.1988 90.1141L98.2067 6.092L91.1417 3.56881L61.1338 87.5909L68.1988 90.1141ZM94.6742 8.58139H111.959V1.07941H94.6742V8.58139ZM99.6536 24.7237L89.0909 55.0917L96.1765 57.5562L106.739 27.1882L99.6536 24.7237ZM92.6337 60.075H113.879V52.573H92.6337V60.075ZM117.426 55.1042L106.984 24.7362L99.8894 27.1757L110.332 57.5437L117.426 55.1042ZM103.437 22.205H103.196V29.707H103.437V22.205ZM224.648 88.8525H220.897V92.6035H224.648V88.8525ZM224.648 33.3979H228.399V29.6469H224.648V33.3979ZM224.408 33.3979V29.6469H221.726L220.859 32.1841L224.408 33.3979ZM205.443 88.8525V92.6035H208.124L208.992 90.0663L205.443 88.8525ZM189.479 88.8525L185.927 90.0592L186.791 92.6035H189.479V88.8525ZM170.394 32.6777L173.945 31.4711L173.081 28.9268H170.394V32.6777ZM170.153 32.6777V28.9268H166.402V32.6777H170.153ZM170.153 88.8525V92.6035H173.904V88.8525H170.153ZM153.949 88.8525H150.198V92.6035H153.949V88.8525ZM153.949 4.8304V1.07941H150.198V4.8304H153.949ZM176.275 4.8304L179.824 3.61739L178.957 1.07941H176.275V4.8304ZM197.401 66.6467L193.851 67.8597L194.719 70.3977H197.401V66.6467ZM197.641 66.6467V70.3977H200.328L201.192 67.8535L197.641 66.6467ZM218.646 4.8304V1.07941H215.959L215.095 3.62357L218.646 4.8304ZM240.852 4.8304H244.603V1.07941H240.852V4.8304ZM240.852 88.8525V92.6035H244.603V88.8525H240.852ZM228.399 88.8525V33.3979H220.897V88.8525H228.399ZM224.648 29.6469H224.408V37.1489H224.648V29.6469ZM220.859 32.1841L201.894 87.6388L208.992 90.0663L227.957 34.6117L220.859 32.1841ZM205.443 85.1015H189.479V92.6035H205.443V85.1015ZM193.03 87.6459L173.945 31.4711L166.842 33.8844L185.927 90.0592L193.03 87.6459ZM170.394 28.9268H170.153V36.4287H170.394V28.9268ZM166.402 32.6777V88.8525H173.904V32.6777H166.402ZM170.153 85.1015H153.949V92.6035H170.153V85.1015ZM157.7 88.8525V4.8304H150.198V88.8525H157.7ZM153.949 8.58139H176.275V1.07941H153.949V8.58139ZM172.726 6.04342L193.851 67.8597L200.95 65.4337L179.824 3.61739L172.726 6.04342ZM197.401 70.3977H197.641V62.8957H197.401V70.3977ZM201.192 67.8535L222.198 6.03724L215.095 3.62357L194.089 65.4399L201.192 67.8535ZM218.646 8.58139H240.852V1.07941H218.646V8.58139ZM237.101 4.8304V88.8525H244.603V4.8304H237.101ZM240.852 85.1015H224.648V92.6035H240.852V85.1015ZM309.189 52.8431V49.0921H305.438V52.8431H309.189ZM309.189 88.8525V92.6035H312.94V88.8525H309.189ZM292.384 88.8525H288.633V92.6035H292.384V88.8525ZM292.384 4.8304V1.07941H288.633V4.8304H292.384ZM343.878 4.8304H347.629V1.07941H343.878V4.8304ZM343.878 19.2342V22.9852H347.629V19.2342H343.878ZM309.189 19.2342V15.4832H305.438V19.2342H309.189ZM309.189 38.4393H305.438V42.1902H309.189V38.4393ZM336.676 38.4393H340.427V34.6883H336.676V38.4393ZM336.676 52.8431V56.594H340.427V52.8431H336.676ZM305.438 52.8431V88.8525H312.94V52.8431H305.438ZM309.189 85.1015H292.384V92.6035H309.189V85.1015ZM296.135 88.8525V4.8304H288.633V88.8525H296.135ZM292.384 8.58139H343.878V1.07941H292.384V8.58139ZM340.127 4.8304V19.2342H347.629V4.8304H340.127ZM343.878 15.4832H309.189V22.9852H343.878V15.4832ZM305.438 19.2342V38.4393H312.94V19.2342H305.438ZM309.189 42.1902H336.676V34.6883H309.189V42.1902ZM332.925 38.4393V52.8431H340.427V38.4393H332.925ZM336.676 49.0921H309.189V56.594H336.676V49.0921ZM420.825 88.8525V92.6035H427.313L424.076 86.9809L420.825 88.8525ZM402.341 88.8525L399.079 90.7056L400.158 92.6035H402.341V88.8525ZM384.336 57.1642L387.597 55.3112L386.519 53.4132H384.336V57.1642ZM373.893 57.1642V53.4132H370.142V57.1642H373.893ZM373.893 88.8525V92.6035H377.644V88.8525H373.893ZM357.089 88.8525H353.338V92.6035H357.089V88.8525ZM357.089 4.8304V1.07941H353.338V4.8304H357.089ZM402.581 4.8304L404.457 1.58228L403.586 1.07941H402.581V4.8304ZM416.504 12.8725H420.255V10.7073L418.38 9.6244L416.504 12.8725ZM416.504 49.1221L418.38 52.3702L420.255 51.2873V49.1221H416.504ZM402.581 57.1642L400.705 53.9161L397.461 55.7896L399.33 59.0358L402.581 57.1642ZM373.893 19.2342V15.4832H370.142V19.2342H373.893ZM373.893 42.7604H370.142V46.5114H373.893V42.7604ZM399.7 42.7604V46.5114H403.451V42.7604H399.7ZM399.7 19.2342H403.451V15.4832H399.7V19.2342ZM420.825 85.1015H402.341V92.6035H420.825V85.1015ZM405.602 86.9995L387.597 55.3112L381.074 59.0172L399.079 90.7056L405.602 86.9995ZM384.336 53.4132H373.893V60.9152H384.336V53.4132ZM370.142 57.1642V88.8525H377.644V57.1642H370.142ZM373.893 85.1015H357.089V92.6035H373.893V85.1015ZM360.84 88.8525V4.8304H353.338V88.8525H360.84ZM357.089 8.58139H402.581V1.07941H357.089V8.58139ZM400.705 8.07852L414.628 16.1206L418.38 9.6244L404.457 1.58228L400.705 8.07852ZM412.753 12.8725V49.1221H420.255V12.8725H412.753ZM414.628 45.874L400.705 53.9161L404.457 60.4123L418.38 52.3702L414.628 45.874ZM399.33 59.0358L417.575 90.7242L424.076 86.9809L405.831 55.2926L399.33 59.0358ZM370.142 19.2342V42.7604H377.644V19.2342H370.142ZM373.893 46.5114H399.7V39.0094H373.893V46.5114ZM403.451 42.7604V19.2342H395.949V42.7604H403.451ZM399.7 15.4832H373.893V22.9852H399.7V15.4832ZM502.332 81.4106L504.208 84.6587L506.083 83.5758V81.4106H502.332ZM488.408 89.4527V93.2037H489.413L490.284 92.7008L488.408 89.4527ZM450.838 89.4527L448.962 92.7008L449.833 93.2037H450.838V89.4527ZM436.914 81.4106H433.163V83.5758L435.038 84.6587L436.914 81.4106ZM436.914 12.2724L435.038 9.02425L433.163 10.1072V12.2724H436.914ZM450.838 4.23024V0.479256H449.833L448.962 0.982124L450.838 4.23024ZM488.408 4.23024L490.284 0.982124L489.413 0.479256H488.408V4.23024ZM502.332 12.2724H506.083V10.1072L504.208 9.02425L502.332 12.2724ZM453.719 18.634V14.8831H449.968V18.634H453.719ZM453.719 75.0489H449.968V78.7999H453.719V75.0489ZM485.527 75.0489V78.7999H489.278V75.0489H485.527ZM485.527 18.634H489.278V14.8831H485.527V18.634ZM500.456 78.1625L486.532 86.2046L490.284 92.7008L504.208 84.6587L500.456 78.1625ZM488.408 85.7017H450.838V93.2037H488.408V85.7017ZM452.714 86.2046L438.79 78.1625L435.038 84.6587L448.962 92.7008L452.714 86.2046ZM440.665 81.4106V12.2724H433.163V81.4106H440.665ZM438.79 15.5205L452.714 7.47836L448.962 0.982124L435.038 9.02425L438.79 15.5205ZM450.838 7.98123H488.408V0.479256H450.838V7.98123ZM486.532 7.47836L500.456 15.5205L504.208 9.02425L490.284 0.982124L486.532 7.47836ZM498.581 12.2724V81.4106H506.083V12.2724H498.581ZM449.968 18.634V75.0489H457.47V18.634H449.968ZM453.719 78.7999H485.527V71.2979H453.719V78.7999ZM489.278 75.0489V18.634H481.776V75.0489H489.278ZM485.527 14.8831H453.719V22.385H485.527V14.8831ZM539.523 34.4782V30.7272H535.772V34.4782H539.523ZM539.523 88.8525V92.6035H543.274V88.8525H539.523ZM522.718 88.8525H518.967V92.6035H522.718V88.8525ZM522.718 4.8304V1.07941H518.967V4.8304H522.718ZM538.442 4.8304L541.563 2.74973L540.45 1.07941H538.442V4.8304ZM574.692 59.2047L571.571 61.2854L572.684 62.9557H574.692V59.2047ZM574.932 59.2047V62.9557H578.683V59.2047H574.932ZM574.932 4.8304V1.07941H571.181V4.8304H574.932ZM591.736 4.8304H595.487V1.07941H591.736V4.8304ZM591.736 88.8525V92.6035H595.487V88.8525H591.736ZM576.012 88.8525L572.891 90.9332L574.005 92.6035H576.012V88.8525ZM539.763 34.4782L542.884 32.3975L541.77 30.7272H539.763V34.4782ZM535.772 34.4782V88.8525H543.274V34.4782H535.772ZM539.523 85.1015H522.718V92.6035H539.523V85.1015ZM526.469 88.8525V4.8304H518.967V88.8525H526.469ZM522.718 8.58139H538.442V1.07941H522.718V8.58139ZM535.321 6.91108L571.571 61.2854L577.813 57.1241L541.563 2.74973L535.321 6.91108ZM574.692 62.9557H574.932V55.4537H574.692V62.9557ZM578.683 59.2047V4.8304H571.181V59.2047H578.683ZM574.932 8.58139H591.736V1.07941H574.932V8.58139ZM587.985 4.8304V88.8525H595.487V4.8304H587.985ZM591.736 85.1015H576.012V92.6035H591.736V85.1015ZM579.133 86.7719L542.884 32.3975L536.642 36.5589L572.891 90.9332L579.133 86.7719ZM539.763 30.7272H539.523V38.2292H539.763V30.7272ZM644.444 19.2342V15.4832H640.693V19.2342H644.444ZM644.444 88.8525V92.6035H648.195V88.8525H644.444ZM627.64 88.8525H623.889V92.6035H627.64V88.8525ZM627.64 19.2342H631.391V15.4832H627.64V19.2342ZM604.954 19.2342H601.203V22.9852H604.954V19.2342ZM604.954 4.8304V1.07941H601.203V4.8304H604.954ZM667.13 4.8304H670.881V1.07941H667.13V4.8304ZM667.13 19.2342V22.9852H670.881V19.2342H667.13ZM640.693 19.2342V88.8525H648.195V19.2342H640.693ZM644.444 85.1015H627.64V92.6035H644.444V85.1015ZM631.391 88.8525V19.2342H623.889V88.8525H631.391ZM627.64 15.4832H604.954V22.9852H627.64V15.4832ZM608.705 19.2342V4.8304H601.203V19.2342H608.705ZM604.954 8.58139H667.13V1.07941H604.954V8.58139ZM663.379 4.8304V19.2342H670.881V4.8304H663.379ZM667.13 15.4832H644.444V22.9852H667.13V15.4832ZM728.361 52.8431V49.0921H724.61V52.8431H728.361ZM728.361 74.4487H724.61V78.1997H728.361V74.4487ZM761.85 74.4487H765.601V70.6978H761.85V74.4487ZM761.85 88.8525V92.6035H765.601V88.8525H761.85ZM711.557 88.8525H707.806V92.6035H711.557V88.8525ZM711.557 4.8304V1.07941H707.806V4.8304H711.557ZM761.85 4.8304H765.601V1.07941H761.85V4.8304ZM761.85 19.2342V22.9852H765.601V19.2342H761.85ZM728.361 19.2342V15.4832H724.61V19.2342H728.361ZM728.361 38.4393H724.61V42.1902H728.361V38.4393ZM754.648 38.4393H758.399V34.6883H754.648V38.4393ZM754.648 52.8431V56.594H758.399V52.8431H754.648ZM724.61 52.8431V74.4487H732.112V52.8431H724.61ZM728.361 78.1997H761.85V70.6978H728.361V78.1997ZM758.099 74.4487V88.8525H765.601V74.4487H758.099ZM761.85 85.1015H711.557V92.6035H761.85V85.1015ZM715.308 88.8525V4.8304H707.806V88.8525H715.308ZM711.557 8.58139H761.85V1.07941H711.557V8.58139ZM758.099 4.8304V19.2342H765.601V4.8304H758.099ZM761.85 15.4832H728.361V22.9852H761.85V15.4832ZM724.61 19.2342V38.4393H732.112V19.2342H724.61ZM728.361 42.1902H754.648V34.6883H728.361V42.1902ZM750.897 38.4393V52.8431H758.399V38.4393H750.897ZM754.648 49.0921H728.361V56.594H754.648V49.0921ZM794.238 34.4782V30.7272H790.487V34.4782H794.238ZM794.238 88.8525V92.6035H797.989V88.8525H794.238ZM777.434 88.8525H773.683V92.6035H777.434V88.8525ZM777.434 4.8304V1.07941H773.683V4.8304H777.434ZM793.158 4.8304L796.279 2.74973L795.165 1.07941H793.158V4.8304ZM829.407 59.2047L826.286 61.2854L827.4 62.9557H829.407V59.2047ZM829.648 59.2047V62.9557H833.398V59.2047H829.648ZM829.648 4.8304V1.07941H825.897V4.8304H829.648ZM846.452 4.8304H850.203V1.07941H846.452V4.8304ZM846.452 88.8525V92.6035H850.203V88.8525H846.452ZM830.728 88.8525L827.607 90.9332L828.72 92.6035H830.728V88.8525ZM794.478 34.4782L797.599 32.3975L796.486 30.7272H794.478V34.4782ZM790.487 34.4782V88.8525H797.989V34.4782H790.487ZM794.238 85.1015H777.434V92.6035H794.238V85.1015ZM781.185 88.8525V4.8304H773.683V88.8525H781.185ZM777.434 8.58139H793.158V1.07941H777.434V8.58139ZM790.037 6.91108L826.286 61.2854L832.528 57.1241L796.279 2.74973L790.037 6.91108ZM829.407 62.9557H829.648V55.4537H829.407V62.9557ZM833.398 59.2047V4.8304H825.897V59.2047H833.398ZM829.648 8.58139H846.452V1.07941H829.648V8.58139ZM842.701 4.8304V88.8525H850.203V4.8304H842.701ZM846.452 85.1015H830.728V92.6035H846.452V85.1015ZM833.849 86.7719L797.599 32.3975L791.357 36.5589L827.607 90.9332L833.849 86.7719ZM794.478 30.7272H794.238V38.2292H794.478V30.7272ZM932.289 80.8104L934.165 84.0585L936.04 82.9756V80.8104H932.289ZM918.365 88.8525V92.6035H919.37L920.241 92.1007L918.365 88.8525ZM866.871 88.8525H863.12V92.6035H866.871V88.8525ZM866.871 4.8304V1.07941H863.12V4.8304H866.871ZM918.365 4.8304L920.241 1.58228L919.37 1.07941H918.365V4.8304ZM932.289 12.8725H936.04V10.7073L934.165 9.6244L932.289 12.8725ZM883.676 19.2342V15.4832H879.925V19.2342H883.676ZM883.676 74.4487H879.925V78.1997H883.676V74.4487ZM915.484 74.4487V78.1997H919.235V74.4487H915.484ZM915.484 19.2342H919.235V15.4832H915.484V19.2342ZM930.413 77.5623L916.489 85.6044L920.241 92.1007L934.165 84.0585L930.413 77.5623ZM918.365 85.1015H866.871V92.6035H918.365V85.1015ZM870.622 88.8525V4.8304H863.12V88.8525H870.622ZM866.871 8.58139H918.365V1.07941H866.871V8.58139ZM916.489 8.07852L930.413 16.1206L934.165 9.6244L920.241 1.58228L916.489 8.07852ZM928.538 12.8725V80.8104H936.04V12.8725H928.538ZM879.925 19.2342V74.4487H887.427V19.2342H879.925ZM883.676 78.1997H915.484V70.6978H883.676V78.1997ZM919.235 74.4487V19.2342H911.733V74.4487H919.235ZM915.484 15.4832H883.676V22.9852H915.484V15.4832Z" fill="white" mask="url(#path-1-outside-1_0_6)"/>
</svg>
