<svg width="937" height="94" viewBox="0 0 937 94" fill="none" xmlns="http://www.w3.org/2000/svg">
<mask id="path-1-outside-1_11_10" maskUnits="userSpaceOnUse" x="0" y="0" width="937" height="94" fill="black">
<rect fill="white" width="937" height="94"/>
<path d="M4.73018 89V4.97786H21.5346V89H4.73018ZM111.959 4.97786L141.967 89H125.402L119.041 70.8752H87.5923L81.2307 89H64.6663L94.6742 4.97786H111.959ZM103.196 26.1034L92.6337 56.4714H113.879L103.437 26.1034H103.196ZM224.648 89V33.5454H224.408L205.443 89H189.479L170.394 32.8252H170.153V89H153.949V4.97786H176.275L197.401 66.7942H197.641L218.646 4.97786H240.852V89H224.648ZM309.189 52.9905V89H292.384V4.97786H343.878V19.3817H309.189V38.5867H336.676V52.9905H309.189ZM420.825 89H402.341L384.336 57.3117H373.893V89H357.089V4.97786H402.581L416.504 13.02V49.2695L402.581 57.3117L420.825 89ZM373.893 19.3817V42.9079H399.7V19.3817H373.893ZM502.332 81.558L488.408 89.6002H450.838L436.914 81.558V12.4198L450.838 4.37771H488.408L502.332 12.4198V81.558ZM453.719 18.7815V75.1964H485.527V18.7815H453.719ZM539.523 34.6257V89H522.718V4.97786H538.442L574.692 59.3522H574.932V4.97786H591.736V89H576.012L539.763 34.6257H539.523ZM644.444 19.3817V89H627.64V19.3817H604.954V4.97786H667.13V19.3817H644.444ZM728.361 52.9905V74.5962H761.85V89H711.557V4.97786H761.85V19.3817H728.361V38.5867H754.648V52.9905H728.361ZM794.238 34.6257V89H777.434V4.97786H793.158L829.407 59.3522H829.648V4.97786H846.452V89H830.728L794.478 34.6257H794.238ZM932.289 80.9579L918.365 89H866.871V4.97786H918.365L932.289 13.02V80.9579ZM883.676 19.3817V74.5962H915.484V19.3817H883.676Z"/>
</mask>
<path d="M4.73018 89H0.979196V92.751H4.73018V89ZM4.73018 4.97786V1.22687H0.979196V4.97786H4.73018ZM21.5346 4.97786H25.2856V1.22687H21.5346V4.97786ZM21.5346 89V92.751H25.2856V89H21.5346ZM8.48117 89V4.97786H0.979196V89H8.48117ZM4.73018 8.72885H21.5346V1.22687H4.73018V8.72885ZM17.7836 4.97786V89H25.2856V4.97786H17.7836ZM21.5346 85.249H4.73018V92.751H21.5346V85.249ZM111.959 4.97786L115.491 3.71627L114.602 1.22687H111.959V4.97786ZM141.967 89V92.751H147.289L145.499 87.7384L141.967 89ZM125.402 89L121.863 90.2423L122.744 92.751H125.402V89ZM119.041 70.8752L122.58 69.633L121.699 67.1242H119.041V70.8752ZM87.5923 70.8752V67.1242H84.9336L84.053 69.633L87.5923 70.8752ZM81.2307 89V92.751H83.8894L84.77 90.2423L81.2307 89ZM64.6663 89L61.1338 87.7384L59.3436 92.751H64.6663V89ZM94.6742 4.97786V1.22687H92.0308L91.1417 3.71627L94.6742 4.97786ZM103.196 26.1034V22.3524H100.53L99.6536 24.8712L103.196 26.1034ZM92.6337 56.4714L89.0909 55.2392L87.3576 60.2224H92.6337V56.4714ZM113.879 56.4714V60.2224H119.136L117.426 55.2517L113.879 56.4714ZM103.437 26.1034L106.984 24.8837L106.113 22.3524H103.437V26.1034ZM108.426 6.23946L138.434 90.2616L145.499 87.7384L115.491 3.71627L108.426 6.23946ZM141.967 85.249H125.402V92.751H141.967V85.249ZM128.942 87.7577L122.58 69.633L115.501 72.1175L121.863 90.2423L128.942 87.7577ZM119.041 67.1242H87.5923V74.6262H119.041V67.1242ZM84.053 69.633L77.6913 87.7577L84.77 90.2423L91.1316 72.1175L84.053 69.633ZM81.2307 85.249H64.6663V92.751H81.2307V85.249ZM68.1988 90.2616L98.2067 6.23946L91.1417 3.71627L61.1338 87.7384L68.1988 90.2616ZM94.6742 8.72885H111.959V1.22687H94.6742V8.72885ZM99.6536 24.8712L89.0909 55.2392L96.1765 57.7037L106.739 27.3357L99.6536 24.8712ZM92.6337 60.2224H113.879V52.7204H92.6337V60.2224ZM117.426 55.2517L106.984 24.8837L99.8894 27.3232L110.332 57.6912L117.426 55.2517ZM103.437 22.3524H103.196V29.8544H103.437V22.3524ZM224.648 89H220.897V92.751H224.648V89ZM224.648 33.5454H228.399V29.7944H224.648V33.5454ZM224.408 33.5454V29.7944H221.726L220.859 32.3316L224.408 33.5454ZM205.443 89V92.751H208.124L208.992 90.2138L205.443 89ZM189.479 89L185.927 90.2066L186.791 92.751H189.479V89ZM170.394 32.8252L173.945 31.6186L173.081 29.0742H170.394V32.8252ZM170.153 32.8252V29.0742H166.402V32.8252H170.153ZM170.153 89V92.751H173.904V89H170.153ZM153.949 89H150.198V92.751H153.949V89ZM153.949 4.97786V1.22687H150.198V4.97786H153.949ZM176.275 4.97786L179.825 3.76485L178.957 1.22687H176.275V4.97786ZM197.401 66.7942L193.851 68.0072L194.719 70.5451H197.401V66.7942ZM197.641 66.7942V70.5451H200.328L201.192 68.001L197.641 66.7942ZM218.646 4.97786V1.22687H215.959L215.095 3.77103L218.646 4.97786ZM240.852 4.97786H244.603V1.22687H240.852V4.97786ZM240.852 89V92.751H244.603V89H240.852ZM228.399 89V33.5454H220.897V89H228.399ZM224.648 29.7944H224.408V37.2964H224.648V29.7944ZM220.859 32.3316L201.894 87.7862L208.992 90.2138L227.957 34.7592L220.859 32.3316ZM205.443 85.249H189.479V92.751H205.443V85.249ZM193.03 87.7934L173.945 31.6186L166.842 34.0318L185.927 90.2066L193.03 87.7934ZM170.394 29.0742H170.153V36.5762H170.394V29.0742ZM166.402 32.8252V89H173.904V32.8252H166.402ZM170.153 85.249H153.949V92.751H170.153V85.249ZM157.7 89V4.97786H150.198V89H157.7ZM153.949 8.72885H176.275V1.22687H153.949V8.72885ZM172.726 6.19087L193.851 68.0072L200.95 65.5811L179.825 3.76485L172.726 6.19087ZM197.401 70.5451H197.641V63.0432H197.401V70.5451ZM201.192 68.001L222.198 6.1847L215.095 3.77103L194.089 65.5873L201.192 68.001ZM218.646 8.72885H240.852V1.22687H218.646V8.72885ZM237.101 4.97786V89H244.603V4.97786H237.101ZM240.852 85.249H224.648V92.751H240.852V85.249ZM309.189 52.9905V49.2395H305.438V52.9905H309.189ZM309.189 89V92.751H312.939V89H309.189ZM292.384 89H288.633V92.751H292.384V89ZM292.384 4.97786V1.22687H288.633V4.97786H292.384ZM343.878 4.97786H347.629V1.22687H343.878V4.97786ZM343.878 19.3817V23.1326H347.629V19.3817H343.878ZM309.189 19.3817V15.6307H305.438V19.3817H309.189ZM309.189 38.5867H305.438V42.3377H309.189V38.5867ZM336.676 38.5867H340.427V34.8357H336.676V38.5867ZM336.676 52.9905V56.7415H340.427V52.9905H336.676ZM305.438 52.9905V89H312.939V52.9905H305.438ZM309.189 85.249H292.384V92.751H309.189V85.249ZM296.135 89V4.97786H288.633V89H296.135ZM292.384 8.72885H343.878V1.22687H292.384V8.72885ZM340.127 4.97786V19.3817H347.629V4.97786H340.127ZM343.878 15.6307H309.189V23.1326H343.878V15.6307ZM305.438 19.3817V38.5867H312.939V19.3817H305.438ZM309.189 42.3377H336.676V34.8357H309.189V42.3377ZM332.925 38.5867V52.9905H340.427V38.5867H332.925ZM336.676 49.2395H309.189V56.7415H336.676V49.2395ZM420.825 89V92.751H427.313L424.076 87.1284L420.825 89ZM402.341 89L399.079 90.853L400.158 92.751H402.341V89ZM384.336 57.3117L387.597 55.4586L386.519 53.5607H384.336V57.3117ZM373.893 57.3117V53.5607H370.142V57.3117H373.893ZM373.893 89V92.751H377.644V89H373.893ZM357.089 89H353.338V92.751H357.089V89ZM357.089 4.97786V1.22687H353.338V4.97786H357.089ZM402.581 4.97786L404.457 1.72974L403.586 1.22687H402.581V4.97786ZM416.504 13.02H420.255V10.8548L418.38 9.77187L416.504 13.02ZM416.504 49.2695L418.38 52.5177L420.255 51.4347V49.2695H416.504ZM402.581 57.3117L400.705 54.0635L397.461 55.937L399.33 59.1833L402.581 57.3117ZM373.893 19.3817V15.6307H370.142V19.3817H373.893ZM373.893 42.9079H370.142V46.6588H373.893V42.9079ZM399.7 42.9079V46.6588H403.451V42.9079H399.7ZM399.7 19.3817H403.451V15.6307H399.7V19.3817ZM420.825 85.249H402.341V92.751H420.825V85.249ZM405.602 87.147L387.597 55.4586L381.074 59.1647L399.079 90.853L405.602 87.147ZM384.336 53.5607H373.893V61.0626H384.336V53.5607ZM370.142 57.3117V89H377.644V57.3117H370.142ZM373.893 85.249H357.089V92.751H373.893V85.249ZM360.84 89V4.97786H353.338V89H360.84ZM357.089 8.72885H402.581V1.22687H357.089V8.72885ZM400.705 8.22598L414.628 16.2681L418.38 9.77187L404.457 1.72974L400.705 8.22598ZM412.753 13.02V49.2695H420.255V13.02H412.753ZM414.628 46.0214L400.705 54.0635L404.457 60.5598L418.38 52.5177L414.628 46.0214ZM399.33 59.1833L417.575 90.8716L424.076 87.1284L405.831 55.44L399.33 59.1833ZM370.142 19.3817V42.9079H377.644V19.3817H370.142ZM373.893 46.6588H399.7V39.1569H373.893V46.6588ZM403.451 42.9079V19.3817H395.949V42.9079H403.451ZM399.7 15.6307H373.893V23.1326H399.7V15.6307ZM502.332 81.558L504.208 84.8062L506.083 83.7232V81.558H502.332ZM488.408 89.6002V93.3511H489.413L490.284 92.8483L488.408 89.6002ZM450.838 89.6002L448.962 92.8483L449.833 93.3511H450.838V89.6002ZM436.914 81.558H433.163V83.7232L435.038 84.8062L436.914 81.558ZM436.914 12.4198L435.038 9.17171L433.163 10.2546V12.4198H436.914ZM450.838 4.37771V0.626717H449.833L448.962 1.12959L450.838 4.37771ZM488.408 4.37771L490.284 1.12959L489.413 0.626717H488.408V4.37771ZM502.332 12.4198H506.083V10.2546L504.208 9.17171L502.332 12.4198ZM453.719 18.7815V15.0305H449.968V18.7815H453.719ZM453.719 75.1964H449.968V78.9474H453.719V75.1964ZM485.527 75.1964V78.9474H489.278V75.1964H485.527ZM485.527 18.7815H489.278V15.0305H485.527V18.7815ZM500.455 78.3099L486.532 86.352L490.284 92.8483L504.208 84.8062L500.455 78.3099ZM488.408 85.8492H450.838V93.3511H488.408V85.8492ZM452.714 86.352L438.79 78.3099L435.038 84.8062L448.962 92.8483L452.714 86.352ZM440.665 81.558V12.4198H433.163V81.558H440.665ZM438.79 15.6679L452.714 7.62582L448.962 1.12959L435.038 9.17171L438.79 15.6679ZM450.838 8.12869H488.408V0.626717H450.838V8.12869ZM486.532 7.62582L500.455 15.6679L504.208 9.17171L490.284 1.12959L486.532 7.62582ZM498.581 12.4198V81.558H506.083V12.4198H498.581ZM449.968 18.7815V75.1964H457.47V18.7815H449.968ZM453.719 78.9474H485.527V71.4454H453.719V78.9474ZM489.278 75.1964V18.7815H481.776V75.1964H489.278ZM485.527 15.0305H453.719V22.5325H485.527V15.0305ZM539.523 34.6257V30.8747H535.772V34.6257H539.523ZM539.523 89V92.751H543.274V89H539.523ZM522.718 89H518.967V92.751H522.718V89ZM522.718 4.97786V1.22687H518.967V4.97786H522.718ZM538.442 4.97786L541.563 2.89719L540.45 1.22687H538.442V4.97786ZM574.692 59.3522L571.571 61.4329L572.684 63.1032H574.692V59.3522ZM574.932 59.3522V63.1032H578.683V59.3522H574.932ZM574.932 4.97786V1.22687H571.181V4.97786H574.932ZM591.736 4.97786H595.487V1.22687H591.736V4.97786ZM591.736 89V92.751H595.487V89H591.736ZM576.012 89L572.891 91.0807L574.005 92.751H576.012V89ZM539.763 34.6257L542.884 32.545L541.77 30.8747H539.763V34.6257ZM535.772 34.6257V89H543.274V34.6257H535.772ZM539.523 85.249H522.718V92.751H539.523V85.249ZM526.469 89V4.97786H518.967V89H526.469ZM522.718 8.72885H538.442V1.22687H522.718V8.72885ZM535.321 7.05854L571.571 61.4329L577.813 57.2715L541.563 2.89719L535.321 7.05854ZM574.692 63.1032H574.932V55.6012H574.692V63.1032ZM578.683 59.3522V4.97786H571.181V59.3522H578.683ZM574.932 8.72885H591.736V1.22687H574.932V8.72885ZM587.985 4.97786V89H595.487V4.97786H587.985ZM591.736 85.249H576.012V92.751H591.736V85.249ZM579.133 86.9193L542.884 32.545L536.642 36.7064L572.891 91.0807L579.133 86.9193ZM539.763 30.8747H539.523V38.3767H539.763V30.8747ZM644.444 19.3817V15.6307H640.693V19.3817H644.444ZM644.444 89V92.751H648.195V89H644.444ZM627.64 89H623.889V92.751H627.64V89ZM627.64 19.3817H631.391V15.6307H627.64V19.3817ZM604.954 19.3817H601.203V23.1326H604.954V19.3817ZM604.954 4.97786V1.22687H601.203V4.97786H604.954ZM667.13 4.97786H670.881V1.22687H667.13V4.97786ZM667.13 19.3817V23.1326H670.881V19.3817H667.13ZM640.693 19.3817V89H648.195V19.3817H640.693ZM644.444 85.249H627.64V92.751H644.444V85.249ZM631.391 89V19.3817H623.889V89H631.391ZM627.64 15.6307H604.954V23.1326H627.64V15.6307ZM608.705 19.3817V4.97786H601.203V19.3817H608.705ZM604.954 8.72885H667.13V1.22687H604.954V8.72885ZM663.379 4.97786V19.3817H670.881V4.97786H663.379ZM667.13 15.6307H644.444V23.1326H667.13V15.6307ZM728.361 52.9905V49.2395H724.61V52.9905H728.361ZM728.361 74.5962H724.61V78.3472H728.361V74.5962ZM761.85 74.5962H765.601V70.8452H761.85V74.5962ZM761.85 89V92.751H765.601V89H761.85ZM711.557 89H707.806V92.751H711.557V89ZM711.557 4.97786V1.22687H707.806V4.97786H711.557ZM761.85 4.97786H765.601V1.22687H761.85V4.97786ZM761.85 19.3817V23.1326H765.601V19.3817H761.85ZM728.361 19.3817V15.6307H724.61V19.3817H728.361ZM728.361 38.5867H724.61V42.3377H728.361V38.5867ZM754.648 38.5867H758.399V34.8357H754.648V38.5867ZM754.648 52.9905V56.7415H758.399V52.9905H754.648ZM724.61 52.9905V74.5962H732.112V52.9905H724.61ZM728.361 78.3472H761.85V70.8452H728.361V78.3472ZM758.099 74.5962V89H765.601V74.5962H758.099ZM761.85 85.249H711.557V92.751H761.85V85.249ZM715.308 89V4.97786H707.806V89H715.308ZM711.557 8.72885H761.85V1.22687H711.557V8.72885ZM758.099 4.97786V19.3817H765.601V4.97786H758.099ZM761.85 15.6307H728.361V23.1326H761.85V15.6307ZM724.61 19.3817V38.5867H732.112V19.3817H724.61ZM728.361 42.3377H754.648V34.8357H728.361V42.3377ZM750.897 38.5867V52.9905H758.399V38.5867H750.897ZM754.648 49.2395H728.361V56.7415H754.648V49.2395ZM794.238 34.6257V30.8747H790.487V34.6257H794.238ZM794.238 89V92.751H797.989V89H794.238ZM777.434 89H773.683V92.751H777.434V89ZM777.434 4.97786V1.22687H773.683V4.97786H777.434ZM793.158 4.97786L796.279 2.89719L795.165 1.22687H793.158V4.97786ZM829.407 59.3522L826.286 61.4329L827.4 63.1032H829.407V59.3522ZM829.648 59.3522V63.1032H833.399V59.3522H829.648ZM829.648 4.97786V1.22687H825.897V4.97786H829.648ZM846.452 4.97786H850.203V1.22687H846.452V4.97786ZM846.452 89V92.751H850.203V89H846.452ZM830.728 89L827.607 91.0807L828.72 92.751H830.728V89ZM794.478 34.6257L797.599 32.545L796.486 30.8747H794.478V34.6257ZM790.487 34.6257V89H797.989V34.6257H790.487ZM794.238 85.249H777.434V92.751H794.238V85.249ZM781.185 89V4.97786H773.683V89H781.185ZM777.434 8.72885H793.158V1.22687H777.434V8.72885ZM790.037 7.05854L826.286 61.4329L832.528 57.2715L796.279 2.89719L790.037 7.05854ZM829.407 63.1032H829.648V55.6012H829.407V63.1032ZM833.399 59.3522V4.97786H825.897V59.3522H833.399ZM829.648 8.72885H846.452V1.22687H829.648V8.72885ZM842.701 4.97786V89H850.203V4.97786H842.701ZM846.452 85.249H830.728V92.751H846.452V85.249ZM833.849 86.9193L797.599 32.545L791.357 36.7064L827.607 91.0807L833.849 86.9193ZM794.478 30.8747H794.238V38.3767H794.478V30.8747ZM932.289 80.9579L934.165 84.206L936.04 83.1231V80.9579H932.289ZM918.365 89V92.751H919.37L920.241 92.2481L918.365 89ZM866.871 89H863.12V92.751H866.871V89ZM866.871 4.97786V1.22687H863.12V4.97786H866.871ZM918.365 4.97786L920.241 1.72974L919.37 1.22687H918.365V4.97786ZM932.289 13.02H936.04V10.8548L934.165 9.77187L932.289 13.02ZM883.676 19.3817V15.6307H879.925V19.3817H883.676ZM883.676 74.5962H879.925V78.3472H883.676V74.5962ZM915.484 74.5962V78.3472H919.235V74.5962H915.484ZM915.484 19.3817H919.235V15.6307H915.484V19.3817ZM930.413 77.7098L916.489 85.7519L920.241 92.2481L934.165 84.206L930.413 77.7098ZM918.365 85.249H866.871V92.751H918.365V85.249ZM870.622 89V4.97786H863.12V89H870.622ZM866.871 8.72885H918.365V1.22687H866.871V8.72885ZM916.489 8.22598L930.413 16.2681L934.165 9.77187L920.241 1.72974L916.489 8.22598ZM928.538 13.02V80.9579H936.04V13.02H928.538ZM879.925 19.3817V74.5962H887.427V19.3817H879.925ZM883.676 78.3472H915.484V70.8452H883.676V78.3472ZM919.235 74.5962V19.3817H911.733V74.5962H919.235ZM915.484 15.6307H883.676V23.1326H915.484V15.6307Z" fill="black" mask="url(#path-1-outside-1_11_10)"/>
</svg>
