<svg width="203" height="31" viewBox="0 0 203 31" fill="none" xmlns="http://www.w3.org/2000/svg">
<path d="M202.366 0.920254H197.956V30H202.366V0.920254ZM182.327 0.920254H177.355L171.924 30H176.351L177.151 24.7902H182.531L183.297 30H187.741L182.327 0.920254ZM177.662 21.4702L179.739 6.91327H179.926L182.02 21.4702H177.662ZM169.268 0.920254H163.803L160.892 12.685C160.585 13.9221 160.347 15.1139 160.177 16.2603C160.006 17.3954 159.847 18.4566 159.7 19.4441H159.564C159.405 18.4566 159.246 17.3954 159.087 16.2603C158.917 15.1139 158.678 13.9221 158.372 12.685L155.494 0.920254H150.029V30H153.979V20.3805C153.979 18.4056 153.956 16.5498 153.911 14.8132C153.854 13.0765 153.792 11.5556 153.724 10.2503C153.644 8.94499 153.576 7.95183 153.519 7.27081H153.843L158.236 26.2544H161.028L165.454 7.27081H165.778C165.71 7.95183 165.642 8.94499 165.574 10.2503C165.506 11.5556 165.449 13.0765 165.403 14.8132C165.347 16.5498 165.318 18.4056 165.318 20.3805V30H169.268V0.920254ZM137.703 0.920254H126.585V4.52968H133.293V13.0936H128.032V16.5668H133.293V30H137.703V0.920254ZM124.218 0.920254H119.434C118.765 0.920254 118.027 0.959981 117.221 1.03943C116.415 1.11889 115.615 1.30049 114.82 1.58425C114.026 1.85666 113.299 2.29365 112.641 2.89523C111.983 3.48545 111.455 4.297 111.058 5.32989C110.649 6.35142 110.445 7.65105 110.445 9.22875V9.96085C110.445 14.3194 111.756 17.123 114.378 18.3715L109.593 30H114.292L118.294 19.1206H119.809V30H124.218V0.920254ZM119.23 15.9368C117.618 15.9368 116.511 15.5623 115.91 14.8132C115.297 14.064 114.991 12.7133 114.991 10.7611V8.4626C114.991 6.96435 115.28 5.86336 115.859 5.15963C116.426 4.45591 117.55 4.10404 119.23 4.10404H119.809V15.9368H119.23ZM99.5653 30.2554C100.269 30.2554 101.041 30.1532 101.881 29.9489C102.709 29.7446 103.498 29.319 104.247 28.672C104.997 28.025 105.609 27.0546 106.086 25.7606C106.563 24.4553 106.801 22.713 106.801 20.5338V10.2333C106.801 8.4853 106.642 7.03245 106.325 5.87471C105.995 4.70562 105.57 3.77488 105.048 3.08251C104.514 2.37878 103.93 1.85666 103.294 1.51615C102.647 1.16429 102 0.93728 101.353 0.835126C100.706 0.721622 100.11 0.66487 99.5653 0.66487C99.0432 0.66487 98.4643 0.715947 97.8287 0.818101C97.1818 0.920254 96.5405 1.14159 95.9048 1.4821C95.2692 1.81126 94.6903 2.32203 94.1682 3.0144C93.6347 3.70678 93.2091 4.63751 92.8913 5.8066C92.5621 6.9757 92.3976 8.45125 92.3976 10.2333V20.5338C92.3976 22.6903 92.6473 24.4156 93.1467 25.7095C93.6461 27.0035 94.276 27.9796 95.0365 28.638C95.797 29.2849 96.5859 29.7162 97.4031 29.9319C98.209 30.1476 98.9297 30.2554 99.5653 30.2554ZM99.5653 26.7992C98.6914 26.7992 98.0444 26.47 97.6244 25.8117C97.2045 25.1534 96.9945 23.9219 96.9945 22.1171V9.00742C96.9945 7.14595 97.2045 5.86903 97.6244 5.17666C98.0444 4.47293 98.6914 4.12107 99.5653 4.12107C100.462 4.12107 101.126 4.47293 101.557 5.17666C101.977 5.86903 102.187 7.14595 102.187 9.00742V22.1171C102.187 23.9219 101.977 25.1534 101.557 25.8117C101.126 26.47 100.462 26.7992 99.5653 26.7992ZM88.056 0.920254H84.5658L77.4661 20.04H77.3639C77.4093 19.4384 77.4718 18.7688 77.5512 18.031C77.6193 17.2819 77.6818 16.3852 77.7385 15.3409C77.7953 14.2967 77.8236 13.0255 77.8236 11.5272V0.920254H73.9077V30H77.432L84.4977 11.391H84.6339C84.5771 12.072 84.5147 12.8155 84.4466 13.6214C84.3785 14.4272 84.3161 15.4431 84.2593 16.6689C84.2026 17.8948 84.1742 19.4895 84.1742 21.4531V30H88.056V0.920254ZM66.8421 4.39348H71.5242V0.920254H57.7675V4.39348H62.4325V30H66.8421V4.39348ZM47.4329 0.920254H36.3152V4.39348H43.0233V13.0936H37.7624V16.5668H43.0233V26.5268H36.3152V30H47.4329V0.920254ZM33.6762 0.920254H30.186L23.0863 20.04H22.9841C23.0295 19.4384 23.092 18.7688 23.1714 18.031C23.2395 17.2819 23.3019 16.3852 23.3587 15.3409C23.4154 14.2967 23.4438 13.0255 23.4438 11.5272V0.920254H19.5279V30H23.0522L30.1179 11.391H30.2541C30.1973 12.072 30.1349 12.8155 30.0668 13.6214C29.9987 14.4272 29.9363 15.4431 29.8795 16.6689C29.8228 17.8948 29.7944 19.4895 29.7944 21.4531V30H33.6762V0.920254ZM10.1298 30H14.7097V0.920254H10.1298C9.30121 0.920254 8.44993 0.959981 7.57595 1.03943C6.70197 1.11889 5.86204 1.32319 5.05616 1.65236C4.23893 1.98152 3.50683 2.51499 2.85985 3.25276C2.21288 3.97919 1.70211 4.98938 1.32755 6.28332C0.941634 7.56592 0.748677 9.2174 0.748677 11.2378V19.6825C0.748677 21.7029 0.941634 23.36 1.32755 24.654C1.70211 25.9479 2.21288 26.9638 2.85985 27.7015C3.50683 28.428 4.23893 28.9558 5.05616 29.2849C5.86204 29.6027 6.70197 29.8014 7.57595 29.8808C8.44993 29.9603 9.30121 30 10.1298 30ZM10.3 4.2743V26.646H9.34661C8.27967 26.646 7.46244 26.453 6.89492 26.0671C6.31605 25.6812 5.91879 24.9888 5.70313 23.99C5.47612 22.9911 5.36262 21.5837 5.36262 19.7676V11.1526C5.36262 9.32523 5.47612 7.91778 5.70313 6.9303C5.91879 5.93146 6.31605 5.23908 6.89492 4.85317C7.46244 4.46726 8.27967 4.2743 9.34661 4.2743H10.3Z" fill="white"/>
</svg>
