<svg width="26" height="92" viewBox="0 0 26 92" fill="none" xmlns="http://www.w3.org/2000/svg">
<mask id="path-1-outside-1_11_12" maskUnits="userSpaceOnUse" x="0" y="0" width="26" height="92" fill="black">
<rect fill="white" width="26" height="92"/>
<path d="M4.62357 88V3.97786H21.428V88H4.62357Z"/>
</mask>
<path d="M4.62357 88H0.872586V91.751H4.62357V88ZM4.62357 3.97786V0.226875H0.872586V3.97786H4.62357ZM21.428 3.97786H25.179V0.226875H21.428V3.97786ZM21.428 88V91.751H25.179V88H21.428ZM8.37456 88V3.97786H0.872586V88H8.37456ZM4.62357 7.72885H21.428V0.226875H4.62357V7.72885ZM17.677 3.97786V88H25.179V3.97786H17.677ZM21.428 84.249H4.62357V91.751H21.428V84.249Z" fill="black" mask="url(#path-1-outside-1_11_12)"/>
</svg>
