<svg width="726" height="586" viewBox="0 0 726 586" fill="none" xmlns="http://www.w3.org/2000/svg">
<path fill-rule="evenodd" clip-rule="evenodd" d="M369.677 23.6942C437.6 15.9987 506.353 -16.3072 569.289 10.3752C638.474 39.7072 697.846 99.5166 718.762 171.693C739.442 243.059 711.464 318.972 677.929 385.276C648.177 444.099 596.961 485.955 541.665 521.84C489.118 555.939 432.311 586.289 369.677 585.312C307.612 584.345 256.051 546.228 201.541 516.536C137.484 481.643 57.5138 462.315 24.4807 397.279C-10.08 329.235 -7.12844 241.941 27.5351 173.95C60.356 109.572 134.265 81.2216 200.427 52.1658C254.121 28.5852 311.405 30.2962 369.677 23.6942Z" fill="#FFB11B"/>
</svg>
