<svg width="612" height="592" viewBox="0 0 612 592" fill="none" xmlns="http://www.w3.org/2000/svg">
<path fill-rule="evenodd" clip-rule="evenodd" d="M598.11 235.1C617.95 295.902 617.403 364.955 588.562 422.021C561.014 476.529 501.091 502.243 447.926 532.265C398.309 560.285 348.276 586.117 291.415 589.821C228.704 593.907 163.055 589.402 110.96 554.219C56.3461 517.334 12.938 459.781 2.49411 394.695C-7.52822 332.236 28.353 274.188 56.9768 217.796C82.6327 167.25 114.937 122.755 158.762 86.8246C207.627 46.7638 259.046 -1.3772 322.206 0.35129C385.765 2.0907 433.63 54.4554 482.073 95.6726C529.276 135.835 578.881 176.169 598.11 235.1Z" fill="#FFB11B"/>
</svg>
