<svg width="627" height="591" viewBox="0 0 627 591" fill="none" xmlns="http://www.w3.org/2000/svg">
<path fill-rule="evenodd" clip-rule="evenodd" d="M269.213 3.16505C326.856 11.5216 363.432 66.3667 414.36 95.5767C475.942 130.898 562.085 129.242 598.202 191.86C635.657 256.795 637.732 350.077 597.609 413.277C558.413 475.017 468.188 462.207 404.926 496.3C355.45 522.964 324.676 584.256 269.213 590.255C211.784 596.466 158.258 562.805 111.236 528.066C63.8401 493.049 13.7561 451.778 1.84391 392.723C-9.71324 335.427 36.2546 285.671 50.9421 229.151C66.82 168.051 48.0439 93.45 91.2346 48.7327C135.556 2.84457 207.175 -5.82872 269.213 3.16505Z" fill="#FFB11B"/>
</svg>
