<svg width="571" height="619" viewBox="0 0 571 619" fill="none" xmlns="http://www.w3.org/2000/svg">
<path fill-rule="evenodd" clip-rule="evenodd" d="M303.333 0.403018C367.207 -3.02933 433.774 15.3997 481.439 58.0924C526.966 98.8709 536.295 163.505 551.536 222.719C565.761 277.982 577.765 333.079 566.625 389.046C554.339 450.771 532.994 513.111 485.52 554.388C435.75 597.66 368.914 624.734 303.333 617.967C240.4 611.472 193.61 561.714 146.541 519.406C104.352 481.485 69.7288 438.7 46.3629 386.99C20.3106 329.335 -12.8864 267.114 5.13277 206.461C23.2657 145.425 86.2431 112.695 138.601 76.5152C189.619 41.2617 241.425 3.72972 303.333 0.403018Z" fill="#FFB11B"/>
</svg>
