<svg width="585" height="569" viewBox="0 0 585 569" fill="none" xmlns="http://www.w3.org/2000/svg">
<path fill-rule="evenodd" clip-rule="evenodd" d="M258.909 3.04723C314.345 11.0927 349.521 63.8962 398.499 92.0189C457.724 126.025 540.569 124.431 575.305 184.718C611.326 247.236 613.321 337.046 574.734 397.893C537.038 457.335 450.267 445.002 389.427 477.825C341.844 503.496 312.248 562.507 258.909 568.283C203.677 574.263 152.2 541.854 106.979 508.408C61.3965 474.695 13.2296 434.961 1.77333 378.103C-9.34144 322.941 34.8669 275.037 48.9922 220.621C64.2623 161.795 46.2049 89.9713 87.7424 46.9187C130.368 2.73868 199.245 -5.61175 258.909 3.04723Z" fill="#FFB11B"/>
</svg>
