<svg width="472" height="670" viewBox="0 0 472 670" fill="none" xmlns="http://www.w3.org/2000/svg">
<path d="M349.576 311.854L396.541 331.494C394.108 332.161 391.712 332.918 389.296 333.621L382.142 335.927C377.365 337.458 372.626 339.134 367.904 340.81C363.183 342.522 358.461 344.233 353.793 346.089C349.197 347.891 344.584 349.729 340.061 351.729C337.538 335.548 333.753 318.269 328.797 314.251L349.576 311.854ZM396.541 331.494V364.864C387.855 368.9 368.39 375.279 343.827 382.594C343.827 382.594 342.547 367.711 340.061 351.765C344.836 350.432 349.576 348.936 354.262 347.387C359.037 345.855 363.778 344.179 368.499 342.504C373.221 340.792 377.943 339.08 382.61 337.224L389.602 334.449C391.91 333.458 394.252 332.54 396.541 331.494ZM59.5136 349.134C61.2974 348.594 63.0459 347.999 64.7759 347.297L62.3788 356.81C60.0474 354.513 57.5736 352.364 54.9721 350.378C56.4856 349.999 58.0177 349.603 59.5136 349.134Z" fill="white"/>
<path d="M219.025 385.567C193.956 381.531 125.383 359.225 113.038 349.837C103.955 342.918 93.5563 331.585 92.2046 304.557C90.2229 316.864 88.1867 329.17 86.0958 341.477L86.0237 341.909C87.5572 341.044 89.2083 340.407 90.9253 340.017C92.8547 339.525 94.854 339.367 96.8369 339.549C95.1465 340.6 93.2866 341.35 91.3397 341.765C89.5858 342.206 87.7746 342.376 85.9692 342.27L81.0492 370.828C85.5371 373.874 89.9881 376.937 94.3852 380.09L101.306 385.027L108.173 390.054C112.75 393.405 117.346 396.721 121.851 400.18C126.357 403.622 130.916 406.973 135.385 410.487L135.404 410.505C135.503 410.596 135.572 410.715 135.602 410.847C139.062 409.856 142.559 408.937 146.036 407.982L157.156 405.135C164.581 403.261 172.024 401.532 179.449 399.73C186.928 398.054 194.372 396.306 201.85 394.721C209.329 393.117 216.808 391.55 224.342 390.18C216.989 392.27 209.563 394.18 202.157 396.054C194.75 397.946 187.289 399.658 179.863 401.478C172.402 403.135 164.959 404.883 157.48 406.487L146.253 408.847C142.702 409.532 139.17 410.252 135.62 410.901C135.62 410.919 135.656 410.937 135.656 410.955C136.305 418.217 136.917 425.478 137.35 432.757C136.214 425.658 135.259 418.541 134.34 411.406C129.78 408.18 125.329 404.829 120.824 401.55C116.228 398.234 111.722 394.775 107.199 391.369L100.405 386.234L93.7005 381.009C89.4291 377.712 85.2122 374.324 81.0315 370.901L79.5893 379.297C79.553 379.5 79.4378 379.68 79.2689 379.798C79.1001 379.917 78.8912 379.963 78.6882 379.928C78.6442 379.924 78.6015 379.912 78.5623 379.892L59.0268 373.099C58.8299 373.024 58.6667 372.881 58.5672 372.696C58.4677 372.51 58.4387 372.295 58.4857 372.09L62.3065 357.063C58.9689 355.238 55.7651 353.179 52.7192 350.9C50.3221 352.63 47.9611 354.378 45.5464 356.09C42.9152 357.909 40.3194 359.783 37.6522 361.585C40.1038 359.513 42.5906 357.495 45.0774 355.459C47.3847 353.567 49.7272 351.729 52.0697 349.873C52.0874 349.74 52.1304 349.612 52.1964 349.495C50.8087 344.161 49.5829 338.792 48.3034 333.423C46.9518 327.873 45.7083 322.287 44.501 316.702C43.2392 311.116 42.0318 305.53 40.9143 299.909C39.743 294.305 38.6615 288.701 37.6522 283.062C39.2027 288.575 40.6802 294.107 42.0494 299.656C43.4917 305.188 44.8248 310.756 46.1228 316.323C47.456 321.891 48.754 327.459 49.9437 333.044C51.1149 338.342 52.3047 343.639 53.3853 348.954C55.3142 348.504 57.2422 348.09 59.1887 347.747C61.063 347.423 62.9374 347.171 64.8478 347.008L66.9563 338.738L75.5343 305.386L75.5527 305.332V305.314C76.6296 302.399 77.4789 299.405 78.0932 296.359C78.7973 293.395 78.7789 290.305 78.0396 287.35C77.5873 285.946 76.7658 284.689 75.661 283.71C75.0803 283.223 74.4661 282.778 73.8228 282.377L72.8134 281.71L72.2908 281.278C72.2187 281.26 72.1649 281.206 71.9661 281.134C68.9421 280.445 65.869 279.993 62.7747 279.782C50.2315 278.647 37.6347 277.981 25.0554 277.296C31.3446 277.386 37.6523 277.566 43.96 277.8C50.2676 278.035 56.5577 278.287 62.8654 278.773C64.4335 278.899 66.0192 279.044 67.5873 279.224C69.2075 279.349 70.8123 279.627 72.3805 280.053C72.6414 280.135 72.8856 280.264 73.1021 280.431L73.4981 280.755L74.4713 281.368C75.1727 281.785 75.8414 282.255 76.4715 282.773C77.7639 283.877 78.735 285.309 79.283 286.918C80.1455 290.081 80.2381 293.405 79.5532 296.611C78.9692 299.739 78.1253 302.813 77.0303 305.801L68.6318 339.153L60.3063 371.766L78.22 378.108L85.0865 341.297C87.4114 329.008 89.7841 316.726 92.2046 304.449C91.8046 292.623 92.6383 280.787 94.6923 269.134L61.6941 265.674C58.3693 265.369 55.221 264.041 52.6831 261.872C49.9823 261.478 47.305 260.936 44.663 260.251C43.9784 260.088 43.2938 259.908 42.6083 259.692C42.266 259.584 41.9236 259.476 41.5637 259.35C41.5234 259.332 41.4808 259.32 41.437 259.314H41.3833C41.2612 259.327 41.1405 259.351 41.0226 259.386C39.7504 259.784 38.5193 260.303 37.3461 260.935C34.8593 262.142 32.4085 263.476 29.9217 264.737C27.4525 266.052 24.9287 267.296 22.3698 268.485C26.7645 264.941 31.5182 261.867 36.5532 259.314C37.8676 258.647 39.244 258.11 40.6627 257.71C40.8941 257.664 41.1291 257.64 41.3649 257.638C41.649 257.654 41.9288 257.715 42.194 257.818C42.4826 257.962 42.8073 258.07 43.1135 258.196L45.0776 258.917C47.5829 259.8 50.0882 260.737 52.575 261.764C49.9615 259.277 48.0872 255.259 49.1871 248.701L50.8626 204.214L44.1044 202.826C44.1044 202.826 39.1308 203.943 48.9522 175.583L64.6492 130.447C64.6492 130.447 2.99629 138.051 0.7621 140.285C-1.47303 142.519 13.7197 293.08 34.7336 365.009C34.7336 365.009 130.357 433.37 136.16 435.604C138.99 436.667 191.992 423.964 249.896 408.703C249.896 408.703 244.075 389.603 219.025 385.567ZM16.9271 174.087C15.4672 165.222 14.0619 156.357 12.8361 147.456C14.7827 156.231 16.5487 165.042 18.2787 173.853C20.0097 182.664 21.5954 191.511 23.2532 200.34C24.7668 209.187 26.371 218.034 27.8124 226.899L29.9569 240.196C30.6063 244.647 31.3085 249.079 31.9034 253.53C30.9125 249.151 30.0291 244.755 29.0743 240.358L26.4431 227.133C24.713 218.322 23.1449 209.475 21.4871 200.646C19.9727 191.799 18.3694 182.97 16.9271 174.087ZM183.54 69.6892C180.26 69.6892 176.079 71.473 171.916 72.3739C167.752 73.2749 158.22 71.473 157.318 68.8063C156.417 66.1216 150.794 43.9952 149.875 45.0402C148.974 46.0852 147.19 47.9412 147.19 47.9412C147.19 47.9412 146.884 74.8965 147.478 77.7974C148.091 80.7164 159.102 95.3112 175.484 93.8157C191.866 92.3202 194.263 72.9686 194.263 72.9686C194.263 72.9686 186.802 69.6892 183.54 69.6892ZM186.243 77.6893C185.04 78.4302 183.633 78.7709 182.224 78.6623C180.856 78.5578 179.53 78.1385 178.35 77.4371C177.202 76.7724 176.222 75.8541 175.484 74.7523C177.623 75.8598 179.942 76.5797 182.333 76.8785C183.451 76.9624 184.575 76.8089 185.631 76.4281C186.774 75.9848 187.867 75.4232 188.893 74.7523C188.319 75.9713 187.397 76.9932 186.243 77.6893Z" fill="white"/>
<path d="M147.188 47.9492C147.188 47.9492 162.083 33.9504 160.892 16.6753C160.892 16.6753 164.765 13.1012 171.021 19.0581C171.021 19.0581 176.383 20.5473 182.639 13.9947C188.895 7.4421 192.172 16.9731 192.172 16.9731C192.172 16.9731 195.449 27.0999 196.343 24.4193C197.236 21.7387 198.726 8.93129 185.32 4.76145C174.895 1.65671 163.998 0.446167 153.146 1.18731C149.571 1.78299 142.124 7.7399 142.124 16.0796C142.124 24.4193 138.549 34.8438 138.847 38.1202C139.145 41.3966 147.188 47.9492 147.188 47.9492ZM160.594 44.375C163.483 43.2712 166.585 42.8367 169.666 43.104C171.216 43.2372 172.743 43.57 174.208 44.0942C175.664 44.6299 177.008 45.4321 178.17 46.4599C176.796 45.8653 175.376 45.3838 173.924 45.0201C172.487 44.6908 171.029 44.4635 169.561 44.3399C166.575 44.1359 163.578 44.1477 160.594 44.375ZM185.916 45.0418C187.11 43.7331 188.581 42.7069 190.222 42.0376C191.85 41.2677 193.683 41.0429 195.449 41.3965C193.837 41.9101 192.253 42.5057 190.702 43.1812C189.149 43.8192 187.619 44.5131 185.916 45.0418ZM171.914 50.7042C172.397 50.6876 172.854 50.4841 173.19 50.1369C173.525 49.7896 173.713 49.3256 173.713 48.8427C173.713 48.3598 173.525 47.8958 173.19 47.5485C172.854 47.2012 172.397 46.9978 171.914 46.9812C171.432 46.9978 170.974 47.2012 170.639 47.5485C170.303 47.8958 170.115 48.3598 170.115 48.8427C170.115 49.3256 170.303 49.7896 170.639 50.1369C170.974 50.4841 171.432 50.6876 171.914 50.7042ZM190.98 49.5128C191.463 49.4962 191.92 49.2928 192.256 48.9455C192.591 48.5982 192.779 48.1342 192.779 47.6513C192.779 47.1684 192.591 46.7044 192.256 46.3571C191.92 46.0098 191.463 45.8064 190.98 45.7898C190.498 45.8064 190.04 46.0098 189.705 46.3571C189.369 46.7044 189.181 47.1684 189.181 47.6513C189.181 48.1342 189.369 48.5982 189.705 48.9455C190.04 49.2928 190.498 49.4962 190.98 49.5128Z" fill="white"/>
<path d="M138.847 38.1202C138.196 38.3907 137.614 38.8041 137.144 39.3299C136.674 39.8557 136.328 40.4803 136.132 41.1577C135.756 42.496 135.759 43.9122 136.139 45.2492C137.006 47.9842 138.029 50.6675 139.202 53.2861C140.249 56.024 141.076 58.8414 141.673 61.7113C141.915 63.0585 142.581 64.2931 143.575 65.2342C144.107 65.6962 144.73 66.0403 145.404 66.2439C146.078 66.4475 146.788 66.506 147.486 66.4155C146.763 66.6266 146.002 66.6726 145.259 66.55C144.515 66.4275 143.809 66.1395 143.192 65.7074C141.977 64.7375 141.113 63.3953 140.735 61.8873C140.007 59.1124 139.107 56.3855 138.041 53.7224C137.545 52.369 137.038 51.0179 136.497 49.6786C135.902 48.3167 135.469 46.8899 135.206 45.4272C134.905 43.9294 135.029 42.3773 135.565 40.9465C135.85 40.25 136.297 39.6308 136.867 39.1396C137.437 38.6484 138.116 38.2991 138.847 38.1202ZM187.406 58.3737C188.117 60.2581 188.095 62.3407 187.345 64.2096C186.931 65.21 186.163 66.0223 185.186 66.4903C184.227 66.8739 183.159 66.8831 182.193 66.516C183.088 66.4015 183.951 66.1027 184.725 65.6386C185.387 65.1432 185.901 64.4756 186.21 63.7087C186.831 61.9876 187.233 60.1952 187.406 58.3737ZM196.343 24.4192C196.09 28.509 196.082 32.6103 196.319 36.7012C196.442 38.7298 196.676 40.7502 197.019 42.7535C197.381 44.7189 197.953 46.7323 198.299 48.7854C198.998 52.9087 198.953 57.1241 198.165 61.2315C197.309 65.2782 195.998 69.2154 194.258 72.9681C195.54 69.0809 196.531 65.1039 197.224 61.0698C197.849 57.0629 197.799 52.9796 197.075 48.9893C196.777 46.9827 196.255 45.0249 195.908 42.9438C195.569 40.8933 195.389 38.8198 195.369 36.7417C195.291 32.6123 195.617 28.485 196.343 24.4192ZM147.486 77.7999C147.24 80.1829 146.351 82.4544 144.916 84.3729C144.185 85.3476 143.288 86.1864 142.267 86.8512C141.233 87.4908 140.045 87.8395 138.83 87.8604C139.861 87.3932 140.826 86.7903 141.698 86.0675C142.519 85.329 143.265 84.5114 143.925 83.6267C144.598 82.7276 145.218 81.7899 145.781 80.8183C146.347 79.8347 146.931 78.8416 147.486 77.7999Z" fill="white"/>
<path d="M146.319 80.9828C137.265 82.8211 128.406 85.5108 119.859 89.0159C115.428 90.6242 110.795 91.6088 106.093 91.9414C101.523 92.2079 96.9728 92.7307 92.4623 93.5074C91.4447 93.7291 90.4683 94.109 89.5685 94.6333C88.5345 95.2738 87.4444 95.819 86.3117 96.2621C84.2511 97.0271 82.3528 98.1727 80.7158 99.6392C77.5911 102.89 75.0225 106.632 73.1128 110.716C72.03 112.73 71.1659 114.865 70.2146 116.956C69.3545 119.09 68.49 121.226 67.683 123.386C66.9218 125.563 66.1144 127.727 65.3893 129.919L63.3214 136.535L63.3165 136.551L63.3077 136.576C58.9989 147.354 55.0835 158.282 51.5614 169.36C49.8169 174.893 48.1686 180.459 46.7611 186.068C46.0668 188.873 45.4121 191.688 44.922 194.506C44.6727 195.897 44.5014 197.301 44.4089 198.711C44.3686 199.379 44.3792 200.049 44.4406 200.715C44.455 201.182 44.5953 201.636 44.8467 202.03L44.3346 201.767C54.5709 203.779 64.8147 205.785 75.0721 207.678L90.4462 210.545L98.1397 211.845C100.637 212.278 103.154 212.587 105.682 212.768L106.43 212.776C106.432 212.735 106.412 212.78 106.457 212.752C106.508 212.701 106.565 212.656 106.627 212.618C106.969 212.222 107.254 211.78 107.474 211.305C107.998 210.187 108.431 209.03 108.77 207.843C109.461 205.372 110.015 202.865 110.428 200.333C111.296 195.239 111.758 190.063 112.117 184.884C112.443 179.7 112.549 174.503 112.435 169.295C112.359 164.091 112.05 158.886 111.467 153.702C111.463 153.67 111.473 153.638 111.493 153.613C111.512 153.588 111.541 153.571 111.573 153.567C111.604 153.562 111.637 153.57 111.663 153.589C111.689 153.607 111.707 153.635 111.712 153.667C112.585 158.819 113.188 164.023 113.556 169.247C113.876 174.474 113.971 179.712 113.84 184.961C113.712 190.216 113.28 195.46 112.549 200.666C112.183 203.295 111.671 205.902 111.014 208.474C110.667 209.806 110.212 211.108 109.653 212.365C109.337 213.082 108.915 213.746 108.401 214.337C108.217 214.507 108.018 214.672 107.817 214.827C107.548 214.99 107.258 215.117 106.956 215.204C106.533 215.246 106.154 215.244 105.749 215.257C103.07 215.099 100.4 214.794 97.7539 214.344L90.0013 213.075C84.8517 212.164 79.7056 211.252 74.5802 210.241C64.3333 208.196 54.1043 206.08 43.8932 203.89L43.8079 203.872C43.6436 203.837 43.4944 203.751 43.3807 203.628C42.7232 202.879 42.3518 201.922 42.3321 200.926C42.276 200.145 42.2802 199.36 42.3445 198.579C42.4753 197.093 42.6895 195.615 42.986 194.152C43.5528 191.258 44.2862 188.426 45.0989 185.622C46.7194 180.014 48.5695 174.495 50.476 169C52.415 163.516 54.3663 158.04 56.3745 152.586L62.4561 136.242L62.4424 136.283C64.7634 127.273 67.7787 118.456 71.4613 109.912C73.3105 105.517 75.9561 101.501 79.2649 98.0679C81.067 96.4151 83.1603 95.1111 85.4384 94.2221C86.4581 93.8114 87.446 93.3261 88.3942 92.77C89.5005 92.1325 90.7013 91.6756 91.9515 91.4163C96.5732 90.6747 101.234 90.2007 105.91 89.9968C108.198 89.7958 110.475 89.5519 112.713 89.1419C114.954 88.7969 117.16 88.2503 119.303 87.5089C128.005 84.2216 137.057 81.9494 146.279 80.7376C146.312 80.7329 146.345 80.7414 146.371 80.7612C146.398 80.781 146.415 80.8103 146.42 80.8429C146.423 80.8746 146.415 80.9064 146.396 80.9323C146.377 80.9581 146.35 80.9761 146.319 80.9828Z" fill="white"/>
<path d="M175.544 106.804C175.341 107.887 175.289 108.994 175.391 110.092C175.457 111.204 175.529 112.313 175.635 113.423L176.315 120.071C176.804 124.502 177.386 128.922 177.927 133.347L178.789 139.978C179.333 142.31 178.976 144.762 177.791 146.843C177.401 147.337 176.917 147.75 176.367 148.057C175.817 148.364 175.212 148.56 174.586 148.633C173.961 148.706 173.327 148.654 172.721 148.482C172.115 148.309 171.549 148.019 171.056 147.628C170.561 147.241 170.151 146.757 169.851 146.206C169.551 145.654 169.367 145.047 169.311 144.422L168.952 141.099C168.453 136.67 167.923 132.243 167.247 127.84C166.925 125.641 166.486 123.461 165.933 121.309C165.797 120.785 165.611 120.275 165.376 119.787C165.329 119.679 165.258 119.582 165.168 119.506C165.078 119.43 164.971 119.375 164.856 119.347L164.091 119.016C163.068 118.575 162.033 118.16 160.994 117.758C156.84 116.14 152.656 114.593 148.433 113.174C146.339 112.512 144.165 111.565 142.152 112.228C141.217 112.677 140.441 113.4 139.926 114.3C139.411 115.201 139.182 116.236 139.268 117.27C139.266 117.387 139.218 117.498 139.134 117.58C139.05 117.661 138.937 117.706 138.82 117.704C138.743 117.702 138.668 117.681 138.603 117.642C138.537 117.603 138.482 117.547 138.443 117.481C137.273 115.447 135.957 113.501 134.506 111.657C133.102 109.808 131.46 108.153 129.621 106.734C128.722 106.058 127.718 105.535 126.648 105.185C125.474 104.814 124.345 104.314 123.282 103.693C121.114 102.454 119.282 100.704 117.944 98.5953C117.926 98.5662 117.912 98.5348 117.902 98.502L117.891 98.4634C117.556 97.2233 117.718 95.9018 118.342 94.7791C118.917 93.7426 119.671 92.8158 120.569 92.0414C122.292 90.5677 124.191 89.313 126.223 88.3058C130.206 86.2864 134.376 84.6593 138.674 83.4476C138.783 83.4161 138.899 83.4184 139.007 83.4542C139.115 83.49 139.209 83.5577 139.278 83.6482C139.347 83.7388 139.386 83.848 139.392 83.9615C139.397 84.075 139.368 84.1875 139.308 84.284L139.292 84.3104C138.603 85.4711 138.158 86.7594 137.981 88.0972C137.88 88.7781 137.825 89.4651 137.816 90.1535C137.875 90.8411 137.87 91.5381 137.992 92.2215C138.456 94.9958 139.495 97.6426 141.042 99.992C141.799 101.188 142.617 102.343 143.495 103.454C144.454 104.499 145.353 105.602 146.354 106.613C147.388 107.589 148.37 108.628 149.451 109.559L152.737 112.309C152.744 112.314 152.749 112.32 152.754 112.327C152.758 112.334 152.761 112.341 152.762 112.349C152.763 112.357 152.763 112.366 152.761 112.374C152.759 112.381 152.755 112.389 152.751 112.395C152.74 112.408 152.725 112.417 152.709 112.419C152.693 112.421 152.677 112.417 152.663 112.408L149.25 109.796C148.125 108.908 147.092 107.908 146.005 106.967C144.942 106 144.012 104.893 143.014 103.855C142.091 102.744 141.228 101.584 140.429 100.381C138.765 97.9725 137.624 95.243 137.078 92.3675C136.933 91.6474 136.917 90.9035 136.84 90.1704C136.831 89.4291 136.873 88.688 136.966 87.9524C137.129 86.4418 137.606 84.982 138.368 83.667L138.985 84.5296C134.799 85.8236 130.727 87.4643 126.814 89.4347C124.883 90.3995 123.079 91.5985 121.442 93.0046C120.628 93.563 119.983 94.334 119.577 95.2336C119.171 96.1333 119.02 97.127 119.14 98.1067L119.086 97.9755C120.297 99.8922 121.949 101.491 123.905 102.637C124.885 103.223 125.928 103.698 127.013 104.054C128.198 104.454 129.309 105.045 130.303 105.805C132.217 107.297 133.909 109.054 135.326 111.024C136.768 112.941 138.067 114.959 139.216 117.064L138.391 117.276C138.422 116.089 138.716 114.924 139.253 113.865C139.519 113.317 139.892 112.828 140.351 112.427C140.81 112.027 141.346 111.724 141.926 111.536C144.335 110.84 146.57 111.932 148.631 112.598C152.845 114.087 157.008 115.702 161.142 117.387L164.242 118.655L165.016 118.98C165.17 119.027 165.313 119.105 165.436 119.209C165.559 119.313 165.66 119.441 165.733 119.585C165.991 120.098 166.196 120.635 166.346 121.19C166.966 123.355 167.353 125.556 167.767 127.752C168.576 132.147 169.237 136.563 169.861 140.984L170.316 144.302C170.364 144.791 170.511 145.265 170.749 145.694C170.987 146.124 171.311 146.5 171.7 146.8C172.471 147.405 173.451 147.68 174.425 147.565C175.399 147.45 176.288 146.954 176.897 146.186C177.437 145.316 177.766 144.333 177.859 143.314C177.971 142.246 177.932 141.169 177.746 140.112L176.957 133.464C176.432 129.031 176.013 124.586 175.636 120.137C175.445 117.913 175.288 115.684 175.201 113.451C175.147 112.335 175.127 111.217 175.112 110.099C175.057 108.971 175.166 107.841 175.435 106.744C175.44 106.729 175.451 106.717 175.465 106.709C175.479 106.702 175.496 106.7 175.511 106.705C175.526 106.71 175.539 106.72 175.546 106.735C175.554 106.749 175.556 106.765 175.551 106.78L175.544 106.804Z" fill="white"/>
<path d="M181.128 92.4281C182.002 93.6633 182.772 94.9681 183.432 96.3294C183.762 97.0139 184.001 97.743 184.29 98.4529C184.527 99.1889 184.702 99.9436 184.813 100.709C185.088 102.277 184.959 103.89 184.437 105.395C183.85 106.936 182.736 108.219 181.291 109.015C181.235 109.045 181.174 109.064 181.11 109.071C181.046 109.077 180.982 109.071 180.921 109.053C180.86 109.034 180.803 109.004 180.754 108.964C180.704 108.923 180.663 108.873 180.633 108.817C180.603 108.763 180.585 108.703 180.578 108.642L180.576 108.625C180.375 106.462 179.915 104.332 179.205 102.28C178.849 101.267 178.288 100.338 177.557 99.5517C177.2 99.1954 176.74 98.96 176.243 98.8784C175.999 98.9088 175.764 98.9877 175.551 99.1104C175.339 99.233 175.153 99.397 175.004 99.5927C173.77 101.372 172.877 103.365 172.372 105.471C171.743 107.556 171.217 109.69 170.758 111.81L170.767 111.607L171.328 115.476C171.352 115.642 171.311 115.812 171.213 115.948C171.114 116.084 170.967 116.177 170.802 116.207C170.636 116.236 170.466 116.2 170.326 116.107C170.187 116.013 170.089 115.869 170.054 115.705L170.051 115.69C169.708 113.869 169.51 112.025 169.458 110.173C169.359 108.337 169.405 106.504 169.489 104.678C169.644 101.03 170.023 97.3954 170.624 93.7939C170.627 93.7776 170.636 93.7631 170.649 93.7535C170.663 93.7438 170.679 93.7399 170.696 93.7425C170.711 93.7453 170.724 93.7534 170.734 93.7652C170.743 93.777 170.748 93.7918 170.748 93.807C170.628 97.4463 170.569 101.077 170.57 104.699C170.522 108.29 170.773 111.88 171.321 115.43L170.043 115.644L169.593 111.761L169.59 111.741C169.583 111.679 169.587 111.617 169.601 111.557C170.118 109.397 170.762 107.27 171.53 105.187C172.235 103.055 173.299 101.059 174.677 99.2864C174.869 99.0501 175.109 98.8558 175.379 98.7154C175.65 98.575 175.947 98.4914 176.251 98.4699C176.844 98.566 177.391 98.848 177.814 99.2751C178.615 100.077 179.241 101.036 179.653 102.093C180.543 104.144 181.188 106.294 181.574 108.497L180.859 108.106C182.022 107.372 182.917 106.283 183.41 104.999C183.913 103.67 184.068 102.234 183.861 100.828C183.824 100.109 183.599 99.4056 183.49 98.6846C183.265 97.9883 183.092 97.2703 182.823 96.5824C182.526 95.9062 182.296 95.1964 181.982 94.5211L181.022 92.4926C181.018 92.4854 181.016 92.4776 181.015 92.4694C181.014 92.4613 181.015 92.453 181.017 92.4452C181.02 92.4374 181.024 92.4301 181.029 92.4238C181.034 92.4175 181.04 92.4123 181.048 92.4084C181.061 92.4018 181.077 92.4002 181.091 92.4038C181.106 92.4074 181.119 92.416 181.128 92.4281ZM172.138 122.038C172.621 122.022 173.078 121.818 173.414 121.471C173.749 121.124 173.937 120.66 173.937 120.177C173.937 119.694 173.749 119.23 173.414 118.883C173.078 118.535 172.621 118.332 172.138 118.315C171.655 118.332 171.198 118.535 170.863 118.883C170.527 119.23 170.34 119.694 170.34 120.177C170.34 120.66 170.527 121.124 170.863 121.471C171.198 121.818 171.655 122.022 172.138 122.038ZM173.479 132.314C173.961 132.297 174.419 132.094 174.754 131.747C175.09 131.399 175.277 130.935 175.277 130.452C175.277 129.97 175.09 129.506 174.754 129.158C174.419 128.811 173.961 128.608 173.479 128.591C172.996 128.608 172.539 128.811 172.203 129.158C171.868 129.506 171.68 129.97 171.68 130.452C171.68 130.935 171.868 131.399 172.203 131.747C172.539 132.094 172.996 132.297 173.479 132.314ZM174.596 142.143C175.079 142.126 175.536 141.923 175.871 141.576C176.207 141.228 176.395 140.764 176.395 140.281C176.395 139.799 176.207 139.334 175.871 138.987C175.536 138.64 175.079 138.436 174.596 138.42C174.113 138.436 173.656 138.64 173.32 138.987C172.985 139.334 172.797 139.799 172.797 140.281C172.797 140.764 172.985 141.228 173.32 141.576C173.656 141.923 174.113 142.126 174.596 142.143ZM186.469 88.9358C193.913 89.121 201.346 89.6147 208.76 90.3769C212.47 90.7361 216.164 91.256 219.848 91.8828C223.597 92.4051 227.264 93.4029 230.76 94.852C231.218 95.0792 231.647 95.36 232.039 95.6885C232.4 96.015 232.741 96.3624 233.062 96.7289C233.677 97.3944 234.347 98.031 235.013 98.6871C236.39 99.9923 237.632 101.432 238.722 102.985C240.805 106.145 242.353 109.627 243.302 113.291C245.172 120.519 246.331 127.913 246.763 135.367C245.862 127.999 244.399 120.71 242.387 113.565C241.371 110.04 239.822 106.691 237.796 103.632C236.732 102.149 235.523 100.777 234.185 99.5361C233.52 98.8934 232.833 98.255 232.179 97.5625C231.637 96.8886 230.957 96.3387 230.184 95.9498C226.81 94.5282 223.271 93.5346 219.649 92.9923C216.008 92.3167 212.328 91.8262 208.649 91.3207C201.282 90.364 193.88 89.6317 186.469 88.9358ZM84.3305 104.68C87.761 103.954 91.3348 104.367 94.5092 105.857C97.692 107.384 100.411 109.732 102.385 112.658C103.372 114.097 104.231 115.619 104.954 117.207C105.638 118.798 106.237 120.425 106.747 122.08C107.121 123.768 107.583 125.432 107.877 127.124C108.072 128.836 108.307 130.536 108.461 132.24C108.028 130.574 107.675 128.906 107.283 127.25C106.87 125.6 106.312 123.991 105.838 122.368C105.203 120.803 104.642 119.206 103.931 117.685C103.202 116.177 102.346 114.733 101.371 113.371C99.543 110.575 97.0396 108.284 94.0922 106.71C91.092 105.135 87.7102 104.432 84.3305 104.68ZM128.42 183.171C129.276 185.449 130.178 187.702 131.226 189.891C132.218 192.102 133.306 194.266 134.46 196.393C136.743 200.651 139.352 204.726 142.264 208.581C145.135 212.459 148.4 216.029 152.007 219.234L154.762 221.584C155.705 222.335 156.724 222.987 157.7 223.7L159.17 224.769C159.679 225.095 160.212 225.384 160.732 225.693L163.871 227.55C159.367 225.631 155.163 223.074 151.386 219.959C147.623 216.811 144.23 213.244 141.275 209.328C138.36 205.394 135.797 201.211 133.615 196.828C131.429 192.462 129.689 187.887 128.42 183.171ZM50.865 204.214C50.8109 211.636 50.6472 219.055 50.5262 226.475C50.4259 233.895 50.1746 241.31 50.0053 248.728L50.0004 248.791L49.9898 248.86C49.5365 251.824 49.915 254.856 51.0832 257.618C52.3231 260.287 54.5483 262.373 57.2923 263.438C57.9976 263.666 58.688 263.931 59.4008 264.139L61.6121 264.567C63.1428 264.792 64.7228 264.958 66.2844 265.129C69.4175 265.462 72.557 265.758 75.7028 266.018C88.2798 267.075 100.897 267.617 113.508 267.899C126.114 268.189 138.726 267.773 151.285 266.651C163.764 265.446 176.439 263.534 187.777 258.106C187.888 258.053 188.014 258.043 188.132 258.077C188.25 258.111 188.351 258.187 188.417 258.291C189.309 259.683 190.547 260.821 192.01 261.593C193.502 262.38 195.15 262.828 196.835 262.904C198.544 262.968 200.253 262.788 201.911 262.368C202.733 262.127 203.558 261.875 204.376 261.604L206.77 260.611L204.43 261.737C203.624 262.054 202.808 262.354 201.988 262.645C200.314 263.168 198.57 263.433 196.816 263.429C195.016 263.453 193.236 263.041 191.628 262.228C190.021 261.416 188.635 260.226 187.587 258.761L188.226 258.947C182.56 261.899 176.53 264.09 170.291 265.466C164.092 266.889 157.816 267.956 151.494 268.661C138.864 269.951 126.169 270.493 113.475 270.285C100.791 270.204 88.1297 269.399 75.5046 268.273C72.3477 267.987 69.1934 267.663 66.0418 267.3C64.4618 267.114 62.8963 266.937 61.3018 266.69L58.8603 266.195C58.0591 265.958 57.2698 265.653 56.4769 265.38C53.2779 264.068 50.7196 261.556 49.3491 258.382C48.1017 255.257 47.7606 251.844 48.3649 248.535L48.3495 248.666C48.7424 241.256 49.0539 233.843 49.5163 226.436C49.9573 219.028 50.3564 211.619 50.865 204.214Z" fill="white"/>
<path d="M96.8475 212.928C97.0539 217.008 97.1704 221.088 97.3121 225.167L97.0323 224.741C111.389 229.887 126.461 232.762 141.704 233.263C149.281 233.493 156.862 232.899 164.311 231.492L169.858 230.292C171.69 229.827 173.467 229.169 175.276 228.618L177.987 227.771C178.871 227.435 179.729 227.035 180.602 226.671L185.83 224.431L185.387 225.102C185.592 223.863 186.078 222.687 186.809 221.665C187.487 220.675 188.333 219.81 189.307 219.11C191.212 217.76 193.401 216.866 195.706 216.496C196.826 216.301 197.955 216.164 199.09 216.086C200.221 216.086 201.35 215.988 202.473 216.071C203.595 216.164 204.722 216.163 205.831 216.334L209.154 216.828L205.808 216.64C204.696 216.584 203.581 216.636 202.472 216.627C201.361 216.621 200.261 216.794 199.161 216.867C198.074 217.017 196.995 217.223 195.929 217.485C193.836 217.983 191.869 218.909 190.151 220.204C188.519 221.429 187.408 223.225 187.043 225.233L187.036 225.288C187.018 225.418 186.969 225.542 186.893 225.649C186.817 225.756 186.716 225.844 186.599 225.904C179.732 229.551 172.385 232.212 164.775 233.81C157.163 235.351 149.394 235.982 141.633 235.691C133.899 235.408 126.208 234.408 118.659 232.702C114.899 231.823 111.17 230.829 107.498 229.651C103.805 228.525 100.187 227.17 96.6631 225.594L96.6415 225.584C96.562 225.548 96.495 225.489 96.4489 225.415C96.4029 225.341 96.3798 225.254 96.3827 225.167C96.525 221.088 96.6412 217.008 96.8475 212.928Z" fill="white"/>
<path d="M60.7958 234.566C62.7412 231.886 65.2224 229.64 68.082 227.969C70.9439 226.274 74.042 225.015 77.2747 224.233C78.9007 223.904 80.5454 223.674 82.1995 223.546C83.8464 223.384 85.5038 223.358 87.1551 223.466C88.8063 223.502 90.4334 223.835 92.064 224.011C93.6726 224.357 95.2693 224.748 96.8467 225.167C95.2086 225.023 93.6031 224.753 91.9848 224.614C90.3599 224.564 88.7483 224.34 87.1309 224.42C83.9096 224.405 80.6966 224.747 77.551 225.441C74.4165 226.154 71.391 227.282 68.5541 228.793C65.6767 230.292 63.0575 232.241 60.7958 234.566ZM186.214 225.167C186.709 226.248 187.295 227.284 187.965 228.266C188.598 229.226 189.412 230.053 190.362 230.702C190.597 230.842 190.843 230.961 191.098 231.06C191.445 231.189 191.758 231.395 192.015 231.661C192.244 231.959 192.396 232.31 192.456 232.681C192.516 233.052 192.483 233.432 192.359 233.788C191.953 235.001 191.293 236.114 190.423 237.052L190.417 237.059L190.381 237.094C189.454 237.968 188.756 239.056 188.347 240.262C188.159 240.831 188.1 241.435 188.175 242.03C188.25 242.624 188.457 243.195 188.781 243.699C189.383 244.678 190.704 245.632 191.211 247.134C191.368 247.522 191.438 247.939 191.416 248.357C191.395 248.775 191.283 249.183 191.087 249.553C190.661 250.237 190.021 250.761 189.267 251.044L189.433 250.93C188.456 251.962 187.709 253.189 187.241 254.531C187.013 255.201 186.944 255.914 187.037 256.614C187.194 257.322 187.525 257.98 188.002 258.526C187.418 258.042 186.983 257.403 186.746 256.683C186.558 255.933 186.546 255.149 186.71 254.394C186.869 253.643 187.14 252.921 187.516 252.252C187.875 251.574 188.298 250.933 188.781 250.337C188.81 250.301 188.847 250.272 188.888 250.252L188.948 250.223C189.473 249.978 189.906 249.574 190.187 249.068C190.297 248.822 190.355 248.556 190.356 248.287C190.356 248.018 190.3 247.752 190.19 247.506C189.786 246.346 188.695 245.627 187.788 244.337C187.35 243.693 187.064 242.958 186.951 242.187C186.863 241.415 186.946 240.634 187.195 239.898C187.694 238.499 188.536 237.247 189.644 236.257L189.602 236.298C190.369 235.489 190.976 234.541 191.392 233.506C191.489 233.304 191.534 233.082 191.524 232.859C191.514 232.636 191.449 232.418 191.335 232.226C191.182 232.055 190.996 231.918 190.788 231.823C190.495 231.686 190.213 231.525 189.947 231.341C188.951 230.589 188.142 229.618 187.582 228.503C187.003 227.446 186.544 226.327 186.214 225.167ZM208.408 226.421C208.371 227.178 208.334 227.922 208.296 228.667C206.795 228.655 205.28 228.593 203.778 228.431C202.01 228.288 200.258 227.993 198.54 227.55C200.258 227.107 202.01 226.812 203.778 226.669C205.317 226.508 206.869 226.446 208.408 226.421ZM208.011 234.773C207.961 235.53 207.936 236.275 207.899 237.007C206.521 236.982 205.156 236.92 203.778 236.771C202.01 236.628 200.258 236.333 198.54 235.89C200.258 235.447 202.01 235.152 203.778 235.009C205.193 234.86 206.596 234.798 208.011 234.773ZM207.638 242.815C207.614 243.572 207.576 244.316 207.551 245.049C206.298 245.011 205.032 244.949 203.778 244.813C202.01 244.67 200.258 244.375 198.54 243.932C200.258 243.489 202.01 243.194 203.778 243.05C205.069 242.914 206.36 242.852 207.638 242.815ZM203.778 252.656C204.945 252.532 206.112 252.47 207.266 252.433C207.229 253.19 207.204 253.922 207.179 254.629C206.05 254.604 204.908 254.542 203.778 254.418C202.01 254.275 200.258 253.98 198.54 253.537C200.258 253.094 202.01 252.799 203.778 252.656ZM165.517 271.128C165.517 271.128 143.153 249.029 134.804 263.36C126.455 277.691 132.194 288.203 138.398 295.296C145.955 303.938 146.335 306.526 148.577 309.085C150.82 311.645 176.133 342.586 207.683 340.847C226.087 339.833 225.773 330.028 222.317 322.032C219.805 316.369 215.768 311.516 210.657 308.014C200.579 300.972 178.057 284.662 165.517 271.128Z" fill="white"/>
<path d="M157.89 264.813C162.699 265.04 167.495 265.364 172.292 265.677L186.673 266.652C191.462 267.032 196.257 267.31 201.049 267.564C203.445 267.713 205.843 267.8 208.239 267.839C209.435 267.837 210.641 267.923 211.833 267.836L213.628 267.751L215.405 267.471C210.674 268.431 205.839 268.783 201.018 268.519C196.199 268.461 191.393 268.173 186.589 267.889C181.791 267.513 176.995 267.137 172.211 266.624C167.427 266.112 162.648 265.55 157.89 264.813ZM205.75 305.161C205.614 305.161 205.482 305.116 205.374 305.033C205.266 304.951 205.187 304.835 205.151 304.704C205.115 304.572 205.124 304.433 205.175 304.307C205.226 304.181 205.317 304.075 205.434 304.005C206.405 303.433 229.326 289.978 237.903 292.775C238.059 292.827 238.187 292.939 238.261 293.085C238.335 293.232 238.347 293.402 238.296 293.557C238.245 293.713 238.134 293.842 237.988 293.917C237.842 293.991 237.672 294.005 237.516 293.954C229.475 291.32 206.299 304.936 206.065 305.075C205.97 305.131 205.861 305.161 205.75 305.161Z" fill="white"/>
<path d="M342.789 213.924L342.801 213.924L342.846 213.932L396.913 233.965L396.96 233.985C402.335 236.497 407.449 239.534 412.226 243.052C417.053 246.573 421.304 250.822 424.829 255.645C426.643 258.077 428.068 260.777 429.053 263.647C430.003 266.474 430.747 269.367 431.278 272.302C432.484 278.267 432.068 284.447 430.073 290.197C428.954 293.059 427.311 295.687 425.227 297.945C423.127 300.169 420.675 302.031 417.97 303.457C415.283 304.875 412.418 305.927 409.452 306.586C407.976 306.896 406.484 307.118 404.982 307.249L400.594 307.727C388.894 308.978 377.198 310.249 365.488 311.389C342.069 313.68 318.643 315.925 295.166 317.653C289.298 318.09 283.426 318.5 277.547 318.836C271.656 319.13 265.81 319.541 259.822 319.277C256.747 319.025 253.823 317.836 251.445 315.87C249.11 313.985 247.056 311.776 245.346 309.31C241.969 304.424 239.25 299.114 237.26 293.518C237.233 293.445 237.225 293.365 237.237 293.287C237.249 293.21 237.28 293.136 237.327 293.073C237.375 293.011 237.438 292.961 237.51 292.929C237.581 292.898 237.66 292.884 237.739 292.891L237.754 292.892C240.268 293.216 242.814 293.208 245.326 292.869C246.506 292.642 247.758 292.169 248.099 291.167C248.311 290.007 248.082 288.809 247.457 287.809C246.222 285.581 244.778 283.476 243.144 281.522C241.546 279.512 239.89 277.539 238.249 275.551C236.607 273.564 234.975 271.564 233.396 269.52C231.899 267.466 230.09 265.659 228.033 264.165C227.07 263.397 225.938 262.869 224.731 262.622C223.524 262.375 222.276 262.417 221.088 262.744C218.778 263.676 216.893 265.427 215.795 267.662L215.782 267.687C215.742 267.761 215.68 267.822 215.606 267.861C215.531 267.901 215.447 267.918 215.363 267.909C215.279 267.901 215.199 267.868 215.133 267.815C215.068 267.762 215.019 267.69 214.994 267.61C214.183 265.11 213.759 262.502 213.737 259.874C213.73 258.534 213.942 257.202 214.364 255.93C214.801 254.609 215.63 253.452 216.742 252.614L216.679 252.669C217.696 251.778 218.864 251.076 220.127 250.595C221.329 250.094 222.556 249.656 223.803 249.283C226.281 248.525 228.789 247.91 231.306 247.352C236.343 246.247 241.416 245.364 246.498 244.558C256.666 242.962 266.875 241.701 277.094 240.553C297.535 238.263 318.014 236.441 338.531 234.932L337.64 235.78C338.933 227.61 340.609 219.726 342.194 211.722L347.124 187.818L357.032 140.021L357.491 141.271C356.382 140.655 355.182 140.223 353.936 139.989C352.58 139.679 351.189 139.423 349.781 139.218C346.969 138.792 344.114 138.501 341.256 138.247C335.536 137.744 329.783 137.447 324.029 137.187C312.516 136.676 300.98 136.439 289.443 136.303C266.369 136.035 243.276 136.238 220.201 136.557L221.036 136.191C220.266 137.155 219.671 138.246 219.278 139.415C218.806 140.658 218.41 141.957 218.053 143.273C217.344 145.908 216.789 148.611 216.289 151.324C215.301 156.756 214.549 162.25 213.885 167.755C212.573 178.769 211.62 189.837 210.797 200.914C209.985 211.995 209.303 223.087 208.753 234.188C208.139 245.272 207.733 256.39 207.317 267.488L207.316 267.499C207.311 267.642 207.249 267.776 207.145 267.874C207.042 267.971 206.903 268.024 206.761 268.02L159.451 266.791C159.418 266.791 159.387 266.777 159.364 266.753C159.342 266.729 159.33 266.698 159.33 266.665C159.331 266.633 159.344 266.601 159.368 266.579C159.391 266.556 159.422 266.543 159.455 266.543L206.779 266.928L206.224 267.46C206.506 256.336 206.827 245.232 207.329 234.111C207.777 223.01 208.353 211.905 209.057 200.794C209.776 189.692 210.623 178.595 211.836 167.519C212.45 161.981 213.153 156.449 214.101 150.934C214.583 148.177 215.12 145.424 215.829 142.684C216.186 141.314 216.587 139.948 217.089 138.587C217.573 137.112 218.328 135.741 219.316 134.543C219.415 134.432 219.535 134.343 219.67 134.28C219.805 134.217 219.951 134.182 220.099 134.178L220.151 134.177C231.706 133.878 243.255 133.772 254.808 133.687C266.361 133.614 277.915 133.627 289.471 133.725C301.026 133.843 312.584 134.062 324.145 134.556C329.925 134.815 335.705 135.156 341.487 135.683C344.378 135.953 347.269 136.259 350.165 136.71C351.613 136.927 353.062 137.198 354.519 137.538C356.114 137.842 357.64 138.436 359.02 139.292C359.207 139.417 359.352 139.596 359.437 139.804C359.522 140.013 359.542 140.242 359.496 140.462L359.479 140.542L349.372 188.284L344.294 212.151C342.644 220.088 340.873 228.113 339.548 236L339.539 236.051C339.503 236.264 339.397 236.459 339.236 236.603C339.076 236.748 338.872 236.834 338.656 236.848C318.163 238.168 297.672 239.801 277.24 241.903C267.027 242.983 256.824 244.178 246.675 245.704C241.603 246.475 236.541 247.323 231.532 248.389C229.029 248.926 226.539 249.52 224.098 250.25C222.881 250.605 221.683 251.024 220.51 251.504C219.365 251.93 218.302 252.551 217.368 253.339L217.351 253.355L217.304 253.394C216.344 254.113 215.626 255.108 215.247 256.246C214.852 257.419 214.651 258.649 214.651 259.887C214.66 262.413 215.053 264.924 215.816 267.332L215.016 267.28C216.226 264.847 218.299 262.953 220.832 261.967C222.138 261.609 223.51 261.563 224.837 261.835C226.163 262.107 227.407 262.688 228.467 263.531C230.573 265.089 232.437 266.949 233.999 269.052C235.58 271.078 237.216 273.063 238.865 275.04C240.514 277.018 242.181 278.984 243.799 280.999C245.482 282.992 246.969 285.142 248.241 287.42C248.99 288.628 249.241 290.081 248.94 291.471C248.665 292.18 248.136 292.762 247.457 293.104C246.841 293.418 246.183 293.64 245.504 293.764C242.905 294.134 240.269 294.159 237.664 293.837L238.159 293.212C240.13 298.708 242.847 303.908 246.235 308.665C247.908 311.02 249.91 313.124 252.178 314.913C254.383 316.704 257.086 317.771 259.92 317.969C265.69 318.154 271.605 317.68 277.451 317.313C283.312 316.91 289.171 316.432 295.028 315.927C318.452 313.85 341.865 311.606 365.268 309.194L400.372 305.633C403.276 305.279 406.286 305.143 409.012 304.567C411.799 303.962 414.492 302.987 417.021 301.668C422.124 299.111 426.12 294.782 428.261 289.491C430.153 284.071 430.561 278.243 429.441 272.613C428.944 269.756 428.248 266.937 427.359 264.177C426.457 261.467 425.141 258.913 423.456 256.606C420.079 251.879 415.989 247.704 411.333 244.228C406.671 240.715 401.672 237.67 396.411 235.139L396.457 235.159L342.757 214.164L342.801 214.172L342.789 214.172C342.756 214.172 342.725 214.159 342.701 214.136C342.678 214.113 342.665 214.081 342.665 214.048C342.665 214.015 342.678 213.984 342.701 213.96C342.725 213.937 342.756 213.924 342.789 213.924L342.789 213.924Z" fill="white"/>
<path d="M220.176 135.367C211.089 145.643 206.77 267.474 206.77 267.474H215.409C215.409 267.474 211.797 256.776 217.023 253.004C226.518 243.224 338.593 235.89 338.593 235.89C338.841 233.743 340.517 225.205 342.801 214.048C348.586 185.641 358.255 140.282 358.255 140.282C348.424 132.686 220.176 135.367 220.176 135.367ZM283.63 191.213C272.768 191.213 263.968 188.607 263.968 185.405C263.968 182.203 272.768 179.597 283.63 179.597C294.491 179.597 303.291 182.203 303.291 185.405C303.291 188.607 294.491 191.213 283.63 191.213ZM94.9387 268.502C93.4997 277.058 92.746 285.716 92.6846 294.393C92.5492 303.042 93.3772 311.679 95.1534 320.145C97.0524 328.498 100.346 336.75 106.136 343.006C109.091 346.073 112.518 348.646 116.287 350.628L119.102 352.194C120.046 352.706 121.038 353.141 122.004 353.618C123.941 354.563 125.885 355.496 127.888 356.315C135.819 359.751 143.971 362.719 152.199 365.448C160.421 368.201 168.722 370.726 177.05 373.163C193.697 378.098 210.504 382.398 227.358 386.697C231.673 387.845 235.715 389.844 239.246 392.577C242.777 395.31 245.726 398.722 247.918 402.611C249.001 404.548 249.897 406.583 250.596 408.689C251.234 410.799 251.716 412.953 252.037 415.134L254.174 427.989C257.116 445.114 259.962 462.255 263.02 479.359L281.387 581.981L280.525 581.238C293.347 581.423 306.201 581.253 318.998 580.568C325.396 580.228 331.787 579.746 338.111 578.914C341.256 578.511 344.379 577.946 347.467 577.221C348.979 576.865 350.467 576.412 351.921 575.865C353.265 575.399 354.502 574.67 355.561 573.721L355.247 574.585C354.333 552.609 353.24 530.629 352.101 508.659C350.947 486.688 349.522 464.733 348.082 442.782C346.576 420.836 344.85 398.9 342.475 377.036C341.285 366.105 339.89 355.197 338.139 344.348C337.247 338.928 336.26 333.519 334.932 328.193C334.291 325.528 333.49 322.904 332.533 320.335C332.056 319.056 331.47 317.82 330.78 316.642C330.491 316.039 330.086 315.5 329.588 315.054C329.089 314.608 328.508 314.265 327.877 314.044L327.867 314.042C327.835 314.035 327.807 314.016 327.788 313.989C327.77 313.962 327.764 313.929 327.77 313.896C327.776 313.864 327.795 313.836 327.822 313.818C327.849 313.799 327.883 313.792 327.915 313.799C328.591 314.01 329.219 314.355 329.76 314.812C330.302 315.269 330.747 315.83 331.069 316.461C331.797 317.642 332.422 318.884 332.936 320.173C333.959 322.74 334.826 325.365 335.531 328.036C336.987 333.359 338.099 338.763 339.116 344.178C341.123 355.016 342.566 365.942 343.916 376.87C346.558 398.737 348.551 420.67 350.323 442.616C352.131 464.56 353.43 486.54 354.675 508.519C355.919 530.5 356.923 552.492 357.688 574.496L357.689 574.535C357.694 574.687 357.669 574.838 357.615 574.98C357.56 575.121 357.478 575.251 357.373 575.36C356.06 576.592 354.501 577.532 352.799 578.117C351.242 578.695 349.65 579.172 348.032 579.545C344.858 580.273 341.648 580.837 338.416 581.234C331.988 582.045 325.549 582.494 319.11 582.803C306.227 583.351 293.358 583.366 280.478 583.033C280.27 583.028 280.071 582.951 279.914 582.815C279.757 582.68 279.652 582.494 279.617 582.29L262.21 479.5C259.305 462.369 256.19 445.275 253.169 428.164L250.835 415.343C250.493 413.229 249.994 411.144 249.344 409.104C248.643 407.095 247.754 405.157 246.687 403.316C244.548 399.644 241.695 396.438 238.298 393.884C234.901 391.33 231.028 389.482 226.906 388.446C210.004 384.481 193.139 380.123 176.429 375.286C168.065 372.889 159.771 370.239 151.523 367.448C143.276 364.658 135.096 361.628 127.101 358.109C125.086 357.272 123.118 356.314 121.156 355.342C120.178 354.852 119.179 354.407 118.217 353.878L115.346 352.26C111.424 350.164 107.877 347.433 104.849 344.177C98.8585 337.503 95.6316 328.958 93.8162 320.439C92.1117 311.863 91.4385 303.113 91.8108 294.376C92.081 285.672 93.0456 277.003 94.6953 268.453C94.7016 268.42 94.7206 268.392 94.7479 268.373C94.7752 268.355 94.8087 268.348 94.841 268.354C94.873 268.362 94.9009 268.381 94.9191 268.409C94.9372 268.436 94.9442 268.469 94.9387 268.502ZM300.61 597.996C300.61 597.996 289.886 596.879 289.886 602.017C289.886 607.155 290.779 644.683 295.248 645.8C299.716 646.917 430.646 692.041 465.501 655.406C465.501 655.406 489.632 642.003 444.052 626.366C398.472 610.729 369.873 595.092 369.873 595.092C369.873 595.092 326.528 596.432 325.634 600.9C324.741 605.367 331.444 621.451 331.444 621.451C331.444 621.451 302.845 628.153 300.61 597.996Z" fill="white"/>
<path d="M300.61 598.618C300.558 598.618 300.506 598.611 300.456 598.599C300.296 598.557 300.16 598.455 300.076 598.313C299.992 598.171 299.968 598.002 300.009 597.842C300.599 595.26 300.673 592.588 300.229 589.977C299.785 587.366 298.83 584.868 297.42 582.627C297.373 582.56 297.34 582.485 297.323 582.405C297.305 582.326 297.303 582.243 297.318 582.163C297.332 582.083 297.362 582.006 297.405 581.938C297.449 581.869 297.506 581.809 297.573 581.763C297.64 581.716 297.715 581.683 297.795 581.665C297.874 581.648 297.957 581.646 298.037 581.66C298.117 581.675 298.194 581.705 298.262 581.748C298.331 581.792 298.39 581.849 298.437 581.916C299.968 584.297 301.003 586.961 301.479 589.751C301.956 592.541 301.864 595.398 301.211 598.152C301.177 598.285 301.099 598.403 300.99 598.488C300.881 598.572 300.748 598.618 300.61 598.618ZM364.51 595.713L364.489 595.711C350.981 595.261 337.774 581.172 337.219 580.573C337.163 580.514 337.12 580.443 337.092 580.367C337.063 580.291 337.05 580.209 337.053 580.128C337.056 580.047 337.075 579.966 337.109 579.892C337.143 579.818 337.191 579.752 337.251 579.696C337.311 579.641 337.381 579.598 337.457 579.569C337.534 579.541 337.615 579.528 337.697 579.531C337.778 579.534 337.858 579.553 337.932 579.587C338.006 579.621 338.073 579.669 338.128 579.729C338.261 579.873 351.543 594.038 364.531 594.472C364.694 594.478 364.848 594.547 364.96 594.665C365.072 594.783 365.133 594.94 365.131 595.103C365.128 595.266 365.061 595.421 364.945 595.535C364.829 595.649 364.673 595.713 364.51 595.713V595.713Z" fill="white"/>
<path d="M52.9535 261.908C52.8628 261.89 52.7731 261.89 52.6833 261.872L52.5751 261.764C52.7041 261.804 52.8305 261.852 52.9535 261.908ZM92.2048 304.449V304.557C92.2593 304.233 92.313 303.927 92.3676 303.602C92.313 303.891 92.2593 304.161 92.2048 304.449ZM340.061 351.729V351.765C339.988 351.783 339.934 351.801 339.862 351.819C339.934 351.783 339.988 351.765 340.061 351.729Z" fill="white"/>
<path d="M34.9148 364.999L37.0369 402.314L38.9728 439.636C39.6332 452.076 40.5075 464.508 40.7231 476.965C40.8186 483.193 40.9136 489.422 40.8481 495.657L40.7447 505.009C40.636 508.129 40.5969 511.247 40.4261 514.369C40.4235 514.416 40.4037 514.459 40.3704 514.492C40.3371 514.525 40.2929 514.544 40.2463 514.546C40.1997 514.547 40.1541 514.531 40.1185 514.501C40.0829 514.471 40.0599 514.429 40.0539 514.383C39.6535 511.281 39.3851 508.175 39.0468 505.072L38.2543 495.753C37.7294 489.54 37.3655 483.321 37.0017 477.102C36.2986 464.664 36.2541 452.201 35.9959 439.746L35.1762 402.383L34.5426 365.013C34.5419 364.964 34.5602 364.917 34.5937 364.882C34.6273 364.847 34.6733 364.826 34.722 364.824C34.7706 364.822 34.8181 364.84 34.8541 364.872C34.8902 364.905 34.912 364.951 34.9148 364.999V364.999ZM136.352 435.594L137.395 473.595L138.251 511.597C138.552 524.264 139.066 536.929 138.921 549.6C138.837 555.936 138.752 562.271 138.506 568.608L138.132 578.113C137.934 581.282 137.805 584.45 137.544 587.62C137.54 587.666 137.519 587.71 137.485 587.741C137.45 587.773 137.406 587.791 137.359 587.791C137.312 587.792 137.267 587.774 137.232 587.743C137.198 587.712 137.176 587.669 137.171 587.623C136.861 584.458 136.682 581.292 136.433 578.126L135.911 568.628C135.566 562.296 135.382 555.963 135.198 549.629C134.855 536.962 135.171 524.29 135.272 511.62L135.533 473.609L135.98 435.597C135.98 435.548 136 435.502 136.035 435.467C136.069 435.433 136.116 435.414 136.164 435.413C136.213 435.413 136.26 435.432 136.295 435.465C136.33 435.499 136.351 435.545 136.352 435.594L136.352 435.594Z" fill="white"/>
<path d="M40.2399 514.586C48.9599 514.586 56.0289 513.253 56.0289 511.608C56.0289 509.963 48.9599 508.629 40.2399 508.629C31.5198 508.629 24.4509 509.963 24.4509 511.608C24.4509 513.253 31.5198 514.586 40.2399 514.586Z" fill="white"/>
<path d="M136.762 588.229C145.482 588.229 152.551 586.895 152.551 585.25C152.551 583.605 145.482 582.272 136.762 582.272C128.042 582.272 120.973 583.605 120.973 585.25C120.973 586.895 128.042 588.229 136.762 588.229Z" fill="white"/>
<path d="M241.766 411.016L243.154 428.45L244.357 445.891C244.733 451.705 245.431 457.508 245.373 463.338C245.415 469.196 245.071 475.049 244.343 480.861C244.337 480.905 244.315 480.946 244.282 480.976C244.249 481.005 244.207 481.023 244.163 481.024C244.118 481.026 244.074 481.012 244.039 480.985C244.004 480.957 243.98 480.918 243.971 480.875C242.816 475.132 242.041 469.32 241.652 463.476C241.164 457.665 241.433 451.827 241.38 446.001L241.294 428.519L241.394 411.03C241.394 410.982 241.413 410.936 241.446 410.901C241.48 410.867 241.525 410.847 241.573 410.845C241.621 410.843 241.668 410.86 241.704 410.892C241.74 410.924 241.762 410.968 241.766 411.016ZM380.488 371.092L381.528 408.649L382.381 446.208C382.68 458.727 383.193 471.245 383.047 483.768C382.962 490.029 382.877 496.291 382.631 502.554L382.256 511.948C382.057 515.08 381.928 518.211 381.666 521.344C381.662 521.39 381.641 521.434 381.607 521.465C381.573 521.497 381.528 521.515 381.482 521.515C381.435 521.516 381.39 521.499 381.355 521.467C381.32 521.436 381.299 521.393 381.294 521.347C380.984 518.219 380.805 515.09 380.557 511.961L380.035 502.574C379.691 496.316 379.507 490.056 379.324 483.797C378.982 471.278 379.299 458.754 379.402 446.231L379.666 408.664L380.116 371.095C380.117 371.046 380.136 370.999 380.171 370.965C380.205 370.931 380.252 370.911 380.301 370.911C380.35 370.91 380.397 370.929 380.432 370.963C380.467 370.997 380.487 371.043 380.488 371.092V371.092Z" fill="white"/>
<path d="M244.158 481.08C252.878 481.08 259.947 479.746 259.947 478.101C259.947 476.457 252.878 475.123 244.158 475.123C235.437 475.123 228.369 476.457 228.369 478.101C228.369 479.746 235.437 481.08 244.158 481.08Z" fill="white"/>
<path d="M380.885 521.952C389.605 521.952 396.674 520.619 396.674 518.974C396.674 517.329 389.605 515.996 380.885 515.996C372.165 515.996 365.096 517.329 365.096 518.974C365.096 520.619 372.165 521.952 380.885 521.952Z" fill="white"/>
<path d="M215.405 268.092H206.769C206.605 268.091 206.448 268.025 206.332 267.909C206.217 267.792 206.152 267.635 206.152 267.47C206.152 267.306 206.217 267.149 206.332 267.032C206.448 266.916 206.605 266.85 206.769 266.849H215.405C215.569 266.85 215.726 266.916 215.842 267.032C215.958 267.149 216.023 267.306 216.023 267.47C216.023 267.635 215.958 267.792 215.842 267.909C215.726 268.025 215.569 268.091 215.405 268.092Z" fill="white"/>
</svg>
