<svg width="935" height="537" viewBox="0 0 935 537" fill="none" xmlns="http://www.w3.org/2000/svg">
<path d="M854.288 309.728C853.132 308.216 852.118 306.616 851.105 304.998C831.559 274.271 746.155 288.834 746.155 288.834C736.498 362.912 719.691 354.181 716.578 349.522C713.466 344.864 707.846 299.112 704.129 292.889C693.387 291.946 671.44 292.106 671.44 292.106C650.258 292.604 630.339 311.239 610.739 341.592C591.14 371.927 556.584 397.604 556.584 397.604C556.584 397.604 566.846 398.546 570.581 420.951C572.875 421.662 579.758 418.622 584.773 416.168C589.247 413.979 594.237 413.062 599.197 413.518C607.271 414.265 618.885 416.843 628.169 425.627C629.31 426.692 630.522 427.678 631.797 428.579C632.971 427.921 633.629 427.477 633.629 427.477C652.765 419.546 663.97 392.003 663.97 392.003C662.418 388.539 661.514 384.821 661.302 381.032C661 377.259 661.053 373.467 661.462 369.705C661.872 366.024 662.156 362.378 662.263 358.716C662.449 355.022 662.288 351.319 661.783 347.656C663.308 351.135 664.176 354.867 664.344 358.662C664.605 362.431 664.528 366.216 664.113 369.971C663.703 373.634 663.472 377.28 663.383 380.961C663.251 384.651 663.448 388.347 663.97 392.003C665.044 401.831 667.369 411.481 670.889 420.72C675.944 422.395 681.159 423.545 686.451 424.152C689.054 424.448 691.677 424.532 694.294 424.401C696.974 424.251 699.645 423.966 702.297 423.547C699.904 424.981 697.271 425.969 694.525 426.463C693.151 426.729 691.761 426.895 690.363 426.961C688.962 426.979 687.561 426.926 686.166 426.801C683.39 426.5 680.664 425.842 678.056 424.845C675.454 423.877 673.032 422.483 670.888 420.72C672.387 424.832 674.375 428.748 676.811 432.384C690.003 433.144 702.933 436.384 714.924 441.933C717.966 443.338 720.758 445.223 723.568 446.61C726.429 448.037 729.426 449.174 732.514 450.006C738.732 451.698 745.136 452.605 751.579 452.709C754.852 452.815 757.964 452.638 761.344 452.531C764.664 452.494 767.984 452.654 771.285 453.011C777.83 453.687 784.357 454.433 790.831 455.572C793.303 455.998 795.758 456.461 798.212 456.941C797.074 455.396 796.097 453.74 795.295 451.998C794.045 449.372 793.108 446.609 792.503 443.765C791.881 440.922 791.506 438.03 791.382 435.123C791.221 432.191 791.334 429.25 791.72 426.339L791.738 426.25L791.773 426.125C792.748 422.97 793.351 419.712 793.57 416.417C793.846 413.075 793.881 409.717 793.677 406.37C793.445 403.02 793.036 399.684 792.45 396.377C791.809 393.123 790.955 389.727 790.493 386.295C789.561 379.454 789.346 372.535 789.853 365.65C790.031 362.219 790.386 358.787 790.902 355.408C791.377 352.017 792.024 348.652 792.841 345.326C791.998 352.088 791.534 358.891 791.453 365.704C791.355 372.467 791.849 379.226 792.93 385.903C793.161 387.575 793.57 389.211 793.908 390.847L795.011 395.897C795.666 399.309 796.1 402.76 796.309 406.228C796.835 413.18 796.032 420.168 793.943 426.819C793.502 429.553 793.276 432.318 793.268 435.087C793.247 437.905 793.467 440.718 793.926 443.498C794.373 446.287 795.087 449.026 796.06 451.678C796.745 453.54 797.609 455.333 798.639 457.029C802.498 457.812 806.322 458.701 810.11 459.751C816.479 461.415 822.602 463.908 828.322 467.165C822.411 464.385 816.19 462.32 809.79 461.013C806.5 460.248 803.186 459.584 799.848 459.021C799.839 459.012 799.826 459.005 799.813 459.003C796.736 458.47 793.641 458.008 790.529 457.599C784.055 456.763 777.563 456.034 771.072 455.518C767.856 455.217 764.626 455.093 761.397 455.145C758.249 455.251 754.799 455.483 751.526 455.376C744.858 455.239 738.236 454.247 731.82 452.424C728.601 451.483 725.48 450.232 722.501 448.69C721.007 447.961 719.549 446.983 718.179 446.183C716.81 445.347 715.44 444.476 714 443.765C708.248 440.746 702.191 438.349 695.93 436.616C689.669 434.741 683.279 433.326 676.811 432.385L662.103 433.789C662.557 434.415 662.889 435.121 663.081 435.87C666.869 448.121 661.409 496.114 661.409 496.114C682.413 511.512 798.674 535.322 798.674 535.322C873.62 547.929 874.314 481.39 874.314 481.39C887.724 361.988 861.366 318.903 854.288 309.728ZM760.507 431.442C759.134 431.707 757.743 431.874 756.346 431.94C754.945 431.958 753.544 431.905 752.148 431.78C749.372 431.478 746.647 430.821 744.038 429.824C741.437 428.856 739.015 427.462 736.871 425.699C741.927 427.374 747.142 428.524 752.433 429.13C755.036 429.427 757.659 429.511 760.276 429.38C762.956 429.23 765.628 428.945 768.279 428.526C765.886 429.96 763.253 430.948 760.507 431.442V431.442Z" fill="white"/>
<path d="M703.971 292.973C703.459 292.201 702.89 291.469 702.268 290.783C701.647 290.108 700.966 289.491 700.233 288.941C699.505 288.403 698.719 287.948 697.89 287.585C697.092 287.227 696.243 286.997 695.373 286.904L695.651 286.85C693.866 287.709 691.979 288.339 690.036 288.725C688.063 289.15 686.03 289.217 684.033 288.922C681.959 288.615 680.005 287.761 678.371 286.449C676.868 285.104 675.551 283.566 674.451 281.876C672.304 278.623 670.395 275.219 668.739 271.692C667.069 268.188 665.567 264.646 664.168 261.007L665.605 261.956C663.948 262.124 662.276 261.87 660.744 261.218C659.851 260.799 659.098 260.132 658.575 259.296C658.093 258.489 657.806 257.58 657.736 256.642C657.652 255.035 657.881 253.426 658.409 251.906C658.872 250.455 659.484 249.056 660.233 247.73C661.639 245.674 662.299 243.198 662.103 240.715C661.991 239.506 661.658 238.328 661.121 237.239L660.152 235.424C659.816 234.781 659.491 234.127 659.187 233.458C658.559 232.119 658.057 230.724 657.69 229.291C657.289 227.895 656.965 226.479 656.718 225.049C656.409 223.629 656.313 222.174 656.134 220.736C656.078 219.285 655.989 217.836 656.066 216.386C656.187 210.555 657.615 204.825 660.244 199.619C660.335 199.444 660.474 199.298 660.645 199.199C660.816 199.1 661.011 199.051 661.209 199.058C661.406 199.066 661.597 199.129 661.76 199.241C661.923 199.353 662.05 199.509 662.128 199.691L662.145 199.73C664.315 204.742 667.085 209.471 670.395 213.815C673.69 218.202 677.648 222.049 682.127 225.219C686.594 228.395 691.696 230.567 697.083 231.584C702.461 232.576 707.987 232.428 713.303 231.15L713.341 231.141C713.466 231.113 713.597 231.121 713.718 231.164C713.838 231.207 713.944 231.284 714.023 231.385C716.169 234.338 717.663 237.712 718.408 241.285C719.201 244.775 719.606 248.342 719.615 251.921C719.634 255.483 719.38 259.042 718.856 262.565C718.23 265.91 717.994 269.316 718.153 272.716C718.314 276.001 719.203 279.209 720.755 282.109C722.305 284.903 724.672 287.155 727.54 288.563C730.463 289.926 733.692 290.5 736.906 290.228C740.199 289.962 743.423 289.133 746.435 287.776C746.725 287.65 747.043 287.603 747.358 287.639C747.672 287.675 747.971 287.794 748.225 287.983C748.478 288.172 748.678 288.424 748.802 288.715C748.927 289.006 748.973 289.324 748.936 289.638L748.933 289.661C747.627 300.994 745.596 312.232 742.854 323.306C741.433 328.895 739.565 334.362 737.268 339.652C736.089 342.354 734.64 344.931 732.944 347.343C732.057 348.587 731.051 349.74 729.94 350.788C728.786 351.919 727.43 352.822 725.943 353.452C724.349 354.136 722.588 354.33 720.884 354.009C719.197 353.663 717.645 352.836 716.418 351.628C715.763 351.006 715.24 350.259 714.881 349.43C714.594 348.715 714.351 347.983 714.152 347.238C713.753 345.816 713.451 344.417 713.152 343.014C711.978 337.416 711.171 331.807 710.275 326.21L707.641 309.432C707.189 306.639 706.717 303.851 706.171 301.081C705.728 298.308 704.99 295.59 703.972 292.973L703.96 292.948C703.941 292.906 703.939 292.859 703.954 292.816C703.97 292.772 704.001 292.737 704.042 292.716C704.083 292.696 704.131 292.692 704.174 292.706C704.218 292.72 704.255 292.75 704.277 292.79C705.516 295.369 706.448 298.085 707.054 300.881C707.759 303.634 708.39 306.402 709 309.172C710.233 314.712 711.272 320.285 712.386 325.837C713.481 331.388 714.614 336.943 715.861 342.411C716.186 343.769 716.519 345.132 716.919 346.428C717.1 347.047 717.317 347.655 717.569 348.249C717.789 348.717 718.103 349.134 718.491 349.474C719.298 350.256 720.325 350.773 721.434 350.957C722.542 351.141 723.681 350.981 724.697 350.501C726.938 349.305 728.821 347.535 730.153 345.373C731.646 343.101 732.929 340.698 733.987 338.194C736.141 333.062 737.881 327.766 739.189 322.357C741.833 311.42 743.894 300.351 745.362 289.196L747.86 291.081C744.452 292.557 740.816 293.435 737.11 293.677C733.306 293.936 729.5 293.195 726.07 291.528C722.624 289.792 719.804 287.026 718.003 283.614C716.308 280.282 715.376 276.615 715.274 272.878C715.182 269.275 715.518 265.674 716.276 262.151C716.911 258.769 717.285 255.343 717.396 251.904C717.522 248.477 717.258 245.048 716.61 241.681C716.026 238.359 714.764 235.193 712.902 232.381L713.622 232.615C708.096 233.76 702.399 233.808 696.855 232.756C694.094 232.217 691.404 231.364 688.838 230.213C686.264 229.094 683.805 227.729 681.493 226.139C676.89 222.935 672.771 219.087 669.262 214.712C665.672 210.377 662.626 205.62 660.19 200.546L662.09 200.657C659.859 205.609 658.751 210.992 658.844 216.421C658.855 219.13 659.138 221.831 659.69 224.483C659.948 225.812 660.278 227.125 660.681 228.417C661.036 229.696 661.498 230.942 662.063 232.143C662.341 232.749 662.643 233.351 662.959 233.949C663.275 234.563 663.599 235.087 663.977 235.841C664.688 237.272 665.132 238.82 665.287 240.411C665.529 243.573 664.689 246.723 662.906 249.345C661.592 251.465 660.854 253.891 660.763 256.383C660.756 256.832 660.876 257.274 661.109 257.659C661.341 258.043 661.677 258.354 662.079 258.556C663.142 258.998 664.298 259.176 665.445 259.073L665.464 259.073C665.771 259.059 666.075 259.144 666.33 259.315C666.585 259.486 666.779 259.734 666.883 260.023C668.155 263.575 669.592 267.125 671.124 270.594C672.6 274.072 674.324 277.44 676.282 280.671C677.218 282.238 678.353 283.677 679.66 284.952C680.996 286.1 682.612 286.872 684.345 287.191C688.007 287.773 691.758 287.305 695.165 285.843L695.238 285.813C695.303 285.787 695.374 285.779 695.443 285.788C696.438 285.941 697.401 286.256 698.293 286.722C699.16 287.164 699.974 287.702 700.722 288.325C701.449 288.955 702.114 289.653 702.706 290.412C703.288 291.164 703.814 291.959 704.277 292.79C704.288 292.81 704.296 292.833 704.299 292.856C704.302 292.879 704.3 292.903 704.294 292.925C704.288 292.948 704.278 292.969 704.263 292.987C704.249 293.006 704.231 293.021 704.211 293.033C704.171 293.054 704.124 293.06 704.08 293.049C704.036 293.038 703.997 293.011 703.971 292.973Z" fill="white"/>
<path d="M661.878 260.094C661.515 262.922 661.136 265.728 660.84 268.537C660.562 271.348 660.292 274.152 660.206 276.955C660.068 279.742 660.183 282.536 660.551 285.303C660.733 286.673 661.101 288.012 661.645 289.282C662.156 290.586 663.006 291.73 664.107 292.596C662.804 291.925 661.728 290.884 661.017 289.602C660.312 288.319 659.79 286.945 659.466 285.517C658.857 282.689 658.622 279.793 658.768 276.904C658.885 274.042 659.213 271.192 659.749 268.378C660.25 265.567 660.962 262.798 661.878 260.094ZM661.022 200.24C660.655 199.602 660.423 198.895 660.339 198.163C660.255 197.432 660.321 196.691 660.533 195.986L660.826 194.928L661.286 193.947C661.445 193.622 661.591 193.285 661.766 192.969L662.369 192.079C663.171 190.891 664.081 189.78 665.086 188.759C666.104 187.77 667.188 186.859 668.251 185.912C672.736 182.521 677.54 179.573 682.595 177.11C685.117 175.913 687.667 174.768 690.216 173.63C692.794 172.572 695.387 171.55 697.987 170.546C700.592 169.592 703.238 168.769 705.869 167.895C707.2 167.495 708.483 167.041 709.906 166.647C711.285 166.277 712.683 165.98 714.094 165.756C719.696 164.835 725.428 165.068 730.936 166.442C736.423 167.825 741.495 170.511 745.721 174.273C749.89 178.093 753.325 182.643 755.857 187.699C758.399 192.734 760.342 198.05 761.647 203.537L761.672 203.685C763.046 211.216 765.463 218.518 768.853 225.382C770.526 228.807 772.463 232.096 774.647 235.22C776.796 238.35 779.222 241.28 781.895 243.977L786.124 247.893C787.646 249.224 789.076 250.656 790.405 252.179C793.125 255.184 795.369 258.587 797.059 262.271C800.561 269.549 801.438 277.815 799.539 285.666C799.527 285.709 799.499 285.747 799.461 285.771C799.423 285.795 799.377 285.803 799.332 285.794C799.288 285.785 799.249 285.76 799.223 285.723C799.196 285.686 799.185 285.641 799.191 285.596L799.194 285.576C799.694 281.743 799.54 277.853 798.738 274.071C798.01 270.326 796.692 266.72 794.832 263.388C793.918 261.732 792.901 260.135 791.787 258.607C790.644 257.1 789.405 255.668 788.077 254.322C786.779 252.944 785.389 251.657 783.916 250.468L779.398 246.556C773.594 240.951 768.882 234.317 765.502 226.991C763.819 223.364 762.395 219.622 761.242 215.794C760.044 211.963 759.173 208.038 758.637 204.06L758.663 204.207C757.6 198.868 756.012 193.647 753.924 188.62C751.833 183.585 748.764 179.015 744.895 175.174C742.904 173.316 740.688 171.716 738.299 170.41C735.893 169.133 733.321 168.197 730.656 167.63C725.321 166.567 719.817 166.698 714.538 168.014C713.231 168.316 711.94 168.687 710.671 169.125C709.451 169.554 708.156 170.114 706.866 170.604L699.099 173.51C696.549 174.537 693.993 175.547 691.421 176.52L683.86 179.769C678.88 182.002 674.079 184.614 669.499 187.582C668.43 188.397 667.323 189.186 666.285 190.044C665.266 190.912 664.317 191.858 663.446 192.874L662.795 193.638C662.606 193.908 662.448 194.195 662.271 194.474L661.752 195.324L661.394 196.236C660.881 197.445 660.851 198.805 661.312 200.035L661.329 200.072C661.348 200.112 661.35 200.158 661.336 200.2C661.322 200.243 661.293 200.278 661.254 200.299C661.215 200.321 661.169 200.326 661.126 200.315C661.083 200.304 661.046 200.277 661.022 200.24V200.24ZM665.421 234.596C667.882 232.828 670.566 231.394 673.404 230.332C674.822 229.787 676.28 229.35 677.764 229.024C679.257 228.645 680.812 228.574 682.334 228.813C680.881 229.128 679.455 229.559 678.071 230.104L673.917 231.676C671.136 232.72 668.361 233.796 665.421 234.596ZM673.203 244.535C673.763 244.516 674.293 244.28 674.682 243.877C675.072 243.475 675.289 242.936 675.289 242.377C675.289 241.817 675.072 241.279 674.682 240.876C674.293 240.473 673.763 240.237 673.203 240.218C672.644 240.237 672.113 240.473 671.724 240.876C671.335 241.279 671.118 241.817 671.118 242.377C671.118 242.936 671.335 243.475 671.724 243.877C672.113 244.28 672.644 244.516 673.203 244.535ZM669.721 270.686C670.804 270.72 671.887 270.69 672.966 270.596C674.018 270.5 675.056 270.373 676.085 270.177C677.114 269.977 678.14 269.747 679.168 269.465C680.199 269.188 681.235 268.881 682.334 268.606C681.516 269.383 680.581 270.027 679.564 270.517C678.543 271.014 677.462 271.375 676.347 271.591C674.101 272.076 671.756 271.755 669.721 270.686ZM661.711 489.737C656.363 487.768 650.865 486.236 645.27 485.154C639.762 484.032 634.104 483.852 628.537 484.62L626.487 484.965L624.485 485.509C623.157 485.88 621.852 486.329 620.577 486.855C618.028 487.952 615.584 489.279 613.276 490.819C610.925 492.361 608.694 494.126 606.067 495.65C603.438 497.126 600.608 498.213 597.666 498.876C594.745 499.568 591.745 499.871 588.744 499.776C585.601 499.779 582.503 499.028 579.711 497.585C578.94 497.115 578.253 496.52 577.678 495.825C577.162 495.192 576.844 494.729 576.393 494.211C575.546 493.236 574.566 492.386 573.481 491.685C571.096 490.299 568.577 489.157 565.963 488.275C563.142 487.379 560.438 486.152 557.906 484.621C556.623 483.754 555.496 482.677 554.571 481.436C554.117 480.85 553.71 480.291 553.273 479.774C553.059 479.505 552.833 479.276 552.603 479.015C552.352 478.718 552.063 478.421 551.85 478.122C550.151 475.767 548.592 473.314 547.18 470.776C545.751 468.282 544.329 465.795 542.965 463.265L543.382 463.572L539.72 462.773C538.454 462.557 537.213 462.217 536.013 461.759C533.608 460.754 531.496 459.157 529.876 457.116C528.988 456.095 528.379 454.862 528.106 453.537C528.002 452.839 528.047 452.127 528.237 451.447C528.428 450.767 528.759 450.135 529.211 449.592C530.076 448.573 531.134 447.735 532.324 447.127C533.515 446.52 534.814 446.154 536.146 446.051C537.434 445.977 538.727 446.03 540.005 446.209L543.732 446.477C546.219 446.634 548.707 446.751 551.195 446.828C556.171 446.98 561.15 446.945 566.095 446.636C571.006 446.382 575.886 445.698 580.678 444.593C582.995 444.043 585.239 443.222 587.363 442.146C588.359 441.626 589.286 440.983 590.121 440.232C590.961 439.463 591.723 438.614 592.397 437.697C592.961 437.059 593.312 436.262 593.404 435.416C593.374 435.234 593.344 435.162 593.11 434.961C592.76 434.737 592.379 434.568 591.979 434.458C589.755 434.008 587.466 433.977 585.231 434.366C584.088 434.525 582.959 434.773 581.855 435.108C581.405 435.242 580.97 435.424 580.56 435.653L580.177 435.902C580.009 436.019 579.84 436.112 579.671 436.208C579.34 436.393 578.999 436.558 578.648 436.702C577.344 437.222 575.98 437.577 574.587 437.757C573.919 437.852 573.253 437.919 572.59 437.965C571.822 438.034 571.049 438.005 570.288 437.88C568.678 437.607 567.188 436.854 566.014 435.721C564.896 434.599 564.085 433.21 563.659 431.685C562.915 428.762 563.308 425.664 564.759 423.019C565.479 421.545 566.618 420.316 568.033 419.485C568.504 419.235 569.016 419.069 569.544 418.995C569.853 418.954 570.166 418.952 570.476 418.988C570.637 419.005 570.797 419.034 570.954 419.074L571.155 419.128L571.178 419.124C571.541 419.16 571.908 419.137 572.263 419.055C574.551 418.529 576.782 417.779 578.923 416.816C580.047 416.338 581.168 415.838 582.285 415.316L583.956 414.524C584.556 414.238 585.166 413.968 585.785 413.716C588.264 412.722 590.869 412.081 593.526 411.811C596.152 411.574 598.797 411.665 601.401 412.083C603.946 412.431 606.467 412.942 608.947 413.612C613.942 414.928 618.692 417.042 623.012 419.873C625.155 421.309 627.16 422.939 629.004 424.743C630.784 426.381 632.687 427.879 634.697 429.224C643.271 434.223 653.17 436.479 663.064 435.691L663.079 435.69C663.125 435.687 663.17 435.702 663.205 435.732C663.24 435.762 663.262 435.804 663.267 435.85C663.271 435.896 663.258 435.941 663.229 435.977C663.201 436.013 663.159 436.037 663.114 436.043C652.999 437.595 642.653 435.831 633.625 431.013C631.416 429.678 629.316 428.171 627.344 426.505C621.884 421.657 615.287 418.265 608.166 416.645C605.803 416.076 603.406 415.659 600.989 415.395C598.642 415.076 596.265 415.055 593.913 415.332C591.592 415.605 589.321 416.197 587.162 417.09C586.625 417.317 586.097 417.558 585.572 417.817L583.866 418.652C582.724 419.201 581.569 419.733 580.402 420.25C578 421.378 575.481 422.238 572.89 422.811C572.021 422.994 571.123 422.995 570.254 422.815L570.047 422.767C569.978 422.751 570.033 422.766 570.021 422.762L570.038 422.765C570.048 422.767 570.05 422.764 570.035 422.766C569.945 422.784 569.857 422.817 569.776 422.862C569.054 423.351 568.475 424.026 568.102 424.814C567.115 426.596 566.829 428.682 567.299 430.663C567.543 431.559 568.001 432.382 568.634 433.062C569.262 433.684 570.064 434.103 570.935 434.263C571.407 434.348 571.889 434.369 572.367 434.325C572.951 434.294 573.531 434.245 574.1 434.173C575.192 434.051 576.264 433.795 577.292 433.41C577.521 433.321 577.745 433.218 577.961 433.101C578.064 433.049 578.164 432.991 578.26 432.928L578.666 432.672C579.342 432.282 580.064 431.976 580.815 431.764C582.108 431.39 583.429 431.118 584.765 430.953C587.475 430.527 590.242 430.632 592.912 431.261C593.715 431.494 594.471 431.866 595.146 432.361C595.567 432.686 595.918 433.093 596.178 433.558C596.438 434.022 596.601 434.534 596.658 435.063C596.73 435.976 596.552 436.89 596.143 437.709C595.834 438.382 595.447 439.017 594.99 439.601C594.167 440.686 593.231 441.682 592.198 442.569C591.151 443.465 589.995 444.225 588.757 444.832C586.39 445.959 583.898 446.802 581.332 447.342C576.35 448.368 571.279 448.902 566.192 448.936C561.149 449.042 556.122 448.871 551.113 448.551C548.609 448.387 546.109 448.181 543.614 447.932L539.874 447.532C538.679 447.346 537.468 447.277 536.259 447.326C535.091 447.4 533.95 447.703 532.9 448.218C531.85 448.733 530.911 449.45 530.138 450.327C529.778 450.74 529.511 451.225 529.354 451.75C529.198 452.274 529.155 452.826 529.229 453.368C529.459 454.502 529.974 455.559 530.725 456.44C532.218 458.341 534.185 459.817 536.429 460.717C537.57 461.14 538.75 461.449 539.952 461.64L543.632 462.357C543.716 462.374 543.796 462.407 543.866 462.457C543.936 462.506 543.994 462.57 544.038 462.643L544.05 462.664C546.803 467.628 549.896 472.397 553.307 476.936C553.522 477.212 553.75 477.414 553.968 477.657C554.224 477.922 554.512 478.193 554.757 478.473C555.268 479.028 555.73 479.607 556.176 480.134C557.007 481.161 558.007 482.04 559.134 482.731C561.57 484.052 564.152 485.084 566.829 485.805C569.684 486.627 572.441 487.758 575.05 489.179C576.393 490.003 577.613 491.012 578.674 492.176C579.18 492.723 579.701 493.424 580.104 493.885C580.462 494.276 580.876 494.612 581.332 494.882C583.672 496.026 586.247 496.609 588.852 496.585C591.581 496.671 594.31 496.416 596.976 495.826C599.634 495.259 602.196 494.309 604.581 493.005C606.919 491.675 609.264 489.97 611.726 488.418C614.22 486.837 616.854 485.487 619.594 484.386C620.988 483.876 622.41 483.45 623.854 483.11L626.019 482.618L628.217 482.336C634.039 481.744 639.92 482.183 645.59 483.634C651.177 485.048 656.62 486.981 661.847 489.409C661.889 489.427 661.922 489.461 661.939 489.503C661.957 489.545 661.958 489.592 661.942 489.634C661.925 489.677 661.893 489.712 661.852 489.732C661.811 489.751 661.764 489.754 661.721 489.74L661.711 489.737Z" fill="white"/>
<path d="M543.503 462.963C546.966 462.666 550.429 462.527 553.893 462.412C557.356 462.28 560.819 462.262 564.283 462.244L569.477 462.282C571.262 462.281 573.039 462.526 574.757 463.01C578.047 464.178 581.255 465.566 584.358 467.165C582.686 466.686 581.048 466.12 579.392 465.601C577.795 464.987 576.158 464.48 574.493 464.085C572.844 463.745 571.161 463.597 569.477 463.644L564.283 463.682C560.819 463.664 557.356 463.646 553.893 463.514C550.429 463.399 546.966 463.26 543.503 462.963ZM545.263 466.059C547.591 467.854 549.817 469.769 552.027 471.703C553.17 472.632 554.186 473.727 555.298 474.5C556.421 475.308 557.68 475.909 559.014 476.273C560.301 476.659 561.788 476.718 563.255 476.991C564.717 477.232 566.165 477.548 567.595 477.939C570.519 478.552 573.236 479.905 575.487 481.87C574.277 481.065 572.949 480.454 571.55 480.058C570.173 479.618 568.768 479.27 567.344 479.017C565.917 478.77 564.492 478.513 563.051 478.338C561.565 478.196 560.087 477.97 558.626 477.659C557.133 477.232 555.731 476.532 554.493 475.594C553.352 474.63 552.272 473.595 551.261 472.495C549.217 470.402 547.189 468.291 545.263 466.059ZM512.533 420.023C511.385 417.699 509.983 415.509 508.353 413.494L508.627 413.672C505.899 413.243 503.357 412.023 501.315 410.164C500.25 409.088 499.594 407.674 499.461 406.166C499.394 405.418 499.428 404.664 499.56 403.925C499.741 403.221 499.962 402.526 500.22 401.846C501.466 399.194 503.659 397.104 506.368 395.987C507.723 395.343 509.198 394.99 510.698 394.951C512.314 394.941 513.893 395.437 515.213 396.368L512.873 397.116C513.23 396.147 513.72 395.233 514.327 394.398C514.903 393.58 515.578 392.836 516.336 392.182C517.866 390.874 519.683 389.945 521.639 389.47C523.528 389.017 525.484 388.916 527.41 389.171L528.785 389.348C529.321 389.427 529.848 389.557 530.359 389.737C531.309 390.061 532.219 390.491 533.073 391.018C536.296 393.101 538.873 396.041 540.516 399.509C542.127 402.792 543.3 406.273 544.005 409.862L540.649 410.067C540.94 407.784 541.627 405.569 542.68 403.523C543.73 401.414 545.295 399.603 547.229 398.259C549.205 396.965 551.505 396.252 553.866 396.201C554.431 396.179 554.996 396.195 555.558 396.252L556.397 396.305C556.726 396.319 557.053 396.372 557.369 396.463C558.505 396.801 559.577 397.324 560.542 398.011C564.006 400.732 566.566 404.436 567.888 408.637C569.284 412.614 570.189 416.747 570.582 420.944C569.658 416.898 568.334 412.953 566.629 409.169C565.076 405.479 562.519 402.299 559.249 399.991C558.476 399.516 557.637 399.159 556.76 398.931C556.572 398.886 556.379 398.868 556.186 398.878L555.461 398.872C553.144 398.755 550.853 399.41 548.947 400.733C547.52 401.92 546.349 403.384 545.504 405.037C544.66 406.69 544.16 408.497 544.035 410.349L544.033 410.361C543.99 410.762 543.806 411.135 543.514 411.413C543.222 411.691 542.84 411.856 542.438 411.879C542.035 411.902 541.638 411.782 541.315 411.539C540.993 411.297 540.768 410.948 540.679 410.555C539.998 407.284 538.897 404.116 537.403 401.129C536.008 398.257 533.885 395.8 531.246 394.002C530.617 393.602 529.944 393.274 529.242 393.024C528.93 392.907 528.608 392.821 528.279 392.769L527.056 392.598C525.511 392.375 523.939 392.426 522.411 392.748C520.947 393.053 519.576 393.699 518.407 394.632C517.266 395.56 516.359 396.744 515.763 398.089L515.69 398.259C515.537 398.618 515.248 398.901 514.886 399.047C514.524 399.193 514.119 399.189 513.76 399.037C513.639 398.984 513.526 398.917 513.422 398.836C512.547 398.242 511.529 397.893 510.474 397.827C509.418 397.76 508.365 397.978 507.422 398.458C505.226 399.233 503.386 400.779 502.242 402.807C501.649 403.758 501.362 404.867 501.418 405.985C501.474 407.104 501.871 408.178 502.556 409.065C504.241 410.879 506.411 412.172 508.809 412.79L508.869 412.808C508.958 412.834 509.034 412.891 509.084 412.968C510.551 415.151 511.711 417.525 512.533 420.023ZM500.533 418.815C499.579 416.852 497.887 415.346 495.826 414.628C493.824 414.055 491.683 414.216 489.789 415.082C488.878 415.363 488.059 415.885 487.419 416.592C486.779 417.299 486.342 418.166 486.154 419.101C486.067 421.058 486.6 422.992 487.677 424.628C488.761 426.436 490.05 428.112 491.52 429.623C491.876 430.016 492.252 430.373 492.623 430.738L493.829 431.792C494.689 432.535 495.521 433.293 496.345 434.057C499.644 437.109 502.727 440.314 505.802 443.567C506.033 443.811 506.185 444.119 506.238 444.45L506.257 444.563C506.459 445.598 506.796 446.601 507.26 447.547C508.234 449.579 509.619 451.387 511.327 452.856C512.194 453.641 513.061 454.167 514.221 455.058C516.347 456.725 518.14 458.777 519.508 461.107C520.885 463.396 521.906 465.881 522.533 468.478L522.452 468.224C523.264 470.468 524.785 472.385 526.786 473.685C528.924 474.932 531.351 475.598 533.826 475.617C536.422 475.674 539.014 475.406 541.543 474.819C544.131 474.255 546.668 473.485 549.132 472.514C546.818 473.873 544.373 474.994 541.834 475.861C539.256 476.766 536.566 477.316 533.84 477.496C530.974 477.703 528.105 477.132 525.536 475.844C524.238 475.123 523.072 474.187 522.087 473.076C521.135 471.955 520.342 470.709 519.728 469.373L519.696 469.291L519.647 469.119C518.99 466.892 518.018 464.77 516.761 462.817C515.518 460.887 513.952 459.185 512.133 457.785C511.317 457.159 510.049 456.373 509.057 455.492C508.013 454.614 507.064 453.63 506.224 452.555C505.368 451.477 504.638 450.304 504.05 449.058C503.427 447.758 502.997 446.374 502.773 444.95L503.227 445.946C500.25 442.708 497.175 439.515 494.093 436.397C493.316 435.624 492.533 434.859 491.74 434.124L490.48 432.941C490.073 432.515 489.661 432.091 489.286 431.649C487.748 429.89 486.426 427.953 485.349 425.879C484.093 423.702 483.618 421.162 484.003 418.679C484.142 418.026 484.388 417.401 484.73 416.828C485.098 416.287 485.514 415.781 485.975 415.317L487.52 414.254L489.179 413.573C491.448 412.77 493.934 412.842 496.152 413.774C497.19 414.267 498.115 414.97 498.868 415.837C499.622 416.705 500.189 417.718 500.533 418.815Z" fill="white"/>
<path d="M504.514 444.757C503.971 442.789 504.009 440.706 504.623 438.759C504.917 437.743 505.439 436.807 506.15 436.023C506.499 435.621 506.928 435.297 507.411 435.073C507.893 434.848 508.418 434.728 508.95 434.72C508.159 435.215 507.504 435.897 507.041 436.707C506.591 437.49 506.239 438.325 505.994 439.194C505.424 440.953 505.077 442.815 504.514 444.757ZM508.716 413.235C509.939 412.934 510.937 412.725 511.997 412.517C513.106 412.268 514.235 412.121 515.37 412.079C514.599 413.055 513.496 413.713 512.271 413.929C511.663 414.072 511.032 414.084 510.419 413.964C509.806 413.844 509.226 413.596 508.716 413.235ZM515.209 397.6C515.188 399.144 515.391 400.684 515.812 402.17C516.184 403.654 516.975 404.999 518.091 406.045C518.682 406.543 519.367 406.914 520.106 407.138C520.845 407.361 521.622 407.431 522.389 407.343C523.187 407.278 523.979 407.148 524.755 406.953L527.043 406.127L524.825 407.164C524.047 407.437 523.247 407.645 522.434 407.786C521.591 407.952 520.724 407.946 519.884 407.768C519.043 407.589 518.248 407.242 517.546 406.747C516.17 405.683 515.13 404.244 514.55 402.604C513.934 401.005 513.556 399.323 513.43 397.614C513.419 397.497 513.432 397.378 513.468 397.266C513.503 397.153 513.56 397.049 513.637 396.959C513.713 396.869 513.806 396.794 513.911 396.741C514.016 396.687 514.131 396.654 514.248 396.645C514.366 396.636 514.484 396.65 514.596 396.687C514.708 396.724 514.812 396.783 514.901 396.86C514.99 396.938 515.063 397.032 515.116 397.138C515.168 397.243 515.199 397.358 515.207 397.476C515.209 397.503 515.209 397.53 515.209 397.557L515.209 397.6Z" fill="white"/>
<path d="M522.375 407.645C523.609 409.524 524.699 411.494 525.637 413.538C526.685 415.596 527.403 417.806 527.762 420.087C527.864 420.512 528.066 420.905 528.352 421.235C528.639 421.564 529 421.819 529.407 421.978C530.337 422.445 531.335 422.764 532.363 422.924C533.415 423.116 534.492 423.126 535.547 422.951C536.635 422.859 537.645 422.35 538.367 421.531C538.095 422.047 537.719 422.501 537.262 422.863C536.805 423.226 536.278 423.489 535.714 423.636C534.59 423.969 533.417 424.101 532.247 424.025C531.052 423.972 529.879 423.69 528.791 423.194C528.157 422.945 527.597 422.537 527.165 422.01C526.734 421.483 526.445 420.853 526.327 420.183C525.969 418.053 525.396 415.966 524.615 413.952L522.375 407.645ZM544.091 409.922C544.484 412.699 545.366 415.384 546.695 417.853C547.028 418.444 547.407 419.007 547.827 419.54C548.361 420.18 548.834 420.869 549.239 421.597C549.646 422.335 549.973 423.115 550.212 423.923C550.456 424.775 550.571 425.481 550.74 426.185C550.826 426.813 550.998 427.426 551.251 428.006C551.599 428.53 552.037 428.986 552.546 429.356C553.048 429.748 553.623 430.038 554.237 430.207C554.852 430.376 555.494 430.421 556.126 430.34C557.459 430.064 558.657 429.341 559.523 428.291C560.497 427.211 561.326 426.009 561.989 424.715L561.952 424.829C562.396 422.736 562.692 420.614 562.837 418.479C563.03 416.337 562.887 414.177 562.413 412.078C563.043 414.156 563.344 416.321 563.306 418.492C563.316 420.67 563.172 422.845 562.875 425.003C562.87 425.035 562.861 425.067 562.847 425.097L562.837 425.118C562.228 426.551 561.433 427.899 560.474 429.127C559.486 430.483 558.065 431.461 556.446 431.9C555.594 432.079 554.715 432.086 553.86 431.921C553.005 431.757 552.191 431.424 551.465 430.943C550.718 430.478 550.062 429.882 549.529 429.182C549.238 428.794 549.026 428.353 548.904 427.883L548.571 426.773C548.27 425.41 547.748 424.105 547.024 422.911C546.655 422.349 546.233 421.823 545.764 421.341C545.204 420.732 544.692 420.08 544.234 419.391C542.49 416.671 541.252 413.659 540.581 410.499C540.528 410.271 540.521 410.035 540.56 409.805C540.599 409.574 540.683 409.353 540.807 409.155C540.931 408.957 541.093 408.785 541.284 408.65C541.474 408.514 541.689 408.417 541.917 408.365C542.145 408.312 542.381 408.305 542.612 408.344C542.842 408.383 543.063 408.467 543.261 408.591C543.46 408.715 543.631 408.877 543.767 409.067C543.903 409.258 543.999 409.473 544.052 409.701C544.062 409.743 544.07 409.786 544.076 409.828L544.091 409.922ZM540.809 441.08C540.88 441.08 540.933 441.097 541.004 441.097L541.164 441.204L540.809 441.08Z" fill="white"/>
<path d="M576.894 438.68C546.339 434.039 517.545 422.196 510.396 419.12C509.157 418.578 507.833 418.259 506.483 418.178C499.974 417.84 497.733 419.956 497.128 422.143C496.857 423.199 496.934 424.315 497.347 425.324C497.76 426.333 498.488 427.182 499.422 427.744L531.204 447.73L531.222 447.713C532.823 445.788 534.678 444.089 536.735 442.663C535.984 444.242 535.06 445.733 533.979 447.108C536.937 446.296 540.062 446.308 543.014 447.144C579.811 450.629 589.059 442.947 589.059 442.947C585.111 439.267 576.894 438.68 576.894 438.68ZM550.056 435.639L557.526 441.08L540.399 438.52L524.98 428.189L550.056 435.639ZM559.66 444.868C553.293 444.281 546.944 443.552 540.595 442.84C540.47 442.818 540.35 442.776 540.239 442.716C534.37 439.178 528.519 435.604 522.721 431.941L514.024 426.411C511.178 424.508 508.279 422.677 505.451 420.72C508.493 422.321 511.481 424.01 514.486 425.646L523.432 430.749C529.337 434.11 535.17 437.595 541.004 441.098C547.264 441.863 553.56 442.645 559.82 443.534C566.134 444.423 572.465 445.348 578.761 446.451C572.377 446.059 566.01 445.472 559.66 444.868H559.66Z" fill="white"/>
<path d="M541.164 441.205L540.808 441.08C540.879 441.08 540.933 441.098 541.003 441.098L541.164 441.205Z" fill="white"/>
<path d="M324.504 186.128C324.504 186.128 319.938 183.389 315.675 188.259C315.675 188.259 308.064 177.446 275.792 186.81C275.792 186.81 280.054 194.956 283.099 194.956C286.143 194.956 277.314 208.958 269.094 208.349C269.094 208.349 255.089 228.743 265.745 248.528C276.248 268.029 283.793 274.223 294.21 261.574C294.53 261.182 294.886 260.821 295.275 260.497C298.271 258.027 311.534 247.757 316.234 255.415C317.235 257.116 317.522 259.144 317.031 261.056C314.885 270.041 304.852 303.132 275.792 289.925C275.792 289.925 241.926 277.228 249.914 247.148C250.768 244.089 252.007 241.15 253.6 238.403C255.137 235.596 256.084 232.504 256.383 229.319C256.682 226.133 256.328 222.919 255.341 219.875C254.117 215.536 251.355 211.79 247.571 209.337C243.903 207.049 239.067 206.026 235.404 212.423C233.888 215.084 233.088 218.094 233.084 221.156C233.077 223.96 233.599 227.398 235.909 229.047L233.084 234.526C231.548 231.401 229.584 228.505 227.247 225.923C223.336 221.961 220.822 216.833 220.09 211.314C219.055 202.56 220.3 189.489 230.733 174.257C230.733 174.257 244.738 146.254 270.921 146.862C297.104 147.471 319.633 154.472 324.504 186.128Z" fill="white"/>
<path d="M280.663 222.655C285.211 221.615 289.884 221.23 294.541 221.512C296.887 221.628 299.215 221.981 301.489 222.565C303.811 223.063 305.968 224.141 307.76 225.699C305.691 224.738 303.482 224.116 301.216 223.856C298.978 223.535 296.72 223.301 294.442 223.199C289.889 222.916 285.313 222.895 280.663 222.655ZM324.505 222.22C322.839 222.726 321.298 223.575 319.98 224.712C319.356 225.228 318.847 225.869 318.487 226.594C318.127 227.319 317.924 228.112 317.891 228.921C318.014 230.58 318.449 232.201 319.174 233.699L321.165 238.592C322.65 241.903 323.513 245.459 323.711 249.083C323.708 250.037 323.532 250.983 323.193 251.876C322.829 252.779 322.233 253.571 321.466 254.171C319.908 255.152 318.068 255.589 316.235 255.414C317.953 255.267 319.59 254.613 320.935 253.534C321.488 252.945 321.904 252.242 322.156 251.475C322.407 250.708 322.487 249.895 322.391 249.093C322.26 247.398 321.915 245.727 321.367 244.118C320.855 242.47 320.243 240.837 319.591 239.21C318.966 237.571 318.289 235.942 317.68 234.264C317.388 233.416 317.093 232.571 316.864 231.678C316.579 230.754 316.483 229.783 316.58 228.822C316.682 227.865 316.994 226.943 317.493 226.121C317.992 225.3 318.667 224.598 319.468 224.066C320.976 223.059 322.703 222.426 324.505 222.22Z" fill="white"/>
<path d="M324.505 186.128C325.075 189.54 325.499 192.97 325.777 196.419C326.094 199.862 326.29 203.315 326.365 206.779C326.419 210.242 326.367 213.711 326.097 217.183C325.938 220.723 325.147 224.205 323.762 227.466C323.742 227.506 323.716 227.543 323.685 227.577C322.617 228.727 321.614 229.936 320.682 231.199C320.218 231.832 319.807 232.5 319.45 233.198C319.053 233.878 318.894 234.67 318.999 235.45C318.754 234.665 318.799 233.819 319.123 233.064C319.403 232.303 319.744 231.565 320.142 230.858C320.937 229.448 321.856 228.112 322.888 226.865L322.812 226.976C323.402 225.419 323.795 223.794 323.982 222.139C324.246 220.47 324.352 218.765 324.478 217.067C324.679 213.657 324.714 210.226 324.734 206.794C324.734 199.924 324.583 193.042 324.505 186.128ZM306.238 245.789C305.917 246.45 305.657 247.139 305.462 247.847C305.264 248.501 305.221 249.193 305.335 249.867C305.43 250.535 305.722 251.159 306.174 251.66C306.652 252.213 307.183 252.718 307.76 253.167C307.391 253.058 307.029 252.928 306.675 252.778C306.33 252.589 306.005 252.365 305.705 252.11C305.076 251.566 304.652 250.825 304.502 250.008C304.396 249.198 304.517 248.375 304.852 247.63C305.165 246.917 305.639 246.287 306.238 245.789ZM235.909 229.047C236.963 230.37 237.804 231.848 238.401 233.43C238.722 234.238 238.953 235.077 239.092 235.935C239.167 236.384 239.196 236.84 239.181 237.295L239.172 237.645L239.193 237.836C239.185 237.959 239.212 238.083 239.271 238.192C239.532 238.749 239.993 239.187 240.563 239.419C241.239 239.765 241.951 240.034 242.687 240.224C244.251 240.645 245.859 240.879 247.479 240.919C245.879 241.545 244.146 241.753 242.444 241.521C241.555 241.43 240.686 241.207 239.863 240.86C239.379 240.672 238.938 240.39 238.563 240.031C238.189 239.672 237.889 239.242 237.681 238.767C237.572 238.499 237.519 238.212 237.524 237.922L237.518 237.495L237.531 237.229C237.55 236.86 237.542 236.491 237.506 236.124C237.439 235.344 237.317 234.57 237.142 233.807C236.797 232.243 236.342 230.671 235.909 229.047ZM233.085 234.526C232.405 236.988 231.447 239.365 230.229 241.61C229.037 243.888 227.598 246.028 225.938 247.991C224.277 249.992 222.306 251.714 220.101 253.093C217.891 254.463 215.361 255.232 212.762 255.325C215.141 254.61 217.376 253.484 219.365 251.998C221.312 250.5 223.085 248.789 224.65 246.896C226.258 245.005 227.744 243.015 229.1 240.937C230.465 238.849 231.82 236.732 233.085 234.526ZM255.394 305.753C257.318 304.91 259.137 303.846 260.815 302.582C262.48 301.339 264.059 299.986 265.542 298.531C267.071 297.119 268.442 295.541 269.866 293.996L271.939 291.603C272.614 290.786 273.287 289.964 274.03 289.175C273.606 290.163 273.113 291.116 272.621 292.076C272.065 292.992 271.517 293.922 270.905 294.809C269.67 296.587 268.267 298.241 266.714 299.749C265.153 301.268 263.412 302.591 261.529 303.686C259.662 304.819 257.567 305.525 255.394 305.753Z" fill="white"/>
<path d="M224.936 247.443C223.421 245.198 221.547 243.218 219.389 241.581C218.94 241.184 218.396 240.91 217.809 240.786C217.223 240.662 216.614 240.691 216.043 240.871C215.033 241.557 214.308 242.588 214.004 243.77C213.588 245.031 213.289 246.327 213.109 247.642C213.019 248.296 212.938 248.977 212.879 249.606C212.883 250.205 212.935 250.909 212.995 251.563C213.257 254.248 213.755 256.904 214.483 259.501C215.823 264.785 217.904 269.853 220.666 274.554C223.463 279.253 226.81 283.602 230.635 287.511C232.553 289.451 234.547 291.318 236.57 293.138C238.672 294.872 240.679 296.733 242.867 298.324C243.922 299.177 245.085 299.868 246.187 300.648C247.354 301.319 248.474 302.08 249.689 302.65C252.037 303.925 254.534 304.904 257.124 305.563C262.296 306.935 267.791 306.358 272.566 303.942C277.363 301.382 281.393 297.591 284.242 292.96C284.252 292.94 284.27 292.925 284.291 292.918C284.313 292.911 284.336 292.913 284.356 292.923C284.374 292.935 284.388 292.952 284.395 292.973C284.402 292.994 284.401 293.016 284.392 293.036C281.915 298.066 278.021 302.262 273.19 305.108C270.716 306.511 267.994 307.424 265.173 307.796C262.344 308.13 259.478 307.947 256.714 307.258C253.97 306.606 251.328 305.58 248.864 304.207C247.606 303.583 246.464 302.774 245.27 302.051C244.15 301.226 242.965 300.483 241.902 299.589C239.674 297.916 237.723 295.961 235.661 294.125C234.61 293.231 233.719 292.163 232.754 291.18C231.824 290.16 230.817 289.215 229.953 288.137C226.348 283.971 223.075 279.53 220.163 274.855C217.198 270.18 214.836 265.149 213.134 259.881C212.303 257.216 211.761 254.469 211.516 251.688C211.469 250.976 211.427 250.311 211.443 249.539C211.524 248.806 211.623 248.125 211.735 247.424C211.959 246.026 212.312 244.651 212.788 243.318C213.003 242.582 213.362 241.896 213.844 241.3C214.327 240.704 214.923 240.211 215.598 239.848C216.357 239.55 217.198 239.533 217.969 239.8C218.669 240.039 219.324 240.398 219.903 240.859C222.031 242.671 223.789 244.877 225.081 247.355C225.086 247.365 225.09 247.375 225.091 247.386C225.092 247.397 225.092 247.408 225.089 247.419C225.086 247.43 225.081 247.44 225.074 247.448C225.067 247.457 225.059 247.465 225.049 247.47C225.03 247.48 225.008 247.482 224.987 247.477C224.966 247.472 224.948 247.46 224.936 247.443Z" fill="white"/>
<path d="M230.079 240.275C227.361 238.602 224.329 237.503 221.17 237.045C218.058 236.476 214.845 237.052 212.123 238.665C210.84 239.556 209.761 240.71 208.958 242.05L206.196 246.017C204.367 248.713 202.32 251.253 200.075 253.613C200.023 253.665 199.96 253.705 199.891 253.731C199.823 253.757 199.749 253.768 199.676 253.764L199.635 253.762C188.257 253.088 176.84 252.818 165.454 252.895C159.759 252.942 154.071 253.17 148.415 253.614C142.803 253.925 137.246 254.889 131.858 256.488L131.763 256.514L131.632 256.542C128.65 257.305 125.809 258.541 123.218 260.204C121.87 261.02 120.574 261.917 119.335 262.891L117.458 264.335C116.852 264.843 116.281 265.396 115.691 265.923C110.99 270.218 106.813 275.054 103.248 280.33C96.0924 290.971 90.2439 302.434 85.8285 314.472C84.7372 317.493 83.542 320.474 82.5351 323.525L79.6533 332.728C78.678 335.758 77.8059 338.97 76.6701 342.038C75.5656 345.137 74.2732 348.133 73.0362 351.109L69.2273 360.049L67.2439 364.503C66.568 366.044 65.8145 367.55 64.9864 369.015C64.8183 369.288 64.6275 369.547 64.4159 369.788C64.5366 369.793 64.547 369.516 64.5538 369.627C64.5344 369.801 64.5417 369.976 64.5755 370.148C64.7023 370.777 64.9193 371.384 65.2198 371.952C65.8845 373.221 66.7718 374.36 67.8396 375.315C70.0203 377.274 72.7476 378.521 75.6563 378.887L74.5129 381.662C72.719 380.261 71.0209 378.742 69.4303 377.114C68.5586 376.236 67.7985 375.254 67.1672 374.191C66.977 373.845 66.8259 373.478 66.7169 373.099C66.6596 372.849 66.6207 372.595 66.6008 372.339C66.6007 372.003 66.6579 371.671 66.7697 371.355C66.8973 371.015 67.1023 370.709 67.3685 370.463C67.492 370.347 67.622 370.239 67.7578 370.139C67.8757 370.071 67.9903 370.017 68.1099 369.96C68.5103 369.776 68.9375 369.657 69.3754 369.608C70.6267 369.518 71.8844 369.607 73.1107 369.872C74.2565 370.08 75.3534 370.357 76.446 370.644L79.7032 371.68L82.8538 372.943C91.0833 376.656 98.3821 381.584 105.98 385.921C113.529 390.328 121.335 394.277 129.358 397.747C137.408 401.174 145.635 404.168 154.005 406.717L154.015 406.72C154.244 406.791 154.443 406.939 154.577 407.138C154.711 407.337 154.774 407.575 154.754 407.815C154.029 415.991 153.736 424.199 153.874 432.407C153.931 436.488 154.28 440.559 154.918 444.59C155.222 446.557 155.787 448.475 156.599 450.292C156.977 451.11 157.542 451.828 158.25 452.387C158.431 452.465 158.606 452.55 158.782 452.643C158.967 452.7 159.164 452.697 159.353 452.74C159.778 452.791 160.359 452.76 160.854 452.774L210.331 452.909C226.823 452.99 243.315 452.901 259.807 452.881L309.283 452.714L308.712 452.966C312.081 449.419 315.768 446.188 319.727 443.314C323.678 440.397 327.969 437.973 332.506 436.095C337.092 434.166 342.018 433.177 346.993 433.187C349.518 433.233 352.027 433.597 354.46 434.271L361.314 436.567C363.605 437.311 365.902 438.035 368.204 438.705C370.417 439.451 372.708 439.946 375.032 440.18C377.613 440.47 380.109 441.28 382.369 442.56C383.557 443.194 384.631 444.024 385.546 445.014C386.058 445.561 386.454 446.205 386.711 446.909C386.969 447.613 387.081 448.361 387.043 449.109C387.107 450.384 387.064 451.662 386.914 452.929C386.756 454.401 386.134 455.785 385.138 456.88C384.064 457.938 382.651 458.583 381.148 458.7C379.826 458.841 378.49 458.8 377.179 458.576C375.929 458.379 374.694 458.098 373.482 457.733L370.024 456.688C368.918 456.371 367.793 456.126 366.656 455.953C365.714 455.759 364.742 455.769 363.805 455.981L364.146 453.627C368.723 456.831 374.098 458.706 379.675 459.044C382.493 459.194 385.32 459.032 388.103 458.561C390.978 458.168 393.828 457.686 396.725 457.203C398.183 456.973 399.632 456.719 401.235 456.616C402.114 456.543 402.998 456.595 403.862 456.77C404.905 456.994 405.848 457.549 406.548 458.354C407.151 459.07 407.613 459.894 407.91 460.781C408.758 463.165 408.885 465.746 408.273 468.201C407.843 469.83 407.076 471.352 406.023 472.668C404.969 473.985 403.652 475.066 402.156 475.844C399.352 477.282 396.301 478.177 393.164 478.48L394.533 477.45C393.8 479.121 392.891 480.709 391.822 482.188C390.759 483.68 389.521 485.04 388.135 486.239C386.678 487.458 385.022 488.416 383.238 489.071C381.403 489.689 379.463 489.935 377.531 489.794L378.993 489.194C376.021 492.656 373.106 496.054 369.759 499.327C369.331 499.734 368.88 500.144 368.377 500.55C367.859 500.943 367.317 501.304 366.754 501.629C365.698 502.224 364.6 502.743 363.469 503.182C361.264 504.039 358.985 504.692 356.661 505.132C352.058 505.991 347.358 506.207 342.696 505.775C341.534 505.694 340.386 505.506 339.23 505.374L335.804 504.774L332.594 504.25L329.326 503.909C320.431 503.451 311.513 503.739 302.666 504.769C293.757 505.672 284.874 507.016 276.035 508.581C271.649 509.36 267.305 510.391 262.88 511.366C258.474 512.344 254.053 513.297 249.62 514.192C240.749 515.964 231.84 517.577 222.878 518.86C204.958 521.52 186.877 522.949 168.762 523.139C166.498 523.148 164.234 523.232 161.97 523.179L155.179 523.026C150.65 522.994 146.13 522.672 141.61 522.404C137.084 522.211 132.582 521.688 128.075 521.248C125.812 520.998 123.595 520.86 121.286 520.501C119 520.147 116.737 519.659 114.509 519.039C105.508 516.611 97.3437 511.767 90.9005 505.031C84.4486 498.258 80.3687 489.575 79.2735 480.286C77.2905 462.281 76.4942 444.253 76.0426 426.215C75.6488 408.178 75.5994 390.142 75.8945 372.109C75.895 372.062 75.9142 372.017 75.9479 371.984C75.9815 371.951 76.027 371.933 76.0741 371.933C76.1213 371.933 76.1663 371.953 76.1994 371.986C76.2324 372.02 76.2507 372.065 76.2503 372.113C76.3258 390.138 76.7411 408.156 77.496 426.167C78.2936 444.158 79.278 462.181 81.5148 479.995C82.6633 488.752 86.6271 496.9 92.8091 503.209C98.9692 509.522 106.736 514.035 115.272 516.26C117.393 516.831 119.545 517.276 121.719 517.594C123.869 517.912 126.158 518.041 128.377 518.266C132.848 518.663 137.31 519.145 141.799 519.297C146.281 519.524 150.761 519.805 155.251 519.798L161.983 519.892C164.226 519.925 166.471 519.822 168.714 519.794L175.445 519.657L182.169 519.309C186.654 519.132 191.127 518.738 195.601 518.378C200.081 518.088 204.535 517.491 209.003 517.057C213.457 516.502 217.914 515.952 222.355 515.287C231.243 513.998 240.082 512.381 248.89 510.605C253.293 509.707 257.684 508.753 262.078 507.768C266.456 506.796 270.888 505.736 275.379 504.929C284.292 503.334 293.249 501.962 302.281 501.029C311.354 499.953 320.504 499.685 329.624 500.225L333.08 500.602L336.54 501.186L339.773 501.768C340.855 501.894 341.934 502.079 343.02 502.159C347.347 502.582 351.712 502.404 355.99 501.63C358.099 501.241 360.169 500.661 362.172 499.896C363.146 499.524 364.091 499.084 365.002 498.579C365.416 498.342 365.816 498.081 366.2 497.797C366.575 497.497 366.961 497.152 367.352 496.784C370.47 493.769 373.46 490.337 376.371 486.973C376.541 486.776 376.753 486.62 376.991 486.515C377.229 486.41 377.487 486.36 377.747 486.369L377.834 486.372C379.283 486.478 380.739 486.3 382.12 485.848C383.516 485.336 384.815 484.59 385.96 483.642C387.135 482.629 388.187 481.481 389.093 480.221C390.011 478.962 390.798 477.612 391.44 476.192L391.444 476.182C391.564 475.909 391.753 475.671 391.992 475.492C392.231 475.313 392.513 475.199 392.809 475.161C395.501 474.916 398.124 474.172 400.544 472.968C401.657 472.415 402.64 471.632 403.428 470.672C404.217 469.712 404.793 468.595 405.119 467.396C405.439 466.186 405.507 464.923 405.316 463.686C405.197 462.542 404.797 461.445 404.15 460.493C403.896 460.174 403.533 459.959 403.131 459.888C402.561 459.779 401.978 459.747 401.399 459.794C400.084 459.861 398.644 460.088 397.216 460.301C394.343 460.749 391.426 461.211 388.505 461.579C385.516 462.047 382.483 462.184 379.463 461.99C373.304 461.56 367.39 459.407 362.397 455.776L362.37 455.757C362.174 455.612 362.022 455.416 361.929 455.191C361.837 454.965 361.808 454.719 361.846 454.478C361.884 454.237 361.987 454.012 362.145 453.825C362.302 453.639 362.508 453.5 362.739 453.423C364.142 453.004 365.627 452.944 367.059 453.249C368.31 453.452 369.546 453.735 370.76 454.095L374.228 455.182C375.327 455.526 376.447 455.795 377.582 455.987C379.769 456.36 382.15 456.319 383.32 455.099C384.554 453.896 384.63 451.518 384.573 449.142C384.584 448.872 384.573 448.601 384.541 448.332C384.538 448.135 384.495 447.941 384.414 447.763C384.256 447.335 384.016 446.942 383.708 446.607C382.982 445.818 382.13 445.154 381.188 444.643C379.24 443.517 377.089 442.786 374.858 442.492C372.373 442.223 369.927 441.674 367.566 440.856C365.235 440.151 362.931 439.397 360.633 438.625L353.766 436.245C351.543 435.62 349.252 435.27 346.945 435.204C342.233 435.151 337.559 436.042 333.197 437.823C324.384 441.552 316.437 447.06 309.852 454.002L309.828 454.026C309.756 454.099 309.671 454.156 309.577 454.195C309.484 454.234 309.383 454.255 309.281 454.254L259.81 454.087C243.32 454.068 226.829 453.978 210.339 454.059L160.868 454.194C160.335 454.186 159.88 454.227 159.281 454.179C158.961 454.151 158.644 454.099 158.333 454.023L157.466 453.621C156.523 452.934 155.764 452.025 155.257 450.975C154.352 449.039 153.712 446.989 153.355 444.882C152.645 440.777 152.23 436.626 152.115 432.462C151.86 424.182 152.042 415.895 152.661 407.634L153.41 408.732C144.923 406.274 136.575 403.361 128.402 400.006C120.238 396.604 112.287 392.714 104.59 388.356C96.8598 384.11 89.5016 379.177 81.6611 375.695L78.6884 374.517L75.6589 373.568C74.6251 373.301 73.5886 373.044 72.5706 372.865C71.6456 372.666 70.6985 372.59 69.7537 372.639C69.6274 372.672 69.4068 372.698 69.4374 372.716L69.4167 372.71C69.4483 372.702 69.4767 372.685 69.4982 372.661C69.5131 372.613 69.6167 372.541 69.6349 372.436C69.6886 372.014 69.633 372.41 69.8679 372.732C70.3761 373.549 70.9775 374.305 71.6599 374.984C73.1499 376.492 74.738 377.901 76.4138 379.2L76.4284 379.211C76.6957 379.421 76.8867 379.713 76.9721 380.042C77.0575 380.371 77.0326 380.72 76.9012 381.033C76.7697 381.347 76.539 381.609 76.2445 381.779C75.9499 381.949 75.6077 382.017 75.2703 381.974C71.7172 381.54 68.3822 380.028 65.7137 377.642C64.3634 376.439 63.2406 375.004 62.3988 373.403C61.94 372.542 61.6144 371.615 61.433 370.656C61.3148 370.033 61.3312 369.392 61.4812 368.776C61.6043 368.318 61.8334 367.895 62.1501 367.542C62.1853 367.443 62.1618 367.533 62.2763 367.326C62.9747 366.121 63.6826 364.594 64.3509 363.169L66.3335 358.778L70.1707 349.901C71.4302 346.916 72.7135 343.981 73.7942 340.995C74.9182 338.004 75.7544 334.975 76.7732 331.858L79.7342 322.574C80.7687 319.495 81.9947 316.477 83.1159 313.427C87.6762 301.198 93.6934 289.562 101.037 278.772C102.909 276.084 104.916 273.492 107.05 271.006C109.225 268.539 111.552 266.211 114.019 264.036C114.64 263.494 115.24 262.93 115.879 262.409L117.863 260.921C119.179 259.915 120.554 258.99 121.982 258.15C124.861 256.349 128.022 255.044 131.332 254.289L131.107 254.343C136.695 252.748 142.451 251.816 148.257 251.568C153.99 251.191 159.721 251.036 165.446 251.061C176.898 251.085 188.319 251.665 199.724 252.575L199.285 252.723C201.517 250.463 203.562 248.027 205.402 245.438L208.237 241.549C209.13 240.143 210.308 238.941 211.696 238.021C213.099 237.116 214.697 236.557 216.358 236.39C217.986 236.197 219.632 236.229 221.251 236.486C224.468 237.022 227.54 238.211 230.279 239.981C230.318 240.006 230.346 240.046 230.357 240.092C230.367 240.137 230.359 240.185 230.334 240.225C230.309 240.265 230.27 240.293 230.224 240.304C230.179 240.315 230.131 240.307 230.091 240.283L230.079 240.275Z" fill="white"/>
<path d="M146.558 270.445C148.775 271.073 150.787 272.276 152.391 273.931C154.043 275.56 155.365 277.493 156.283 279.624C157.203 281.743 157.72 284.014 157.808 286.323C157.852 287.459 157.794 288.596 157.634 289.722C157.44 290.839 157.145 291.935 156.752 292.998C156.357 291.898 156.179 290.837 155.889 289.799C155.578 288.768 155.392 287.742 155.046 286.761C154.494 284.813 153.818 282.902 153.021 281.04C152.222 279.189 151.287 277.399 150.225 275.685C149.112 273.864 147.888 272.114 146.558 270.445ZM154.316 313.059C155.001 320.953 155.336 328.844 155.546 336.734C155.779 344.625 155.804 352.514 155.789 360.403C155.707 368.292 155.581 376.18 155.247 384.067C154.936 391.954 154.498 399.84 153.707 407.724C153.018 399.831 152.681 391.939 152.472 384.049C152.239 376.158 152.214 368.269 152.234 360.38C152.32 352.492 152.447 344.604 152.781 336.717C153.094 328.83 153.529 320.943 154.316 313.059ZM317.136 260.913C323.649 264.987 330.043 269.231 336.318 273.645C339.459 275.848 342.573 278.092 345.662 280.375L350.259 283.885C351.066 284.49 351.825 285.154 352.531 285.873L353.623 287.014L354.543 288.179C356.926 291.251 359.099 294.48 361.049 297.843C363.013 301.157 364.925 304.493 366.784 307.851C370.459 314.597 374.243 321.267 378.136 327.862C380.084 331.163 382.068 334.441 384.09 337.698L387.115 342.58C388.011 344.177 389.077 345.672 390.292 347.041C391.581 348.305 393.116 349.557 394.45 351.13C396.032 352.777 396.984 354.927 397.141 357.205C397.021 359.54 396.003 361.739 394.301 363.342C393.573 364.077 392.808 364.774 392.008 365.431C391.292 366.007 390.597 366.613 389.916 367.238C388.547 368.495 387.288 369.815 386.008 371.235C384.704 372.675 383.354 374.073 381.984 375.454C379.219 378.215 376.282 380.8 373.192 383.192C370.042 385.631 366.612 387.686 362.976 389.314C361.068 390.121 359.064 390.676 357.013 390.964C354.86 391.283 352.661 391.092 350.595 390.406C350.266 390.307 349.985 390.089 349.807 389.794L349.796 389.775C348.46 387.564 346.999 385.359 345.521 383.201C344.044 381.034 342.497 378.918 340.88 376.855C339.257 374.807 337.523 372.85 335.685 370.993C333.915 369.082 331.748 367.584 329.335 366.602L329.322 366.597C329.28 366.582 329.245 366.552 329.224 366.512C329.203 366.472 329.198 366.426 329.21 366.383C329.222 366.34 329.25 366.302 329.288 366.279C329.326 366.255 329.372 366.247 329.416 366.256C332.052 366.936 334.489 368.231 336.527 370.034C338.618 371.725 340.577 373.572 342.387 375.559C346.026 379.499 349.369 383.701 352.39 388.132L351.592 387.501C354.978 388.192 358.5 387.68 361.55 386.053C364.879 384.466 368.009 382.491 370.873 380.167C373.841 377.864 376.679 375.397 379.374 372.78C380.737 371.476 382.086 370.153 383.391 368.787C384.713 367.397 386.138 365.977 387.629 364.683C388.377 364.032 389.145 363.399 389.937 362.795C390.655 362.195 391.337 361.684 391.938 361.073C393.103 360.07 393.864 358.678 394.079 357.156C393.987 355.577 393.357 354.076 392.294 352.904C391.205 351.503 389.829 350.234 388.493 348.709C388.141 348.311 387.812 347.893 387.506 347.458L386.736 346.154L385.348 343.608L382.637 338.531C380.847 335.14 379.02 331.772 377.154 328.428C373.412 321.744 369.467 315.173 365.194 308.816C360.959 302.468 356.662 296.042 352.073 290.178L351.206 289.094L350.301 288.169C349.68 287.505 349.007 286.893 348.288 286.337L343.817 282.786L334.79 275.699C328.758 270.98 322.804 266.147 316.927 261.201C316.892 261.172 316.87 261.131 316.864 261.086C316.859 261.041 316.87 260.996 316.897 260.959C316.924 260.923 316.963 260.898 317.007 260.889C317.052 260.88 317.098 260.889 317.136 260.913L317.136 260.913Z" fill="white"/>
<path d="M340.944 318.335C337.831 330.033 334.891 341.759 332.436 353.532C331.172 359.367 330.29 365.278 329.795 371.228C329.627 374.089 329.61 377.248 329.358 380.309C329.114 383.431 328.591 386.525 327.797 389.555C325.928 395.543 322.933 401.119 318.973 405.985C317.144 408.425 315.205 410.784 313.39 413.154C312.517 414.331 311.631 415.499 310.847 416.759C310.006 417.974 309.246 419.252 308.489 420.533C305.511 425.738 302.848 431.116 300.515 436.64C298.053 442.142 295.93 447.796 293.856 453.484C296.497 441.593 300.597 430.073 306.063 419.186C307.474 416.434 309.09 413.792 310.898 411.282C312.691 408.803 314.529 406.438 316.26 403.991C319.902 399.413 322.654 394.193 324.372 388.601C325.135 385.786 325.647 382.909 325.9 380.004C326.183 377.04 326.173 374.147 326.446 370.978C327.081 364.885 328.182 358.849 329.738 352.924C332.724 341.165 336.467 329.611 340.944 318.335ZM392.986 362.37C396.899 365.409 400.607 368.646 404.374 371.661C405.326 372.394 406.275 373.116 407.206 373.75L408.756 374.673C409.326 375.033 409.869 375.412 410.386 375.809C412.383 377.418 414.22 379.215 415.872 381.176C419.153 385.06 421.733 389.484 423.497 394.252C425.344 398.974 425.866 404.111 425.007 409.108C424.487 404.308 423.116 399.639 420.957 395.321C418.853 391.064 416.234 387.082 413.157 383.465C411.675 381.649 410.035 379.968 408.255 378.442C407.825 378.06 407.381 377.708 406.936 377.382L405.394 376.312C404.381 375.527 403.42 374.675 402.519 373.764C398.997 370.268 395.805 366.454 392.986 362.37ZM353.719 389.484C357.217 394.174 359.607 399.595 360.71 405.341C360.834 406.073 360.939 406.812 361.038 407.554C361.107 408.272 361.114 409.121 361.204 409.737C361.342 410.994 361.642 412.228 362.096 413.408C363.088 415.929 364.359 418.33 365.887 420.567C367.399 422.884 369.063 425.098 370.868 427.195C371.739 428.276 372.703 429.279 373.629 430.317C374.634 431.273 375.55 432.336 376.585 433.263C380.53 437.268 385.255 440.421 390.468 442.526C387.565 442.231 384.74 441.408 382.133 440.098C379.527 438.771 377.062 437.185 374.773 435.365C370.166 431.734 366.163 427.397 362.912 422.514C361.261 420.015 359.921 417.324 358.92 414.501C358.437 412.988 358.161 411.418 358.098 409.832C358.051 409.03 358.072 408.451 358.072 407.747L357.97 405.71C357.332 400.126 355.901 394.663 353.719 389.484ZM392.986 435.119C393.341 432.828 394.135 430.627 395.325 428.638C396.492 426.626 397.91 424.77 399.544 423.115C401.198 421.49 403.033 420.06 405.012 418.853C405.996 418.253 407.012 417.71 408.056 417.224C409.121 416.786 410.187 416.36 411.273 416.005C409.385 417.314 407.525 418.572 405.759 419.941C403.998 421.292 402.322 422.751 400.74 424.309C399.181 425.88 397.741 427.564 396.431 429.348C395.095 431.154 393.941 433.087 392.986 435.119Z" fill="white"/>
<path d="M399.406 439.179C403.357 432.862 407.686 426.79 412.368 420.994C414.71 418.09 417.143 415.253 419.668 412.483C422.237 409.729 424.958 407.119 427.817 404.668C430.732 402.109 434.012 399.999 437.55 398.407C439.462 397.602 441.522 397.208 443.597 397.25C445.723 397.304 447.801 397.899 449.635 398.977C453.05 401.176 455.663 404.419 457.086 408.223C457.827 410.033 458.363 411.92 458.683 413.849C459.079 415.846 459.039 417.905 458.565 419.885L457.995 418.639C461.996 420.679 465.85 422.89 469.67 425.19C473.484 427.492 477.247 429.88 480.874 432.476C484.579 435 488.012 437.903 491.118 441.136C492.689 442.804 494.021 444.681 495.078 446.714C496.239 448.88 496.515 451.411 495.846 453.775L495.866 453.71C495.361 455.668 494.279 457.428 492.759 458.76C491.932 459.422 490.971 459.895 489.942 460.146C488.914 460.396 487.843 460.419 486.804 460.211C484.878 459.819 483.047 459.055 481.413 457.962C479.843 456.936 478.36 455.783 476.98 454.514L479.362 453.485C479.296 455.923 478.774 458.327 477.823 460.573C476.892 462.842 475.498 464.892 473.73 466.591C471.959 468.265 469.884 469.585 467.617 470.48C466.658 470.895 465.724 471.365 464.818 471.886C464.402 472.124 464.002 472.389 463.62 472.681C463.477 472.79 463.342 472.912 463.219 473.043C463.123 473.125 463.149 473.222 463.235 472.905L462.631 471.203C463.739 472.165 464.656 473.328 465.332 474.63C466.053 475.967 466.431 477.462 466.431 478.981C466.431 480.501 466.053 481.996 465.332 483.333C464.676 484.604 463.813 485.756 462.777 486.742C460.697 488.7 458.055 489.957 455.222 490.336C453.908 490.494 452.583 490.556 451.259 490.52C449.834 490.518 448.418 490.293 447.063 489.853L448.321 489.858C444.179 491.14 439.923 492.017 435.611 492.476C431.309 492.916 426.973 492.892 422.676 492.406C420.44 492.194 418.244 491.676 416.149 490.866C414.984 490.416 413.93 489.72 413.059 488.826C412.188 487.931 411.52 486.859 411.101 485.683C410.485 483.329 410.769 480.829 411.896 478.672C412.399 477.627 413.051 476.661 413.83 475.803C414.661 474.765 415.855 474.081 417.17 473.887L417.023 473.904C417.643 473.812 418.269 473.759 418.896 473.748C419.512 473.734 420.128 473.756 420.742 473.815C421.997 473.916 423.223 474.244 424.361 474.781L423.445 475.852C422.88 474.849 422.438 473.781 422.129 472.671C421.811 471.567 421.668 470.42 421.707 469.272C421.748 468.112 422.076 466.981 422.661 465.979C423.255 465.012 424.063 464.194 425.022 463.588C425.061 463.562 425.109 463.552 425.156 463.561C425.202 463.571 425.243 463.598 425.269 463.638C425.292 463.675 425.301 463.721 425.294 463.765C425.287 463.809 425.264 463.848 425.229 463.877C424.396 464.523 423.722 465.352 423.258 466.299C422.82 467.231 422.613 468.254 422.655 469.283C422.704 470.316 422.915 471.336 423.28 472.304C423.635 473.271 424.103 474.193 424.675 475.05C424.762 475.178 424.806 475.33 424.8 475.485C424.795 475.639 424.741 475.788 424.645 475.91C424.549 476.032 424.418 476.12 424.269 476.162C424.12 476.204 423.961 476.197 423.816 476.143L423.759 476.121C422.752 475.753 421.694 475.55 420.623 475.52C420.077 475.5 419.531 475.513 418.987 475.556C418.453 475.598 417.922 475.673 417.398 475.78L417.327 475.791L417.25 475.798C416.504 476.056 415.859 476.542 415.405 477.187C414.814 477.923 414.332 478.739 413.974 479.611C413.214 481.254 413.086 483.118 413.613 484.849C413.945 485.639 414.443 486.348 415.073 486.929C415.704 487.509 416.452 487.947 417.266 488.213C419.12 488.837 421.049 489.209 423.002 489.32C427.069 489.631 431.158 489.506 435.198 488.946C439.232 488.447 443.209 487.564 447.075 486.309C447.468 486.177 447.894 486.174 448.289 486.299L448.334 486.314C450.424 486.773 452.578 486.861 454.698 486.571C456.745 486.308 458.657 485.409 460.167 484.003C461.649 482.713 462.578 480.904 462.762 478.949C462.77 478.013 462.551 477.09 462.125 476.257C461.687 475.381 461.098 474.588 460.385 473.916L460.258 473.799C460.043 473.602 459.886 473.351 459.802 473.072C459.718 472.793 459.711 472.496 459.781 472.214C459.921 471.625 460.221 471.087 460.649 470.659C460.91 470.387 461.194 470.137 461.497 469.913C462.009 469.535 462.546 469.192 463.104 468.886C464.143 468.314 465.215 467.802 466.313 467.353C468.227 466.654 469.988 465.591 471.498 464.222C472.982 462.845 474.178 461.187 475.019 459.345C475.873 457.499 476.387 455.514 476.534 453.484L476.541 453.379C476.557 453.112 476.65 452.854 476.808 452.638C476.966 452.421 477.183 452.254 477.433 452.157C477.683 452.06 477.955 452.036 478.218 452.089C478.481 452.142 478.724 452.269 478.917 452.455C480.146 453.661 481.466 454.769 482.867 455.771C484.176 456.759 485.664 457.486 487.248 457.911C487.968 458.105 488.722 458.137 489.455 458.004C490.189 457.871 490.884 457.576 491.489 457.141C492.735 456.138 493.654 454.786 494.129 453.259L494.149 453.194C494.773 451.258 494.62 449.156 493.724 447.33C492.835 445.37 491.634 443.566 490.169 441.989C487.184 438.76 483.858 435.865 480.248 433.354C472.97 428.342 465.218 424.055 457.105 420.553C456.886 420.455 456.708 420.285 456.601 420.071C456.494 419.857 456.465 419.613 456.518 419.379L456.535 419.306C456.803 417.638 456.724 415.934 456.303 414.298C455.918 412.581 455.343 410.913 454.587 409.323C453.231 406.185 450.957 403.531 448.064 401.709C446.636 400.934 445.048 400.498 443.424 400.435C441.8 400.372 440.184 400.684 438.7 401.347C435.448 402.782 432.42 404.679 429.71 406.979C426.864 409.278 424.148 411.732 421.572 414.329C418.948 416.904 416.41 419.583 413.944 422.333C409.043 427.86 404.273 433.537 399.699 439.38C399.684 439.399 399.667 439.415 399.647 439.427C399.627 439.438 399.604 439.446 399.581 439.45C399.558 439.453 399.534 439.451 399.512 439.446C399.489 439.44 399.468 439.43 399.449 439.416C399.414 439.388 399.391 439.349 399.383 439.305C399.375 439.262 399.383 439.217 399.406 439.179Z" fill="white"/>
<path d="M435.122 412.087C435.141 415.379 435.56 418.656 436.37 421.847C436.79 423.355 437.458 424.783 438.347 426.073C439.187 427.285 440.452 428.138 441.891 428.463C443.375 428.819 444.925 428.801 446.401 428.412C447.933 428.057 449.385 427.418 450.681 426.529C453.376 424.657 455.704 422.307 457.55 419.595C456.242 422.751 454.157 425.525 451.488 427.658C450.112 428.803 448.498 429.625 446.762 430.063C445.027 430.5 443.215 430.543 441.461 430.187C439.629 429.741 438.031 428.622 436.984 427.053C436.03 425.565 435.366 423.909 435.026 422.174C434.418 418.836 434.451 415.413 435.122 412.087ZM461.305 443.54C464.686 443.662 467.974 444.676 470.837 446.479C472.28 447.351 473.618 448.388 474.823 449.568C476.029 450.734 477.079 452.05 477.948 453.484C476.683 452.388 475.466 451.301 474.172 450.315C472.9 449.317 471.567 448.398 470.181 447.564C468.801 446.719 467.37 445.964 465.894 445.302C464.403 444.618 462.87 444.03 461.305 443.54ZM424.06 475.45C424.845 476.243 425.749 476.907 426.74 477.42C427.702 477.979 428.68 478.503 429.668 479.015C431.645 480.031 433.652 481.005 435.67 481.961C439.692 483.913 443.764 485.78 447.698 488.083C443.278 487.054 438.985 485.538 434.899 483.563C432.843 482.585 430.858 481.462 428.961 480.203C426.968 479.038 425.286 477.407 424.06 475.45ZM455.419 451.251C456.115 451.632 456.723 452.155 457.203 452.786C457.481 453.121 457.68 453.514 457.789 453.935C457.897 454.357 457.911 454.797 457.83 455.225C457.578 456.073 457.049 456.813 456.328 457.328C455.678 457.827 454.966 458.242 454.21 458.561C453.863 458.707 453.528 458.878 453.206 459.071C452.9 459.221 452.606 459.391 452.324 459.581L451.556 460.254C451.325 460.505 451.112 460.772 450.92 461.055C450.109 462.183 449.623 463.513 449.516 464.899C449.313 466.266 449.519 467.663 450.107 468.914C450.695 470.165 451.64 471.214 452.822 471.931C453.113 472.128 453.435 472.275 453.775 472.365C454.112 472.475 454.439 472.625 454.786 472.717C455.506 472.856 456.235 472.944 456.967 472.98C457.72 473 458.474 472.974 459.225 472.901C459.972 472.77 460.732 472.658 461.508 472.559C460.792 472.841 460.061 473.113 459.317 473.364C458.555 473.574 457.781 473.737 456.999 473.851C456.194 473.919 455.384 473.923 454.578 473.863C454.171 473.793 453.769 473.7 453.372 473.584C452.96 473.507 452.563 473.366 452.194 473.168C450.623 472.456 449.35 471.216 448.597 469.665C447.869 468.125 447.575 466.416 447.748 464.721C447.92 463.027 448.552 461.411 449.575 460.05C449.835 459.71 450.121 459.391 450.429 459.095L451.444 458.3C452.157 457.889 452.909 457.547 453.689 457.28C455.048 456.97 456.234 456.145 456.999 454.98C457.113 454.661 457.154 454.322 457.121 453.985C457.088 453.649 456.98 453.324 456.806 453.034C456.443 452.369 455.975 451.767 455.419 451.251Z" fill="white"/>
<path d="M441.008 417.159C441.215 418.094 441.5 419.009 441.861 419.896C442.16 420.739 442.693 421.479 443.396 422.031C443.748 422.28 444.149 422.451 444.572 422.531C444.996 422.611 445.432 422.599 445.85 422.494C446.308 422.411 446.76 422.295 447.202 422.147C447.648 421.977 448.085 421.779 448.559 421.623C448.188 421.941 447.78 422.218 447.38 422.522C446.935 422.76 446.472 422.963 445.995 423.128C445.483 423.303 444.937 423.356 444.401 423.285C443.865 423.213 443.352 423.019 442.904 422.716C442.086 422.048 441.506 421.134 441.25 420.11C440.98 419.151 440.897 418.149 441.008 417.159ZM442.632 416.003C443.586 415.733 444.574 415.601 445.566 415.61C446.576 415.615 447.58 415.775 448.542 416.083C449.544 416.412 450.419 417.046 451.043 417.895C451.582 418.778 451.767 419.832 451.562 420.845C451.448 419.915 451.089 419.032 450.522 418.286C449.912 417.617 449.129 417.13 448.26 416.88C446.433 416.328 444.539 416.033 442.632 416.003ZM456.23 469.515C456.582 468.792 457.118 468.176 457.785 467.728C458.14 467.482 458.542 467.31 458.965 467.223C459.388 467.135 459.824 467.134 460.248 467.219C461.057 467.478 461.767 467.98 462.282 468.656C462.493 469 462.714 469.332 462.896 469.679C463.031 470.054 463.189 470.41 463.295 470.785C462.774 470.193 462.314 469.602 461.794 469.087C461.312 468.596 460.712 468.235 460.052 468.04C459.393 467.885 458.699 467.975 458.101 468.293C457.429 468.62 456.8 469.03 456.23 469.515ZM425.007 473.455C425.053 472.062 425.409 470.698 426.047 469.459C426.216 469.112 426.454 468.803 426.747 468.551C427.04 468.299 427.381 468.109 427.75 467.994C428.139 467.919 428.54 467.933 428.923 468.035C429.307 468.137 429.662 468.323 429.963 468.581C430.548 469.024 431.046 469.572 431.429 470.197C431.821 470.86 431.953 471.644 431.8 472.399C431.59 473.079 431.234 473.705 430.755 474.232C430.277 474.76 429.689 475.175 429.033 475.451C430.094 474.682 430.848 473.56 431.159 472.287C431.214 471.694 431.077 471.098 430.766 470.589C430.416 470.072 429.975 469.623 429.465 469.264C429.264 469.066 429.022 468.916 428.755 468.826C428.488 468.735 428.204 468.706 427.925 468.742C427.369 468.926 426.898 469.303 426.595 469.804C425.896 470.94 425.361 472.169 425.007 473.455ZM403.311 463.153C403.228 464.543 402.838 465.898 402.167 467.12C401.989 467.463 401.743 467.765 401.444 468.01C401.144 468.254 400.798 468.435 400.427 468.541C400.035 468.605 399.635 468.58 399.254 468.469C398.874 468.357 398.524 468.161 398.23 467.895C397.656 467.438 397.173 466.877 396.806 466.242C396.432 465.569 396.32 464.781 396.493 464.031C396.72 463.356 397.093 462.74 397.585 462.226C398.077 461.711 398.676 461.311 399.339 461.053C398.258 461.794 397.475 462.895 397.131 464.159C397.06 464.751 397.182 465.35 397.479 465.867C397.815 466.393 398.244 466.853 398.745 467.226C398.94 467.429 399.179 467.585 399.444 467.683C399.708 467.78 399.991 467.816 400.272 467.788C400.832 467.618 401.313 467.254 401.629 466.761C402.357 465.643 402.923 464.429 403.311 463.153ZM416.043 486.155C416.406 485.195 416.917 484.297 417.557 483.494C417.883 483.069 418.275 482.697 418.717 482.393C418.971 482.204 419.267 482.079 419.58 482.031C419.893 481.982 420.213 482.01 420.512 482.113C421.042 482.414 421.441 482.903 421.63 483.482C421.82 483.977 421.94 484.497 421.987 485.025C422.112 486.045 422.066 487.078 421.853 488.083C421.743 487.093 421.574 486.111 421.347 485.141C421.239 484.679 421.097 484.225 420.921 483.784C420.719 483.396 420.477 482.977 420.171 482.886C419.593 482.57 418.694 483.284 418.035 483.931C417.334 484.638 416.669 485.381 416.043 486.155Z" fill="white"/>
<path d="M392.979 439.283L385.794 447.196C385.794 447.196 385.847 457.314 380.725 457.741C380.725 457.741 378.129 460.088 379.978 460.568C381.632 460.977 387.59 459.501 390.169 459.803C390.169 459.803 402.388 457.385 404.469 458.701C405.095 459.125 405.621 459.68 406.011 460.328C406.401 460.976 406.645 461.701 406.727 462.453L407.723 462.346L446.263 464.64L462.981 439.283L392.979 439.283ZM442.635 457.029L388.551 456.123L395.611 444.76H449.803L442.635 457.029ZM348.658 457.745C350.743 456.226 353.1 455.123 355.601 454.494C358.144 453.84 360.777 453.613 363.394 453.821C363.628 453.84 363.846 453.951 363.999 454.13C364.152 454.308 364.228 454.541 364.211 454.775C364.193 455.01 364.083 455.228 363.905 455.382C363.727 455.536 363.495 455.614 363.26 455.597C363.223 455.594 363.187 455.589 363.15 455.582C360.722 455.103 358.23 455.03 355.778 455.365C353.274 455.694 350.857 456.503 348.658 457.745ZM363.272 476.114C368.276 476.206 373.279 476.38 378.285 476.856C379.523 476.967 380.818 477.168 382.014 477.308C383.222 477.439 384.439 477.463 385.652 477.38C388.053 477.217 390.409 476.652 392.623 475.708L392.682 475.682C392.898 475.587 393.143 475.581 393.363 475.667C393.583 475.752 393.76 475.921 393.855 476.137C393.95 476.353 393.956 476.598 393.871 476.818C393.785 477.038 393.616 477.215 393.4 477.31L393.351 477.331C390.899 478.224 388.313 478.691 385.704 478.713C384.416 478.725 383.129 478.623 381.859 478.408C380.581 478.181 379.416 477.925 378.17 477.738C373.247 476.973 368.258 476.502 363.272 476.114ZM367.128 489.912C368.825 489.301 370.539 488.732 372.272 488.205C374.024 487.652 375.811 487.214 377.62 486.895C377.854 486.857 378.093 486.914 378.285 487.052C378.477 487.191 378.606 487.4 378.644 487.634C378.682 487.868 378.625 488.107 378.486 488.299C378.348 488.491 378.138 488.62 377.905 488.657C377.858 488.665 377.81 488.669 377.762 488.669H377.745C375.976 488.689 374.21 488.824 372.458 489.074C370.68 489.304 368.901 489.588 367.128 489.912ZM373.826 444.982C374.737 445.926 375.807 446.701 376.987 447.273C378.183 447.825 379.438 448.241 380.727 448.512C380.046 448.671 379.342 448.707 378.647 448.62C377.944 448.526 377.259 448.328 376.615 448.032C375.982 447.705 375.406 447.279 374.907 446.771C374.409 446.269 374.038 445.656 373.826 444.982ZM400.974 476.425C400.502 476.427 400.049 476.242 399.714 475.91C399.379 475.578 399.189 475.127 399.187 474.655C399.185 474.184 399.37 473.731 399.702 473.396C400.034 473.061 400.485 472.871 400.957 472.869L423.486 472.657C423.721 472.65 423.955 472.691 424.174 472.776C424.392 472.862 424.591 472.991 424.759 473.155C424.927 473.32 425.059 473.516 425.149 473.733C425.239 473.95 425.284 474.183 425.281 474.418C425.284 474.651 425.24 474.883 425.153 475.1C425.065 475.317 424.936 475.514 424.772 475.681C424.609 475.847 424.414 475.98 424.199 476.072C423.984 476.163 423.753 476.211 423.519 476.213L400.99 476.425H400.974ZM462.881 475.849C462.409 475.849 461.957 475.662 461.623 475.329C461.289 474.996 461.101 474.543 461.101 474.072C461.101 473.6 461.288 473.148 461.621 472.814C461.954 472.48 462.407 472.293 462.878 472.292L524.98 472.211H524.983C525.454 472.21 525.907 472.397 526.241 472.731C526.575 473.064 526.762 473.516 526.763 473.988C526.763 474.459 526.576 474.912 526.243 475.245C525.909 475.579 525.457 475.767 524.985 475.767L462.883 475.849H462.881ZM875.161 475.3C874.689 475.3 874.237 475.113 873.903 474.78C873.569 474.447 873.382 473.994 873.381 473.523C873.381 473.051 873.568 472.599 873.902 472.265C874.235 471.932 874.687 471.744 875.159 471.744L932.241 471.674H932.242C932.714 471.674 933.166 471.861 933.5 472.194C933.834 472.528 934.022 472.98 934.022 473.452C934.022 473.923 933.835 474.375 933.501 474.709C933.168 475.043 932.716 475.23 932.244 475.231L875.163 475.3H875.161ZM550.057 474.383H545.835C545.722 474.384 545.614 474.34 545.533 474.26C545.453 474.182 545.407 474.074 545.405 473.961C545.404 473.906 545.415 473.852 545.435 473.8C545.456 473.749 545.486 473.703 545.525 473.664C545.564 473.624 545.61 473.593 545.661 473.572C545.711 473.55 545.766 473.539 545.821 473.539H550.057C550.113 473.539 550.168 473.55 550.22 473.571C550.271 473.592 550.318 473.623 550.357 473.662C550.397 473.701 550.428 473.748 550.45 473.799C550.471 473.851 550.482 473.906 550.482 473.961C550.482 474.017 550.471 474.072 550.45 474.123C550.428 474.175 550.397 474.221 550.357 474.261C550.318 474.3 550.271 474.331 550.22 474.352C550.168 474.373 550.113 474.384 550.057 474.383ZM1.78677 480.146C1.31509 480.149 0.861847 479.963 0.526765 479.632C0.191683 479.3 0.00220781 478.848 1.91721e-05 478.377C-0.00216947 477.905 0.183109 477.452 0.515095 477.117C0.847082 476.782 1.29859 476.592 1.77027 476.59L80.0732 475.863C80.5409 475.871 80.9877 476.058 81.3217 476.385C81.6556 476.713 81.8512 477.156 81.8682 477.623C81.8704 477.857 81.8266 478.089 81.7393 478.305C81.6519 478.522 81.5228 478.719 81.3591 478.886C81.1955 479.053 81.0007 479.186 80.7857 479.277C80.5707 479.368 80.3398 479.417 80.1062 479.419L1.80327 480.146H1.78677ZM425.357 184.818L404.587 185.592C397.773 185.798 391.035 185.963 384.335 186.088C377.646 186.181 370.978 186.287 364.339 186.213C357.695 186.163 351.053 185.866 344.344 185.68L345.332 184.693C345.225 188.525 345.051 192.357 344.999 196.189C344.905 200.021 344.902 203.853 344.879 207.685C344.874 215.349 345.035 223.014 345.251 230.677L344.344 229.77L360.919 229.31C361.088 229.305 361.256 229.334 361.414 229.395C361.572 229.455 361.716 229.547 361.838 229.664L361.887 229.711L368.217 235.797H366.04L372.161 229.502C372.309 229.35 372.485 229.228 372.68 229.145C372.874 229.061 373.084 229.017 373.296 229.015L373.338 229.015C382.029 228.943 390.719 228.765 399.41 228.781C403.756 228.759 408.101 228.777 412.447 228.834L425.483 228.999L423.804 230.677C423.924 223.208 424.139 215.738 424.448 208.114L425.357 184.818ZM425.609 184.567L426.518 207.256C426.827 214.96 427.042 222.818 427.162 230.678C427.169 231.116 427.001 231.539 426.695 231.854C426.39 232.169 425.972 232.349 425.534 232.356H425.529L425.483 232.356L412.447 232.521C408.101 232.573 403.756 232.591 399.41 232.575C390.719 232.591 382.029 232.412 373.338 232.341L374.514 231.854L368.217 237.974L368.18 238.01C368.038 238.148 367.87 238.257 367.686 238.33C367.502 238.403 367.305 238.439 367.107 238.437C366.908 238.434 366.713 238.392 366.531 238.313C366.349 238.235 366.184 238.121 366.046 237.979L366.04 237.974L359.952 231.645L360.919 232.045L344.344 231.585L344.293 231.584C344.06 231.577 343.838 231.478 343.677 231.308C343.516 231.138 343.43 230.912 343.436 230.678C343.653 223.014 343.814 215.349 343.808 207.685C343.786 203.853 343.782 200.021 343.688 196.189C343.637 192.357 343.463 188.525 343.356 184.693C343.353 184.567 343.374 184.441 343.419 184.323C343.464 184.206 343.532 184.098 343.618 184.006C343.705 183.915 343.809 183.841 343.924 183.79C344.039 183.738 344.163 183.71 344.289 183.706L344.344 183.705C351.158 183.52 358.039 183.222 364.919 183.173C371.802 183.098 378.658 183.204 385.492 183.297C392.315 183.422 399.1 183.587 405.809 183.794L425.609 184.567ZM663.98 99.7556L633.41 100.284L603.1 100.666L542.898 101.089L512.949 100.984L483.016 100.605C463.042 100.299 442.966 100.152 422.901 100.203L423.474 99.6301L423.58 122.622L423.845 145.615L422.901 144.671C440.585 144.43 458.269 144.202 475.954 144.08L529.006 143.787C546.69 143.65 564.375 143.808 582.059 143.804C599.743 143.782 617.427 144.014 635.112 144.156L635.136 144.156C635.515 144.16 635.878 144.313 636.144 144.583L642.298 150.846H640.345L646.623 144.708L646.646 144.685C646.763 144.571 646.901 144.481 647.053 144.421C647.205 144.36 647.367 144.33 647.53 144.332L664.105 144.573L663.064 145.615C663.185 138.069 663.284 130.523 663.493 122.876L663.98 99.7556ZM664.231 99.5042L664.718 122.368C664.927 130.05 665.026 137.832 665.147 145.615C665.151 145.887 665.047 146.149 664.858 146.345C664.669 146.54 664.409 146.652 664.138 146.656L664.105 146.657L647.53 146.898L648.437 146.522L642.298 152.799C642.044 153.058 641.699 153.206 641.336 153.21C640.974 153.214 640.625 153.074 640.366 152.82L640.364 152.818L640.344 152.799L634.08 146.647L635.112 147.074C617.427 147.215 599.743 147.448 582.059 147.426C564.375 147.422 546.69 147.579 529.006 147.442L475.953 147.15C458.269 147.027 440.585 146.8 422.901 146.559H422.877C422.755 146.557 422.634 146.531 422.521 146.483C422.408 146.435 422.307 146.365 422.221 146.277C422.136 146.19 422.068 146.086 422.023 145.972C421.977 145.859 421.955 145.737 421.956 145.615L422.221 122.622L422.327 99.6301C422.328 99.4781 422.388 99.3324 422.496 99.2249C422.603 99.1174 422.749 99.0569 422.901 99.0566C443.036 99.1074 463.161 98.9611 483.388 98.6546L513.756 98.276L544.108 98.1701L604.509 98.5933L634.499 98.9749L664.231 99.5042ZM496.498 1.62507C483.455 1.99624 470.636 2.25454 457.889 2.47681C445.116 2.74205 432.495 2.86057 419.879 2.9578C407.267 3.05678 394.74 2.97778 382.185 2.6969C369.624 2.48202 357.006 2.13169 344.344 2.06872L344.914 1.49961C344.908 5.33151 344.854 9.16352 344.896 12.9955L344.966 24.4918C344.976 32.1561 345.163 39.82 345.275 47.4843L344.344 46.5536L360.919 46.2432C361.075 46.2401 361.229 46.2678 361.374 46.3246C361.519 46.3815 361.652 46.4664 361.764 46.5744L361.797 46.607L368.105 52.715H366.151L372.282 46.4294C372.415 46.293 372.573 46.1842 372.748 46.1092C372.923 46.0343 373.112 45.9947 373.302 45.9927L373.338 45.9923L404.159 45.7244C414.433 45.6428 424.707 45.5677 434.98 45.5838C455.528 45.5742 476.076 45.8747 496.623 46.1482L495.287 47.4843L495.833 24.8191L496.498 1.62507ZM496.749 1.37373L497.414 24.1645L497.96 47.4844C497.968 47.8304 497.838 48.1655 497.599 48.4159C497.36 48.6664 497.031 48.8116 496.685 48.8197L496.672 48.8202L496.623 48.8206C476.076 49.0941 455.528 49.3945 434.98 49.385C424.707 49.4015 414.433 49.3259 404.159 49.2447L373.338 48.9765L374.393 48.5397L368.106 54.669L368.077 54.6964C367.819 54.9481 367.472 55.0871 367.111 55.0826C366.75 55.0781 366.406 54.9306 366.154 54.6725L366.151 54.669L360.041 48.3621L360.919 48.7255L344.344 48.4151L344.313 48.4147C344.193 48.4128 344.074 48.3873 343.964 48.3395C343.853 48.2917 343.753 48.2227 343.67 48.1362C343.586 48.0498 343.52 47.9478 343.476 47.8359C343.432 47.7241 343.41 47.6046 343.413 47.4844C343.525 39.82 343.712 32.1561 343.721 24.4918L343.791 12.9955C343.834 9.16358 343.779 5.33158 343.774 1.49962C343.774 1.34852 343.834 1.20364 343.941 1.09677C344.048 0.98991 344.193 0.9298 344.344 0.929626C357.062 0.86668 369.823 0.516342 382.642 0.301933C395.468 0.0206307 408.32 -0.0579375 421.088 0.0405539C433.852 0.138227 446.611 0.256744 459.218 0.52199C471.85 0.743831 484.411 1.00258 496.749 1.37373Z" fill="white"/>
<path d="M297.109 233.332C296.652 233.805 296.028 234.082 295.371 234.105C294.713 234.082 294.09 233.805 293.633 233.332C293.175 232.859 292.92 232.226 292.92 231.568C292.92 230.91 293.175 230.278 293.633 229.805C294.09 229.332 294.713 229.054 295.371 229.032C296.028 229.054 296.652 229.332 297.109 229.805C297.566 230.278 297.822 230.91 297.822 231.568C297.822 232.226 297.566 232.859 297.109 233.332Z" fill="white"/>
</svg>
