<svg width="849" height="684" viewBox="0 0 849 684" fill="none" xmlns="http://www.w3.org/2000/svg">
<path d="M419.386 206.396C419.282 204.246 418.832 202.121 418.052 200.094C417.305 198.052 416.437 196.05 415.451 194.098C413.46 190.199 411.206 186.421 408.703 182.786C408.631 182.682 408.604 182.556 408.628 182.434C408.651 182.312 408.723 182.202 408.829 182.127L408.839 182.12C412.495 179.363 415.523 175.955 417.746 172.097C420.088 168.273 422.116 164.29 423.813 160.183C427.262 151.952 429.777 143.424 432.543 134.896C432.91 133.831 433.246 132.764 433.662 131.698C434.026 130.561 434.544 129.471 435.203 128.455C436.609 126.497 438.386 124.791 440.446 123.421C444.434 120.813 448.739 118.652 453.273 116.985C457.727 115.256 462.29 113.82 466.833 112.445L470.194 111.399C471.133 111.193 471.975 110.71 472.595 110.022C473.735 108.37 474.329 106.443 474.304 104.48L474.306 104.434C474.315 104.173 474.416 103.921 474.594 103.718C474.772 103.515 475.016 103.372 475.29 103.31L481.042 102.018L483.918 101.372L484.638 101.21C484.887 101.153 484.536 101.214 484.49 101.28C484.449 101.299 484.414 101.327 484.39 101.363C484.383 101.366 484.377 101.369 484.372 101.374C484.484 101.123 484.554 100.857 484.577 100.586C484.712 98.8635 484.665 97.1329 484.436 95.4191C484.246 93.6461 483.969 91.8491 483.664 90.095L484.992 91.1515C481.225 91.1548 477.486 90.5656 473.931 89.4087C472.091 88.7753 470.389 87.8373 468.909 86.6402C467.411 85.4121 466.218 83.8959 465.413 82.1966C462.308 75.2546 464.937 68.0463 465.367 61.8711C465.502 58.4292 466.107 55.0173 467.168 51.7174C468.156 48.5431 468.916 45.3112 469.443 42.0431C469.826 38.6486 470.637 35.3078 471.86 32.0895C473.041 28.8777 474.471 25.7496 476.138 22.7297L476.93 23.9435C475.521 23.922 474.114 23.82 472.717 23.638C471.281 23.4541 469.879 23.0798 468.557 22.5265C467.122 21.9515 465.944 20.9352 465.221 19.6482C464.56 18.2966 464.488 16.7594 465.02 15.3595C465.071 15.221 465.17 15.102 465.301 15.0212C465.432 14.9405 465.589 14.9025 465.746 14.9133L465.77 14.9156C467.177 15.0071 468.579 14.682 469.775 13.987C471.024 13.2339 472.162 12.3334 473.161 11.308C475.207 9.10796 477.445 7.06827 479.851 5.2096C482.433 3.48525 485.36 2.2568 488.46 1.59602C491.489 0.860504 494.586 0.387656 497.71 0.183554C503.98 -0.40693 510.31 0.432278 516.153 2.62851C518.997 3.88549 521.63 5.51941 523.969 7.47924C525.159 8.46743 526.194 9.60607 527.043 10.8618C527.475 11.5081 527.807 12.2078 528.029 12.9402C528.292 13.7191 528.324 14.5497 528.12 15.3438L527.931 14.8072C531.425 17.08 534.627 19.7175 537.474 22.6681C540.41 25.5824 542.733 28.9822 544.322 32.6916C544.719 33.6265 545.025 34.5926 545.237 35.5783C545.339 36.0727 545.498 36.558 545.55 37.06L545.679 38.571C545.745 39.5814 545.708 40.5952 545.57 41.5992C545.469 42.6061 545.147 43.5692 544.944 44.5572C543.719 48.3742 541.934 52.0156 539.638 55.3784C535.106 62.0594 529.854 68.2936 523.963 73.9844L522.863 75.0537C522.495 75.3718 522.155 75.7168 521.846 76.0854C521.317 76.7993 520.932 77.597 520.71 78.4393C520.195 80.286 519.849 82.17 519.677 84.0711C519.301 87.9358 519.167 91.8176 519.277 95.6967L518.232 94.7486L524.516 94.7109C524.794 94.7091 525.062 94.8075 525.264 94.9855C525.467 95.1635 525.587 95.4074 525.6 95.6659L525.602 95.7208C525.814 99.1846 526.628 102.594 528.011 105.816C528.679 107.425 529.513 108.97 530.502 110.43C531.554 111.85 532.733 113.185 534.028 114.42C539.316 119.5 545.284 124.088 551.077 128.834C553.983 131.206 556.885 133.594 559.722 136.077C561.14 137.318 562.531 138.597 563.895 139.915C565.267 141.282 566.504 142.606 567.811 143.88C569.112 145.168 570.49 146.405 571.856 147.726C573.328 149.064 574.607 150.574 575.663 152.217C576.693 153.95 577.332 155.858 577.543 157.828C577.773 159.694 577.823 161.576 577.692 163.451C577.575 165.303 577.415 167.092 577.115 168.936L576.484 171.751C576.204 172.66 575.83 173.529 575.504 174.419C575.186 175.303 574.797 176.163 574.341 176.993C573.909 177.825 573.512 178.681 573.047 179.493C572.049 181.073 571.162 182.732 570.054 184.235C565.783 190.309 561.036 196.082 555.85 201.506C550.77 206.966 545.437 212.198 540.219 217.463C538.928 218.783 537.635 220.102 536.416 221.44C535.785 222.106 535.304 222.782 534.736 223.45C534.253 224.128 533.825 224.838 533.456 225.574C532.721 226.883 532.484 228.384 532.783 229.834C532.985 230.495 533.329 231.11 533.795 231.643C534.277 232.171 534.856 232.615 535.506 232.954L535.573 232.986C535.752 233.075 535.911 233.196 536.04 233.341C536.17 233.487 536.267 233.656 536.326 233.836C536.386 234.017 536.406 234.207 536.387 234.395C536.367 234.584 536.308 234.766 536.212 234.933L536.178 234.991L530.325 244.172C530.181 244.398 529.974 244.582 529.725 244.706C529.477 244.829 529.196 244.887 528.915 244.873L528.86 244.87C526.227 244.649 523.584 245.185 521.289 246.405C520.295 247.008 519.522 247.879 519.074 248.902L518.779 249.705L518.533 250.676C518.379 251.329 518.232 251.99 518.102 252.656C517.079 258 516.498 263.516 516.042 268.977L516.039 269.019C516.014 269.316 515.877 269.595 515.654 269.808C515.43 270.021 515.133 270.154 514.814 270.184C506.55 270.959 498.268 271.6 489.965 271.695C481.666 271.915 473.362 271.64 465.087 271.129C456.809 270.602 448.571 269.624 440.392 268.367C432.195 267.137 424.09 265.423 416.127 263.235L416.108 263.23C416.016 263.203 415.931 263.157 415.861 263.096C415.791 263.034 415.737 262.958 415.703 262.874C414.508 259.78 413.62 256.59 413.048 253.345C412.447 250.128 412.08 246.877 411.949 243.614C411.784 240.345 412.055 237.069 412.756 233.862C413.402 230.659 414.302 227.516 415.257 224.394C415.268 224.358 415.294 224.328 415.329 224.309C415.364 224.291 415.406 224.286 415.444 224.296C415.483 224.306 415.516 224.329 415.537 224.362C415.557 224.394 415.562 224.433 415.552 224.469C413.852 230.728 412.207 237.139 412.786 243.574C413.003 246.793 413.453 249.994 414.134 253.156C414.777 256.304 415.726 259.392 416.967 262.381L416.544 262.021C424.474 264.055 432.535 265.619 440.678 266.706C448.821 267.821 457.013 268.659 465.233 269.047C473.447 269.441 481.68 269.654 489.899 269.346C498.123 269.17 506.316 268.452 514.482 267.605L513.254 268.812C513.655 263.245 514.166 257.727 515.162 252.168C515.29 251.472 515.436 250.776 515.592 250.078L515.846 249.028C515.957 248.656 516.114 248.248 516.253 247.863C516.915 246.302 518.079 244.969 519.585 244.045C521.007 243.191 522.596 242.605 524.261 242.32C525.866 242.023 527.506 241.922 529.14 242.02L527.675 242.717L533.505 233.523L534.176 235.561C533.118 235.051 532.179 234.351 531.412 233.502C530.65 232.644 530.09 231.646 529.769 230.574C529.277 228.481 529.571 226.295 530.601 224.379C531.043 223.487 531.558 222.628 532.142 221.81C532.762 221.063 533.361 220.244 534.006 219.563C535.28 218.157 536.586 216.82 537.89 215.481C543.126 210.174 548.408 204.966 553.422 199.552C558.473 194.215 563.133 188.568 567.371 182.651C568.46 181.195 569.3 179.631 570.271 178.123C570.717 177.354 571.088 176.558 571.502 175.778C571.932 175.013 572.298 174.217 572.596 173.399C572.894 172.592 573.25 171.791 573.507 170.98L574.073 168.527C574.364 166.827 574.538 165.031 574.657 163.301C574.79 161.593 574.758 159.877 574.562 158.174C574.41 156.556 573.902 154.985 573.068 153.558C571.382 150.774 568.334 148.415 565.704 145.732C564.355 144.4 563.066 143.005 561.809 141.742C560.507 140.463 559.161 139.21 557.772 137.983C555 135.528 552.133 133.14 549.251 130.758C543.505 125.965 537.618 121.3 532.222 115.994C530.84 114.64 529.586 113.177 528.475 111.622C527.424 110.031 526.543 108.347 525.844 106.596C524.405 103.118 523.589 99.4444 523.429 95.7209L524.516 96.73L518.232 96.6924H518.207C517.937 96.6904 517.679 96.5898 517.488 96.4122C517.297 96.2347 517.189 95.9945 517.187 95.7435C517.13 91.7825 517.322 87.8217 517.762 83.8816C517.973 81.8772 518.368 79.8933 518.944 77.9517C519.242 76.8911 519.757 75.8937 520.461 75.0139C520.808 74.6153 521.186 74.2411 521.591 73.8942L522.692 72.8519C528.585 67.3075 533.858 61.2225 538.432 54.69C540.712 51.4538 542.501 47.9409 543.749 44.2503C543.951 43.3187 544.278 42.3961 544.384 41.4547C544.528 40.5166 544.576 39.568 544.528 38.6215L544.423 37.2007C544.378 36.7281 544.226 36.2668 544.133 35.7995C543.938 34.8616 543.652 33.942 543.279 33.0522C541.756 29.453 539.522 26.1507 536.691 23.3161C533.917 20.4124 530.794 17.8129 527.385 15.5682C527.303 15.5141 527.24 15.4386 527.204 15.3513C527.168 15.2639 527.161 15.1687 527.184 15.0776L527.196 15.031C527.366 13.7236 527.018 12.4034 526.217 11.3173C525.421 10.1313 524.451 9.05477 523.334 8.11909C521.084 6.20634 518.531 4.62643 515.765 3.43468C510.059 1.3391 503.89 0.566012 497.791 1.18216C494.739 1.40078 491.715 1.88218 488.758 2.62018C485.81 3.26314 483.03 4.44636 480.58 6.10057C478.246 7.94524 476.09 9.97517 474.136 12.1674C473.073 13.2928 471.856 14.2842 470.516 15.1165C469.076 15.9771 467.381 16.3947 465.671 16.31L466.421 15.8668C466.07 16.9013 466.146 18.0204 466.635 19.0055C467.22 19.9781 468.147 20.7334 469.261 21.1442C470.444 21.6114 471.692 21.9198 472.969 22.06C474.283 22.2089 475.606 22.2833 476.93 22.2827C477.171 22.2882 477.399 22.3822 477.565 22.5441C477.731 22.7059 477.821 22.9224 477.815 23.1459C477.811 23.2677 477.78 23.3875 477.723 23.4973C476.158 26.4607 474.823 29.5245 473.729 32.6652C472.604 35.7824 471.881 39.0127 471.576 42.2884C470.848 49.1302 467.79 55.4732 467.876 61.8764C467.795 63.6058 467.592 65.3285 467.268 67.0333C467.002 68.6843 466.758 70.312 466.622 71.9337C466.201 75.0693 466.61 78.2531 467.813 81.2084C468.504 82.5823 469.488 83.8113 470.706 84.8211C471.923 85.8308 473.349 86.6002 474.895 87.0826C478.16 88.1144 481.588 88.6292 485.036 88.6057C485.355 88.6109 485.662 88.7194 485.904 88.9124C486.146 89.1053 486.309 89.3707 486.363 89.6629C486.699 91.5044 486.945 93.3223 487.138 95.1766C487.379 97.0834 487.409 99.0081 487.229 100.921C487.165 101.56 486.951 102.178 486.602 102.732C486.529 102.831 486.455 102.927 486.371 103.021C486.253 103.132 486.126 103.233 485.991 103.326C485.735 103.471 485.455 103.576 485.162 103.636L484.452 103.791L481.607 104.413L475.918 105.655L476.903 104.486C476.868 105.699 476.681 106.905 476.345 108.078C476.017 109.318 475.42 110.483 474.59 111.501C474.125 112.052 473.552 112.517 472.902 112.87C472.311 113.179 471.686 113.428 471.038 113.615L467.603 114.661C463.061 116.004 458.563 117.392 454.194 119.057C449.829 120.629 445.679 122.674 441.83 125.149C439.992 126.357 438.395 127.854 437.112 129.573C436.524 130.452 436.06 131.397 435.733 132.386C435.316 133.399 434.962 134.458 434.584 135.499C431.693 143.916 429.005 152.496 425.374 160.763C423.575 164.916 421.441 168.937 418.99 172.791C416.572 176.723 413.333 180.167 409.464 182.92L409.6 182.255C412.019 185.985 414.182 189.853 416.075 193.837C417.013 195.833 417.831 197.876 418.524 199.957C419.256 202.037 419.649 204.208 419.691 206.396C419.69 206.434 419.674 206.47 419.645 206.497C419.616 206.523 419.578 206.538 419.537 206.538C419.497 206.537 419.459 206.522 419.431 206.495C419.403 206.469 419.386 206.434 419.386 206.396Z" fill="white"/>
<path d="M483.896 41.0628C485.156 40.2957 486.563 39.7612 488.041 39.4885C489.526 39.1923 491.05 39.1079 492.562 39.2379C494.088 39.3664 495.577 39.7506 496.956 40.3719C498.331 40.9699 499.544 41.848 500.504 42.941C499.177 42.4373 497.82 42.0034 496.441 41.6414C495.112 41.3038 493.753 41.0784 492.381 40.9679C489.555 40.758 486.715 40.7897 483.896 41.0628ZM464.595 42.9411C465.341 42.4365 466.179 42.0632 467.07 41.8394C467.939 41.6036 468.835 41.4679 469.74 41.4353C470.657 41.4093 471.574 41.5043 472.463 41.7175C473.38 41.9255 474.225 42.3465 474.919 42.9411L472.295 43.0652C471.459 43.1157 470.633 43.1382 469.799 43.1721C468.061 43.2597 466.317 43.1822 464.595 42.9411ZM492.873 51.8078C493.6 51.7844 494.289 51.4993 494.795 51.0128C495.3 50.5263 495.583 49.8763 495.583 49.1999C495.583 48.5235 495.3 47.8735 494.795 47.3869C494.289 46.9004 493.6 46.6154 492.873 46.5919C492.146 46.6154 491.457 46.9004 490.952 47.3869C490.446 47.8735 490.163 48.5235 490.163 49.1999C490.163 49.8763 490.446 50.5263 490.952 51.0128C491.457 51.4993 492.146 51.7844 492.873 51.8078ZM523.845 65.7864C524.572 65.763 525.261 65.4779 525.766 64.9914C526.272 64.5049 526.555 63.8549 526.555 63.1785C526.555 62.502 526.272 61.8521 525.766 61.3655C525.261 60.879 524.572 60.594 523.845 60.5705C523.118 60.594 522.429 60.879 521.923 61.3655C521.418 61.8521 521.135 62.502 521.135 63.1785C521.135 63.8549 521.418 64.5049 521.923 64.9914C522.429 65.4779 523.118 65.763 523.845 65.7864ZM470.879 53.2683C471.606 53.2449 472.295 52.9599 472.801 52.4734C473.306 51.9868 473.589 51.3368 473.589 50.6603C473.589 49.9839 473.306 49.3338 472.801 48.8473C472.295 48.3608 471.606 48.0758 470.879 48.0524C470.152 48.0758 469.463 48.3608 468.957 48.8473C468.452 49.3338 468.169 49.9839 468.169 50.6603C468.169 51.3368 468.452 51.9868 468.957 52.4734C469.463 52.9599 470.152 53.2449 470.879 53.2683ZM470.879 71.7323C471.467 72.2772 472.086 72.7936 472.731 73.2795C473.316 73.7172 473.937 74.1115 474.589 74.4587C475.246 74.8103 475.927 75.1237 476.626 75.3971C477.35 75.6958 478.12 75.9389 478.958 76.3227C477.659 76.8112 476.216 76.8633 474.88 76.4699C473.543 76.0765 472.396 75.2623 471.635 74.1674C471.107 73.453 470.841 72.5987 470.879 71.7323ZM521.197 76.9925C519.077 78.4869 516.909 79.8196 514.675 81.0959C512.44 82.3586 510.156 83.5446 507.799 84.5936C503.147 86.8135 498.08 88.1844 492.873 88.6324C497.992 87.9047 502.913 86.2716 507.369 83.8215C509.623 82.6596 511.794 81.3668 513.908 80.004C516.011 78.6368 518.085 77.1836 520.004 75.653L520.022 75.6387C520.115 75.5632 520.223 75.5057 520.34 75.4694C520.457 75.433 520.581 75.4186 520.704 75.4269C520.827 75.4352 520.948 75.4661 521.058 75.5178C521.168 75.5696 521.266 75.641 521.347 75.7282C521.427 75.8153 521.488 75.9164 521.526 76.0256C521.565 76.1347 521.579 76.2499 521.569 76.3643C521.559 76.4787 521.525 76.5902 521.469 76.6923C521.412 76.7944 521.335 76.8852 521.24 76.9593L521.197 76.9925ZM477.836 49.1998C478.372 50.9278 478.305 52.7693 477.645 54.4598C477.32 55.328 476.863 56.1485 476.288 56.8965C475.71 57.5131 475.172 58.162 474.679 58.8395C473.846 60.0924 473.651 61.5388 474.869 62.3101C475.547 62.73 476.328 62.9842 477.14 63.0491C478.04 63.1562 478.948 63.1995 479.856 63.1785C478.994 63.5539 478.072 63.7983 477.126 63.9024C476.099 64.0435 475.05 63.8935 474.115 63.472C473.584 63.2253 473.131 62.8538 472.803 62.3942C472.474 61.9347 472.28 61.4032 472.24 60.8525C472.201 59.825 472.493 58.8101 473.08 57.9387C473.625 57.2124 474.231 56.5275 474.893 55.8904C475.436 55.2841 475.91 54.6271 476.308 53.9301C477.123 52.4528 477.641 50.8498 477.836 49.1998Z" fill="white"/>
<path d="M530.159 66.333C532.885 61.5596 531.698 59.84 528.78 54.6242C525.863 49.4083 513.744 60.2573 513.744 60.2573V41.4757C519.354 38.3417 519.803 27.0842 513.744 21.0339C507.684 14.9835 476.937 23.1202 476.937 23.1202L476.93 23.1132C462.578 23.1132 465.72 15.6129 465.72 15.6129C472.446 16.024 475.146 8.09836 482.33 4.3411C489.498 0.583841 507.907 -1.91155 518.674 4.3411C529.457 10.6079 527.658 15.1875 527.658 15.1875C527.658 15.1875 545.167 26.0481 545.167 39.3899C545.167 47.5605 537.604 57.9173 530.911 65.4904L530.159 66.333ZM476.427 103.831C478.07 107.298 479.582 110.804 481.022 114.333C482.471 117.858 483.86 121.402 485.19 124.963L482.804 124.593C484.44 122.434 486.106 120.297 487.804 118.182C489.475 116.048 491.178 113.937 492.912 111.847C494.618 109.738 496.368 107.659 498.131 105.589C499.87 103.503 501.688 101.471 503.472 99.4164L503.524 99.3562C503.642 99.2196 503.803 99.1206 503.984 99.0732C509.491 97.6254 515.008 96.2068 520.599 94.9983C515.334 97.125 509.995 99.0431 504.645 100.931L505.157 100.589C503.538 102.758 501.953 104.952 500.288 107.09C498.647 109.246 496.994 111.391 495.297 113.507C493.622 115.638 491.922 117.751 490.195 119.846C488.486 121.954 486.749 124.042 484.984 126.11L484.943 126.159C484.79 126.338 484.587 126.475 484.356 126.554C484.125 126.633 483.876 126.652 483.634 126.609C483.393 126.566 483.168 126.462 482.986 126.309C482.803 126.156 482.669 125.959 482.599 125.74C481.431 122.13 480.34 118.497 479.299 114.849C478.25 111.204 477.273 107.537 476.427 103.831ZM473.928 112.328L466.164 123.161L471.22 111.022C471.293 110.848 471.402 110.688 471.541 110.553C471.68 110.417 471.846 110.308 472.031 110.233C472.215 110.157 472.414 110.116 472.615 110.112C472.816 110.107 473.017 110.14 473.205 110.207C473.393 110.275 473.564 110.376 473.71 110.506C473.856 110.635 473.973 110.79 474.054 110.961C474.136 111.133 474.18 111.317 474.184 111.504C474.189 111.692 474.154 111.878 474.081 112.053C474.041 112.149 473.989 112.241 473.928 112.328Z" fill="white"/>
<path d="M504.316 100.003C504.993 102.308 505.519 104.631 506.06 106.952C506.568 109.278 507.052 111.606 507.485 113.94C508.37 118.607 509.103 123.292 509.749 127.988L507.218 127.134C508.972 125.671 510.692 124.174 512.474 122.74C514.252 121.302 516.017 119.851 517.838 118.455C521.453 115.639 525.132 112.885 529.007 110.33C525.962 113.721 522.721 116.914 519.416 120.043C517.777 121.621 516.082 123.143 514.4 124.678C512.723 126.217 510.981 127.693 509.275 129.203C509.074 129.381 508.824 129.504 508.553 129.558C508.282 129.612 507.999 129.595 507.738 129.509C507.476 129.423 507.245 129.271 507.07 129.071C506.895 128.87 506.784 128.629 506.748 128.373L506.744 128.35C506.081 123.656 505.504 118.953 505.079 114.231C504.856 111.871 504.685 109.505 504.538 107.136C504.424 104.763 504.295 102.392 504.316 100.003ZM419.521 207.311C419.653 200.297 420.316 193.3 421.505 186.373C422.575 179.361 424.474 172.481 427.168 165.856L437.012 146.973C440.244 140.679 443.5 134.385 446.977 128.169C444.671 134.84 442.022 141.387 439.189 147.867C437.795 151.118 436.275 154.319 434.751 157.527C433.243 160.717 431.361 163.904 429.984 166.941C427.358 173.388 425.302 180.023 423.836 186.781C422.254 193.571 420.872 200.421 419.521 207.311ZM536.642 152.984L528.272 164.46C525.473 168.262 522.772 172.116 520.117 175.984L516.086 181.763C514.806 183.723 513.482 185.669 512.327 187.7C509.871 191.686 508.158 196.029 507.26 200.546C507.24 200.664 507.173 200.77 507.074 200.846C506.974 200.921 506.848 200.959 506.72 200.954L506.69 200.952C503.44 200.883 500.209 201.432 497.195 202.563C495.75 203.136 494.396 203.887 493.168 204.797C491.988 205.693 490.977 206.767 490.178 207.974L490.379 207.177C491.217 211.249 492.716 215.178 494.826 218.83C495.857 220.675 497.005 222.46 498.265 224.178L500.219 226.714L502.388 229.096C503.079 229.92 503.924 230.61 504.7 231.364C505.466 232.13 506.286 232.846 507.156 233.509L509.732 235.551L512.493 237.386C514.353 238.61 516.293 239.728 518.3 240.732C520.288 241.792 522.421 242.591 524.476 243.607L524.491 243.615C524.525 243.631 524.55 243.658 524.563 243.691C524.576 243.724 524.575 243.76 524.561 243.793C524.547 243.825 524.521 243.852 524.487 243.867C524.453 243.882 524.414 243.885 524.378 243.876C523.264 243.578 522.151 243.265 521.039 242.936C519.913 242.641 518.803 242.294 517.715 241.894C515.539 241.07 513.419 240.124 511.368 239.059C507.205 236.928 503.415 234.22 500.128 231.029C493.453 224.562 489.12 216.315 487.737 207.445L487.73 207.393C487.694 207.129 487.768 206.862 487.938 206.647C488.987 205.258 490.282 204.045 491.767 203.059C493.239 202.13 494.852 201.411 496.553 200.924C499.869 200.015 503.339 199.691 506.783 199.969L506.214 200.375C507.386 195.831 509 191.396 511.035 187.124C512.941 182.804 515.209 178.63 517.82 174.641C520.468 170.69 523.354 166.881 526.463 163.232C529.542 159.566 532.864 156.082 536.409 152.8C536.423 152.787 536.44 152.777 536.459 152.77C536.477 152.763 536.497 152.759 536.518 152.759C536.538 152.759 536.558 152.763 536.576 152.77C536.595 152.778 536.611 152.788 536.625 152.802C536.65 152.826 536.665 152.857 536.668 152.89C536.671 152.923 536.662 152.956 536.642 152.984Z" fill="white"/>
<path d="M531.084 229.234C528.091 227.725 525.249 225.97 522.591 223.99C519.9 222.029 517.394 219.859 515.1 217.502C513.936 216.334 512.896 215.056 511.844 213.793C510.847 212.484 509.949 211.111 509.16 209.684C507.487 206.864 506.651 203.681 506.736 200.461C507.357 203.511 508.613 206.418 510.433 209.02C512.195 211.635 514.223 214.086 516.489 216.34C518.7 218.653 521.086 220.837 523.539 222.965C526.008 225.077 528.499 227.187 531.084 229.234ZM504.315 248.969C502.038 245.896 499.931 242.717 498 239.445C496.04 236.173 494.273 232.803 492.708 229.352C489.286 222.397 487.522 214.837 487.537 207.189C487.553 206.814 487.728 206.46 488.025 206.204C488.321 205.949 488.714 205.813 489.118 205.826C489.521 205.84 489.903 206.001 490.179 206.276C490.454 206.551 490.602 206.915 490.589 207.291C490.588 207.322 490.585 207.352 490.582 207.383L490.576 207.433C490.235 211.026 490.408 214.646 491.092 218.196C491.806 221.814 492.823 225.375 494.133 228.845C495.446 232.345 496.964 235.776 498.679 239.122C500.378 242.491 502.259 245.777 504.315 248.969ZM409.159 182.518C410.401 182.136 411.702 181.946 413.01 181.955C414.326 181.94 415.638 182.094 416.909 182.412C418.228 182.72 419.459 183.289 420.52 184.08C421.065 184.465 421.522 184.946 421.867 185.495C422.211 186.044 422.435 186.651 422.527 187.281C421.753 186.416 420.793 185.71 419.708 185.208C418.657 184.722 417.551 184.346 416.41 184.086C414.107 183.474 411.689 183.132 409.159 182.518Z" fill="white"/>
<path d="M488.946 209.99C481.357 210.898 473.766 211.585 466.168 212.14C462.37 212.426 458.569 212.67 454.767 212.893L453.342 212.981C452.823 213.02 452.303 213.035 451.782 213.024C450.78 212.997 449.78 212.921 448.786 212.796C446.835 212.572 444.945 212.191 443.065 211.813C439.318 211.002 435.638 210.051 431.949 209.166C428.296 208.207 424.58 207.47 420.825 206.96C419.897 206.858 418.963 206.808 418.029 206.809C417.152 206.768 416.276 206.918 415.471 207.247C415.313 207.325 415.173 207.428 415.055 207.553C414.93 207.706 414.806 207.901 414.681 208.072C414.417 208.414 414.232 208.819 414.002 209.188C412.785 211.529 412.082 214.072 411.934 216.669C411.785 218.318 412.123 219.973 412.913 221.456C413.328 222.111 413.906 222.663 414.598 223.067C415.29 223.472 416.076 223.716 416.891 223.781C417.725 223.927 418.578 223.954 419.421 223.862C420.285 223.746 421.132 223.535 421.943 223.234C422.961 222.887 424.034 222.701 425.118 222.682C426.194 222.685 427.264 222.824 428.299 223.096C430.215 223.638 432.07 224.35 433.84 225.22C437.211 226.773 440.666 228.165 444.19 229.39C447.713 230.663 451.276 231.852 454.857 232.989C462.005 235.297 469.286 237.233 476.667 238.788C484.01 240.515 491.601 241.153 499.158 240.676L499.168 240.676C499.206 240.672 499.245 240.683 499.275 240.704C499.306 240.726 499.326 240.758 499.333 240.794C499.339 240.829 499.33 240.866 499.309 240.896C499.287 240.925 499.255 240.947 499.217 240.955C491.625 242.327 483.82 242.331 476.226 240.967C468.633 239.787 461.145 238.079 453.827 235.857C446.484 233.647 439.349 230.878 432.496 227.577C430.911 226.755 429.255 226.06 427.544 225.497C425.976 224.952 424.256 224.912 422.66 225.382C421.678 225.69 420.661 225.89 419.629 225.977C418.568 226.027 417.505 225.926 416.478 225.677C415.96 225.578 415.455 225.429 414.972 225.232C414.446 225.065 413.955 224.817 413.517 224.499C413.294 224.344 413.057 224.203 412.853 224.031L412.304 223.447C411.951 223.06 411.656 222.63 411.428 222.168C410.613 220.41 410.335 218.477 410.625 216.582C410.849 214.771 411.303 212.991 411.978 211.279C412.318 210.429 412.708 209.596 413.144 208.784C413.394 208.388 413.591 207.973 413.887 207.595C414.032 207.402 414.153 207.212 414.317 207.016C414.51 206.804 414.746 206.628 415.01 206.498C415.953 206.106 416.977 205.912 418.01 205.932C418.983 205.916 419.957 205.954 420.926 206.045C428.59 206.804 436.083 208.345 443.561 209.498C445.422 209.81 447.286 210.068 449.12 210.29C450.018 210.396 450.921 210.458 451.826 210.476C452.285 210.493 452.652 210.462 453.125 210.451L454.556 210.39C458.371 210.215 462.187 210.06 466.006 209.948C473.643 209.706 481.286 209.597 488.931 209.707C488.97 209.708 489.007 209.722 489.035 209.747C489.063 209.772 489.08 209.806 489.082 209.842C489.084 209.878 489.071 209.914 489.045 209.941C489.02 209.969 488.985 209.986 488.946 209.99L488.946 209.99ZM473.571 140.165C474.298 140.141 474.987 139.856 475.492 139.37C475.998 138.883 476.28 138.233 476.28 137.557C476.28 136.88 475.998 136.23 475.492 135.744C474.987 135.257 474.298 134.972 473.571 134.949C472.843 134.972 472.154 135.257 471.649 135.744C471.143 136.23 470.861 136.88 470.861 137.557C470.861 138.233 471.143 138.883 471.649 139.37C472.154 139.856 472.843 140.141 473.571 140.165ZM459.095 166.453C459.822 166.429 460.511 166.144 461.017 165.658C461.522 165.171 461.805 164.521 461.805 163.845C461.805 163.168 461.522 162.518 461.017 162.032C460.511 161.545 459.822 161.26 459.095 161.237C458.367 161.26 457.678 161.545 457.173 162.032C456.667 162.518 456.385 163.168 456.385 163.845C456.385 164.521 456.667 165.171 457.173 165.658C457.678 166.144 458.367 166.429 459.095 166.453ZM450.342 189.924C451.069 189.901 451.758 189.616 452.264 189.129C452.769 188.643 453.052 187.993 453.052 187.316C453.052 186.64 452.769 185.99 452.264 185.503C451.758 185.017 451.069 184.732 450.342 184.708C449.615 184.732 448.926 185.017 448.42 185.503C447.914 185.99 447.632 186.64 447.632 187.316C447.632 187.993 447.914 188.643 448.42 189.129C448.926 189.616 449.615 189.901 450.342 189.924Z" fill="white"/>
<path d="M443.301 210.649C443.37 210.043 443.684 209.483 444.179 209.083C444.675 208.683 445.315 208.473 445.971 208.494C446.373 208.489 446.771 208.568 447.136 208.725C447.501 208.883 447.824 209.114 448.08 209.402C448.336 209.691 448.52 210.029 448.616 210.392C448.713 210.755 448.721 211.134 448.64 211.5L443.301 210.649ZM441.253 246.255C441.981 246.232 442.67 245.947 443.175 245.46C443.681 244.974 443.964 244.324 443.964 243.647C443.964 242.971 443.681 242.321 443.175 241.834C442.67 241.348 441.981 241.063 441.253 241.039C440.526 241.063 439.837 241.348 439.332 241.834C438.826 242.321 438.543 242.971 438.543 243.647C438.543 244.324 438.826 244.974 439.332 245.46C439.837 245.947 440.526 246.232 441.253 246.255ZM417.581 262.97C417.166 262.862 416.851 262.785 416.652 262.723L417.581 262.97ZM419.089 263.371C418.493 263.217 417.979 263.077 417.581 262.97L419.089 263.371ZM442.962 326.697C443.062 327.082 443.128 327.467 443.211 327.837C441.292 326.936 439.659 325.587 438.47 323.923C437.097 321.959 436.067 319.805 435.419 317.542C434.763 315.249 434.281 312.916 433.977 310.56C433.628 308.187 433.43 305.799 433.33 303.394C433.148 300.99 433.131 298.571 433.131 296.15C433.098 293.731 433.181 291.296 433.231 288.862L433.745 275.068C436.148 275.638 438.569 276.131 440.99 276.593C440.227 281.495 439.663 286.411 439.348 291.343C438.737 299.264 439.015 307.223 440.177 315.091C440.359 316.078 440.509 317.064 440.724 318.051L441.453 320.963L442.962 326.697Z" fill="white"/>
<path d="M462.837 550.627C467.628 581.897 473.431 613.105 482.317 643.604C464.81 643.604 441.252 619.825 441.252 619.825L455.211 583.515C455.211 583.515 421.723 473.354 415.838 415.776C409.952 358.183 419.866 263.572 419.866 263.572C427.355 265.374 434.942 266.804 442.595 267.856C442.131 269.998 441.717 272.171 441.352 274.329C433.924 273.373 426.531 272.248 419.186 270.645C423.842 272.436 428.636 273.899 433.527 275.022C432.182 279.501 431.222 284.072 430.659 288.692C430.003 293.614 429.787 298.578 430.012 303.533C430.171 308.572 431.166 313.558 432.963 318.314C433.92 320.731 435.36 322.958 437.207 324.879C438.823 326.536 440.946 327.692 443.291 328.192C444.037 331.537 444.717 334.896 445.231 338.271C446.491 346.054 447.303 353.883 447.9 361.728C448.497 369.588 448.845 377.432 449.061 385.323L449.823 409.011C450.553 424.792 451.233 440.573 452.426 456.339C454.846 487.855 458.079 519.341 462.837 550.627Z" fill="white"/>
<path d="M441.634 274.375C441.916 272.187 442.231 270.014 442.596 267.856C466.456 271.18 490.687 271.527 514.645 268.889C515.275 271.555 515.867 274.226 516.419 276.903C512.308 276.903 508.246 277.134 504.151 277.196L498.034 277.288C495.995 277.334 493.956 277.365 491.933 277.334C489.894 277.304 487.855 277.304 485.815 277.319L479.715 277.165C475.653 277.15 471.592 276.872 467.547 276.718C459.423 276.256 451.333 275.547 443.276 274.591C442.728 274.515 442.182 274.437 441.634 274.375Z" fill="white"/>
<path d="M534.839 654.871C515.989 664.256 482.319 643.605 482.319 643.605C478.456 628.224 475.356 612.705 472.637 597.139C469.852 581.589 467.42 565.983 465.342 550.319C461.148 519.018 457.943 487.62 455.727 456.124C454.467 440.404 453.655 424.653 452.842 408.887L451.93 385.246C451.699 377.356 451.234 369.418 450.455 361.543C449.693 353.668 448.714 345.793 447.305 337.964C446.625 334.064 445.763 330.165 444.785 326.297L443.144 320.548L442.381 317.728C442.149 316.773 441.983 315.801 441.785 314.846C440.394 307.099 439.871 299.238 440.226 291.39C440.409 286.473 440.79 281.557 441.37 276.672C441.867 276.764 442.365 276.857 442.862 276.949C450.952 278.372 459.13 279.32 467.348 279.785C475.56 280.209 483.791 280.193 492 279.738C496.112 279.6 500.19 279.076 504.268 278.706C508.347 278.228 512.392 277.597 516.42 276.903H516.437C533.711 359.324 516.669 445.813 516.669 445.813C530.131 506.535 534.839 654.871 534.839 654.871Z" fill="white"/>
<path d="M484.564 644.85C483.376 650.589 480.784 655.997 476.989 660.656C475.048 663.017 472.738 665.096 470.136 666.823C467.495 668.55 464.541 669.821 461.415 670.575C458.476 671.18 455.595 672.009 452.802 673.053C451.441 673.571 450.162 674.259 449.001 675.099C447.951 675.937 446.986 677.128 447.427 678.262C447.647 678.844 448.087 679.332 448.664 679.636C449.263 679.991 449.934 680.227 450.635 680.332C452.156 680.582 453.654 680.864 455.171 681.071C458.188 681.511 461.229 681.802 464.279 681.941C467.292 682.074 470.311 682.003 473.313 681.726C476.193 681.51 479.002 680.784 481.589 679.589C486.864 676.578 492.313 673.839 497.911 671.385C500.824 670.165 503.881 669.268 507.019 668.711C508.674 668.451 510.362 668.419 512.027 668.616C512.822 668.722 513.61 668.868 514.388 669.053L515.523 669.287C515.831 669.355 516.145 669.4 516.46 669.421C517.784 669.502 519.1 669.178 520.207 668.498C521.313 667.817 522.149 666.818 522.587 665.654C522.816 665.037 522.946 664.392 522.972 663.74L523.127 661.598C523.227 660.171 523.33 658.743 523.466 657.316C523.47 657.28 523.487 657.247 523.516 657.223C523.544 657.199 523.581 657.186 523.619 657.186C523.657 657.186 523.694 657.199 523.723 657.223C523.751 657.247 523.768 657.28 523.772 657.316C523.909 658.743 524.011 660.171 524.111 661.598L524.266 663.74C524.339 664.517 524.272 665.299 524.068 666.056C523.642 667.654 522.652 669.073 521.255 670.085C519.858 671.097 518.136 671.643 516.365 671.637C515.914 671.632 515.463 671.593 515.019 671.52L513.891 671.353C513.171 671.223 512.444 671.13 511.713 671.074C510.318 670.994 508.917 671.103 507.556 671.398C504.686 672.051 501.895 672.974 499.226 674.151C493.746 676.452 488.431 679.243 482.963 681.931C480 683.225 476.775 683.919 473.501 683.969C470.369 684.074 467.232 683.913 464.131 683.488C461.047 683.135 458.015 682.558 454.989 682.019L450.468 681.181C449.653 681.043 448.87 680.77 448.158 680.376C447.387 679.974 446.795 679.33 446.491 678.558C446.339 678.156 446.275 677.73 446.304 677.305C446.36 676.896 446.481 676.497 446.662 676.121C447.038 675.42 447.541 674.786 448.148 674.244C449.313 673.214 450.625 672.337 452.046 671.639C454.83 670.286 457.738 669.168 460.738 668.3C463.518 667.455 466.162 666.264 468.598 664.759C471.026 663.194 473.23 661.349 475.156 659.267C479.043 654.947 482.123 650.05 484.267 644.782L484.271 644.771C484.285 644.738 484.312 644.711 484.346 644.695C484.38 644.68 484.419 644.676 484.456 644.686C484.493 644.696 484.524 644.718 484.544 644.748C484.564 644.779 484.571 644.815 484.564 644.85L484.564 644.85Z" fill="white"/>
<path d="M446.152 624.555C444.964 630.294 442.373 635.702 438.578 640.361C436.637 642.723 434.327 644.801 431.724 646.528C429.083 648.255 426.129 649.526 423.004 650.281C420.065 650.885 417.184 651.714 414.391 652.759C413.03 653.276 411.751 653.965 410.589 654.804C409.54 655.642 408.575 656.833 409.016 657.967C409.236 658.549 409.675 659.038 410.253 659.342C410.852 659.696 411.523 659.933 412.224 660.038C413.745 660.287 415.243 660.57 416.76 660.776C419.777 661.217 422.818 661.508 425.868 661.646C428.881 661.78 431.9 661.708 434.902 661.431C437.781 661.215 440.59 660.49 443.177 659.295C448.452 656.284 453.901 653.545 459.5 651.09C462.412 649.87 465.469 648.973 468.607 648.417C470.263 648.157 471.95 648.125 473.616 648.322C474.41 648.428 475.198 648.574 475.976 648.758L477.112 648.993C478.564 649.311 480.092 649.116 481.398 648.444C482.704 647.772 483.694 646.672 484.175 645.359C484.405 644.742 484.535 644.098 484.561 643.445L484.716 641.304C484.816 639.876 484.918 638.449 485.055 637.021C485.058 636.986 485.076 636.953 485.104 636.929C485.132 636.905 485.169 636.891 485.208 636.891C485.246 636.891 485.283 636.905 485.311 636.929C485.339 636.953 485.357 636.986 485.36 637.021C485.497 638.449 485.6 639.876 485.7 641.304L485.855 643.445C485.927 644.222 485.86 645.005 485.657 645.762C485.231 647.36 484.24 648.778 482.843 649.79C481.447 650.802 479.725 651.349 477.954 651.342C477.502 651.337 477.052 651.298 476.607 651.226L475.48 651.059C474.76 650.929 474.033 650.836 473.302 650.78C471.906 650.7 470.506 650.809 469.145 651.104C466.275 651.757 463.484 652.679 460.815 653.857C455.334 656.158 450.02 658.948 444.551 661.636C441.588 662.931 438.364 663.625 435.09 663.675C431.957 663.78 428.821 663.618 425.72 663.193C422.636 662.841 419.604 662.263 416.578 661.724L412.057 660.887C411.242 660.748 410.459 660.476 409.747 660.081C408.976 659.68 408.384 659.035 408.079 658.263C407.927 657.862 407.864 657.436 407.893 657.011C407.949 656.602 408.069 656.203 408.251 655.827C408.627 655.126 409.129 654.491 409.737 653.949C410.902 652.919 412.213 652.043 413.635 651.345C416.418 649.991 419.327 648.874 422.326 648.006C425.107 647.161 427.751 645.969 430.187 644.464C432.614 642.9 434.818 641.055 436.745 638.973C440.632 634.652 443.712 629.756 445.856 624.487L445.86 624.478C445.874 624.445 445.9 624.417 445.934 624.402C445.968 624.386 446.008 624.383 446.044 624.392C446.081 624.402 446.112 624.424 446.132 624.454C446.152 624.484 446.159 624.52 446.152 624.555L446.152 624.555ZM411.216 224.027C406.589 223.121 402.219 221.321 398.389 218.743C394.53 216.233 390.99 213.323 387.838 210.07C384.449 207.03 381.28 203.786 378.351 200.358C375.534 196.703 373.648 192.499 372.835 188.066C372.023 183.731 371.606 179.34 371.59 174.94C371.505 170.572 371.483 166.28 371.336 161.946C371.029 153.299 370.761 144.644 370.252 135.998L370.064 132.756L369.973 131.135C369.952 130.693 369.874 130.256 369.741 129.832C369.516 129.202 369.148 128.625 368.66 128.141C368.173 127.656 367.579 127.275 366.919 127.024C366.258 126.772 365.547 126.657 364.834 126.685C364.122 126.713 363.424 126.884 362.788 127.186L359.633 128.617C357.523 129.558 355.401 130.478 353.26 131.36C348.987 133.187 344.585 134.74 340.084 136.009C338.936 136.315 337.767 136.552 336.585 136.718C335.323 136.959 334.016 136.888 332.792 136.514C332.453 136.364 332.151 136.151 331.903 135.89C331.723 135.702 331.533 135.524 331.332 135.356C330.921 135.006 330.477 134.67 330.026 134.341C329.122 133.683 328.18 133.053 327.231 132.433C323.421 129.965 319.487 127.634 315.574 125.278C311.65 122.934 307.675 120.664 303.832 118.166C302.873 117.536 301.922 116.895 301.006 116.174C300.487 115.798 300.042 115.341 299.692 114.822C299.633 114.711 299.592 114.593 299.572 114.47C299.561 114.368 299.572 114.265 299.605 114.167C299.637 114.069 299.69 113.978 299.76 113.899C299.958 113.71 300.227 113.598 300.511 113.587C300.836 113.568 301.162 113.577 301.484 113.614C303.844 113.786 306.156 114.129 308.47 114.458C313.093 115.148 317.675 115.977 322.254 116.883L321.628 118.158C318.37 116.048 315.352 113.636 312.619 110.959C311.87 110.212 311.27 109.348 310.847 108.406C310.693 108.057 310.636 107.679 310.68 107.305C310.724 106.93 310.869 106.573 311.101 106.264C311.584 105.751 312.249 105.416 312.974 105.317C314.047 105.156 315.14 105.157 316.212 105.32C317.246 105.438 318.266 105.644 319.26 105.934C323.058 107.223 326.588 109.11 329.696 111.512C332.815 113.813 335.714 116.362 338.36 119.128L336.345 119.106C338.911 116.412 341.71 113.918 344.715 111.65C346.249 110.491 347.884 109.453 349.603 108.546C351.455 107.473 353.588 106.896 355.769 106.877L354.307 108.755C354.171 108.525 354.011 108.309 353.828 108.109C353.608 107.864 353.366 107.637 353.103 107.432C352.549 107.004 351.935 106.648 351.278 106.375C349.867 105.809 348.357 105.491 346.822 105.436C345.178 105.324 343.812 105.582 341.66 105.52C339.58 105.413 337.601 104.65 336.051 103.357C334.615 102.096 333.515 100.542 332.841 98.8163C332.749 98.6123 332.677 98.4046 332.598 98.1992L332.479 97.8703L332.354 97.3872C332.232 96.7039 332.327 96.0025 332.626 95.3682C332.92 94.7544 333.386 94.2254 333.975 93.8366C334.565 93.4477 335.256 93.2134 335.976 93.1581C336.679 93.1097 337.383 93.2272 338.024 93.4997L339.14 93.9407C339.895 94.2184 340.666 94.4702 341.451 94.6962C343.031 95.1493 344.639 95.5112 346.267 95.7799C349.603 96.2107 352.966 96.4367 356.335 96.4564C360.02 96.4832 363.645 97.3202 366.916 98.899C368.532 99.7371 370.021 100.771 371.345 101.973L372.325 102.861L373.2 103.683C373.774 104.243 374.385 104.738 374.994 105.243C375.62 105.735 376.235 106.184 376.946 106.69C377.76 107.231 378.475 107.89 379.064 108.642C380.06 110.081 380.878 111.619 381.503 113.228C384.009 119.261 386.136 125.309 388.431 131.328C390.712 137.335 393.067 143.322 395.497 149.29C400.413 161.2 405.491 173.066 410.838 184.83C410.854 184.864 410.855 184.903 410.84 184.938C410.826 184.972 410.798 185 410.761 185.016C410.725 185.031 410.683 185.033 410.646 185.02C410.608 185.007 410.578 184.981 410.56 184.948C404.61 173.428 398.957 161.772 393.694 149.956C391.043 144.056 388.494 138.113 386.105 132.11C383.687 126.134 381.411 120.076 378.845 114.238C378.275 112.852 377.548 111.527 376.675 110.285C376.24 109.752 375.711 109.291 375.11 108.922C374.446 108.47 373.699 107.947 373.014 107.406C372.339 106.853 371.654 106.298 371.04 105.705L370.099 104.828L369.229 104.049C368.091 103.02 366.811 102.137 365.422 101.422C362.558 100.066 359.388 99.3636 356.174 99.3716C352.672 99.3631 349.175 99.1364 345.706 98.6928C343.949 98.4099 342.213 98.0261 340.508 97.5437C339.65 97.3014 338.8 97.027 337.957 96.7205C337.536 96.5647 337.117 96.4036 336.7 96.2299C336.558 96.1659 336.401 96.1373 336.244 96.1471C336.105 96.1595 335.972 96.2053 335.857 96.28C335.743 96.3547 335.652 96.4557 335.592 96.573C335.547 96.675 335.531 96.7865 335.548 96.8959C335.561 96.9276 335.569 96.9607 335.573 96.9944L335.657 97.2345C335.72 97.4046 335.777 97.5792 335.85 97.7432C336.33 99.039 337.126 100.214 338.177 101.175C339.195 102.046 340.506 102.562 341.887 102.635C343.167 102.714 345.23 102.46 347.02 102.601C348.926 102.695 350.796 103.116 352.537 103.843C353.443 104.233 354.288 104.737 355.047 105.341C355.437 105.655 355.797 106 356.122 106.372C356.493 106.784 356.802 107.241 357.038 107.731C357.141 107.939 357.184 108.168 357.164 108.397C357.143 108.625 357.06 108.844 356.921 109.033C356.783 109.223 356.595 109.376 356.374 109.478C356.153 109.579 355.908 109.626 355.662 109.614L355.575 109.609C353.946 109.656 352.36 110.102 350.976 110.902C349.393 111.72 347.884 112.659 346.466 113.707C343.57 115.86 340.853 118.213 338.339 120.748L338.324 120.763C338.204 120.883 338.06 120.979 337.9 121.047C337.74 121.115 337.567 121.154 337.391 121.16C337.215 121.165 337.039 121.139 336.874 121.082C336.709 121.025 336.558 120.938 336.429 120.827L336.324 120.725C333.839 118.031 331.11 115.541 328.166 113.281C325.308 110.997 322.064 109.167 318.564 107.865C317.707 107.59 316.825 107.388 315.929 107.261C315.08 107.104 314.21 107.071 313.35 107.165C313.105 107.189 312.87 107.267 312.665 107.393C312.645 107.393 312.575 107.509 312.689 107.842C313.016 108.576 313.472 109.254 314.038 109.848C316.597 112.498 319.444 114.895 322.533 117.001L322.556 117.017C322.695 117.117 322.793 117.258 322.834 117.417C322.874 117.576 322.855 117.743 322.779 117.89C322.703 118.038 322.576 118.156 322.417 118.227C322.258 118.297 322.079 118.314 321.908 118.276C317.389 117.272 312.836 116.339 308.269 115.548C305.987 115.153 303.686 114.823 301.398 114.629C301.143 114.597 300.885 114.584 300.628 114.591C300.515 114.584 300.487 114.649 300.581 114.556C300.607 114.53 300.626 114.5 300.638 114.466C300.649 114.433 300.652 114.397 300.647 114.362C300.663 114.365 300.636 114.35 300.667 114.393C300.955 114.783 301.304 115.131 301.702 115.427C302.558 116.114 303.49 116.757 304.429 117.385C312.009 122.385 320.1 126.732 327.86 131.589C328.826 132.205 329.788 132.829 330.729 133.497C331.198 133.832 331.664 134.175 332.118 134.552C332.353 134.744 332.576 134.948 332.787 135.164C332.926 135.309 333.096 135.425 333.285 135.507C334.299 135.774 335.369 135.794 336.393 135.563C337.512 135.372 338.616 135.114 339.699 134.79C344.084 133.413 348.362 131.76 352.504 129.842C354.596 128.905 356.672 127.939 358.735 126.943L361.821 125.436C363.032 124.822 364.41 124.549 365.785 124.652C367.179 124.757 368.51 125.233 369.62 126.023C370.73 126.813 371.572 127.883 372.044 129.107C372.262 129.717 372.399 130.349 372.452 130.99L372.578 132.614L372.8 135.863C373.346 144.529 373.887 153.202 373.99 161.891C374.279 170.584 373.542 179.307 375.12 187.67C375.811 191.828 377.468 195.796 379.976 199.298C382.749 202.733 385.76 205.996 388.991 209.065C391.984 212.345 395.332 215.33 398.983 217.971C400.821 219.272 402.774 220.427 404.821 221.422C406.851 222.45 409.014 223.231 411.258 223.747L411.275 223.751C411.314 223.759 411.348 223.78 411.37 223.811C411.392 223.842 411.399 223.88 411.392 223.916C411.384 223.953 411.361 223.985 411.328 224.005C411.295 224.026 411.255 224.034 411.216 224.028L411.216 224.027Z" fill="white"/>
<path d="M322.576 116.842L333.302 124.1L321.585 118.317C321.365 118.209 321.201 118.024 321.128 117.803C321.056 117.582 321.08 117.343 321.197 117.139C321.313 116.935 321.512 116.782 321.75 116.715C321.987 116.647 322.244 116.67 322.464 116.778C322.503 116.797 322.54 116.819 322.576 116.842Z" fill="white"/>
<path d="M128.222 188.918C127.99 184.109 127.791 179.378 127.641 174.693C127.476 170.008 127.376 165.369 127.31 160.73C127.277 156.615 127.277 152.5 127.343 148.385C122.552 148.323 117.761 148.277 112.97 148.17C107.897 148.062 102.84 147.907 97.7674 147.707C97.6181 152.145 97.436 156.6 97.419 161.038C97.353 165.77 97.436 170.501 97.6347 175.232L98.2649 189.426C98.3972 193.726 98.3972 198.026 98.3474 202.31C103.056 202.372 107.764 202.511 112.555 202.711L120.612 203.096L128.918 203.512L128.222 188.918ZM209.605 124.066C209.356 120.691 209.157 117.424 209.141 114.156C208.079 114.141 207.035 114.11 205.974 114.079L201.051 113.941C198.05 113.879 195.049 113.663 192.048 113.447C191.915 115.143 191.783 116.853 191.733 118.549C191.7 120.568 191.684 122.571 191.8 124.575C192.015 128.135 192.512 131.694 192.629 135.254C195.264 135.27 197.884 135.394 200.586 135.563C203.802 135.794 207.118 136.118 210.782 136.488C210.334 132.095 209.903 127.996 209.605 124.066H209.605ZM209.605 124.066C209.356 120.691 209.157 117.424 209.141 114.156C208.079 114.141 207.035 114.11 205.974 114.079L201.051 113.941C198.05 113.879 195.049 113.663 192.048 113.447C191.915 115.143 191.783 116.853 191.733 118.549C191.7 120.568 191.684 122.571 191.8 124.575C192.015 128.135 192.512 131.694 192.629 135.254C195.264 135.27 197.884 135.394 200.586 135.563C203.802 135.794 207.118 136.118 210.782 136.488C210.334 132.095 209.903 127.996 209.605 124.066H209.605ZM128.222 188.918C127.99 184.109 127.791 179.378 127.641 174.693C127.476 170.008 127.376 165.369 127.31 160.73C127.277 156.615 127.277 152.5 127.343 148.385C122.552 148.323 117.761 148.277 112.97 148.17C107.897 148.062 102.84 147.907 97.7674 147.707C97.6181 152.145 97.436 156.6 97.419 161.038C97.353 165.77 97.436 170.501 97.6347 175.232L98.2649 189.426C98.3972 193.726 98.3972 198.026 98.3474 202.31C103.056 202.372 107.764 202.511 112.555 202.711L120.612 203.096L128.918 203.512L128.222 188.918ZM128.222 188.918C127.99 184.109 127.791 179.378 127.641 174.693C127.476 170.008 127.376 165.369 127.31 160.73C127.277 156.615 127.277 152.5 127.343 148.385C122.552 148.323 117.761 148.277 112.97 148.17C107.897 148.062 102.84 147.907 97.7674 147.707C97.6181 152.145 97.436 156.6 97.419 161.038C97.353 165.77 97.436 170.501 97.6347 175.232L98.2649 189.426C98.3972 193.726 98.3972 198.026 98.3474 202.31C103.056 202.372 107.764 202.511 112.555 202.711L120.612 203.096L128.918 203.512L128.222 188.918ZM209.605 124.066C209.356 120.691 209.157 117.424 209.141 114.156C208.079 114.141 207.035 114.11 205.974 114.079L201.051 113.941C198.05 113.879 195.049 113.663 192.048 113.447C191.915 115.143 191.783 116.853 191.733 118.549C191.7 120.568 191.684 122.571 191.8 124.575C192.015 128.135 192.512 131.694 192.629 135.254C195.264 135.27 197.884 135.394 200.586 135.563C203.802 135.794 207.118 136.118 210.782 136.488C210.334 132.095 209.903 127.996 209.605 124.066H209.605ZM209.605 124.066C209.356 120.691 209.157 117.424 209.141 114.156C208.079 114.141 207.035 114.11 205.974 114.079L201.051 113.941C198.05 113.879 195.049 113.663 192.048 113.447C191.915 115.143 191.783 116.853 191.733 118.549C191.7 120.568 191.684 122.571 191.8 124.575C192.015 128.135 192.512 131.694 192.629 135.254C195.264 135.27 197.884 135.394 200.586 135.563C203.802 135.794 207.118 136.118 210.782 136.488C210.334 132.095 209.903 127.996 209.605 124.066H209.605ZM128.222 188.918C127.99 184.109 127.791 179.378 127.641 174.693C127.476 170.008 127.376 165.369 127.31 160.73C127.277 156.615 127.277 152.5 127.343 148.385C122.552 148.323 117.761 148.277 112.97 148.17C107.897 148.062 102.84 147.907 97.7674 147.707C97.6181 152.145 97.436 156.6 97.419 161.038C97.353 165.77 97.436 170.501 97.6347 175.232L98.2649 189.426C98.3972 193.726 98.3972 198.026 98.3474 202.31C103.056 202.372 107.764 202.511 112.555 202.711L120.612 203.096L128.918 203.512L128.222 188.918ZM128.222 188.918C127.99 184.109 127.791 179.378 127.641 174.693C127.476 170.008 127.376 165.369 127.31 160.73C127.277 156.615 127.277 152.5 127.343 148.385C122.552 148.323 117.761 148.277 112.97 148.17C107.897 148.062 102.84 147.907 97.7674 147.707C97.6181 152.145 97.436 156.6 97.419 161.038C97.353 165.77 97.436 170.501 97.6347 175.232L98.2649 189.426C98.3972 193.726 98.3972 198.026 98.3474 202.31C103.056 202.372 107.764 202.511 112.555 202.711L120.612 203.096L128.918 203.512L128.222 188.918ZM209.605 124.066C209.356 120.691 209.157 117.424 209.141 114.156C208.079 114.141 207.035 114.11 205.974 114.079L201.051 113.941C198.05 113.879 195.049 113.663 192.048 113.447C191.915 115.143 191.783 116.853 191.733 118.549C191.7 120.568 191.684 122.571 191.8 124.575C192.015 128.135 192.512 131.694 192.629 135.254C195.264 135.27 197.884 135.394 200.586 135.563C203.802 135.794 207.118 136.118 210.782 136.488C210.334 132.095 209.903 127.996 209.605 124.066H209.605ZM209.605 124.066C209.356 120.691 209.157 117.424 209.141 114.156C208.079 114.141 207.035 114.11 205.974 114.079L201.051 113.941C198.05 113.879 195.049 113.663 192.048 113.447C191.915 115.143 191.783 116.853 191.733 118.549C191.7 120.568 191.684 122.571 191.8 124.575C192.015 128.135 192.512 131.694 192.629 135.254C195.264 135.27 197.884 135.394 200.586 135.563C203.802 135.794 207.118 136.118 210.782 136.488C210.334 132.095 209.903 127.996 209.605 124.066H209.605ZM128.222 188.918C127.99 184.109 127.791 179.378 127.641 174.693C127.476 170.008 127.376 165.369 127.31 160.73C127.277 156.615 127.277 152.5 127.343 148.385C122.552 148.323 117.761 148.277 112.97 148.17C107.897 148.062 102.84 147.907 97.7674 147.707C97.6181 152.145 97.436 156.6 97.419 161.038C97.353 165.77 97.436 170.501 97.6347 175.232L98.2649 189.426C98.3972 193.726 98.3972 198.026 98.3474 202.31C103.056 202.372 107.764 202.511 112.555 202.711L120.612 203.096L128.918 203.512L128.222 188.918ZM215.357 87.1551H89.594C85.2063 87.1561 80.9986 88.7769 77.896 91.6611C74.7934 94.5453 73.0499 98.4569 73.0488 102.536V206.625C73.0497 210.704 74.7932 214.616 77.8958 217.5C80.9985 220.385 85.2062 222.005 89.594 222.006H191.203V199.382C187.174 199.983 183.146 200.306 179.117 200.538C174.973 200.784 170.828 200.846 166.683 200.877C162.539 200.846 158.394 200.769 154.25 200.538C150.091 200.337 145.946 199.935 141.832 199.336C145.945 198.729 150.09 198.328 154.25 198.134C158.394 197.887 162.539 197.825 166.683 197.795C170.828 197.825 174.973 197.887 179.117 198.134C183.165 198.32 187.199 198.706 191.203 199.29V188.101C187.113 188.714 182.99 189.116 178.852 189.303C174.741 189.549 170.629 189.627 166.518 189.642C162.39 189.611 158.278 189.549 154.167 189.303C150.035 189.108 145.918 188.707 141.832 188.101C145.918 187.5 150.035 187.104 154.167 186.914C158.278 186.668 162.39 186.59 166.518 186.56C170.629 186.59 174.741 186.652 178.852 186.899C182.988 187.101 187.111 187.502 191.203 188.101V177.59C187.198 178.166 183.164 178.552 179.117 178.746C174.973 178.993 170.828 179.055 166.683 179.085C162.539 179.055 158.394 178.993 154.25 178.746C150.091 178.545 145.946 178.143 141.832 177.544C145.946 176.944 150.091 176.543 154.25 176.342C158.394 176.095 162.539 176.033 166.683 176.002C170.828 176.033 174.973 176.095 179.117 176.342C183.164 176.536 187.198 176.922 191.203 177.498V175.957C191.202 173.936 191.629 171.934 192.459 170.067C193.29 168.2 194.509 166.503 196.045 165.073C197.581 163.643 199.406 162.509 201.414 161.735C203.422 160.961 205.574 160.562 207.748 160.561H231.903V102.536C231.903 100.516 231.476 98.5153 230.645 96.6489C229.814 94.7825 228.595 93.0866 227.059 91.6582C225.522 90.2298 223.698 89.0969 221.69 88.3242C219.682 87.5516 217.53 87.1543 215.357 87.1551ZM117.943 111.336C124.956 111.09 131.968 111.028 138.981 110.997C145.994 111.028 153.006 111.09 160.019 111.336C167.048 111.567 174.061 111.891 181.074 112.538C174.061 113.185 167.048 113.509 160.019 113.74C153.006 113.987 145.994 114.049 138.981 114.079C131.968 114.049 124.956 113.987 117.943 113.74C110.931 113.509 103.918 113.17 96.9053 112.538C103.918 111.906 110.931 111.567 117.943 111.336ZM117.943 123.526C124.956 123.28 131.968 123.203 138.981 123.172C145.994 123.203 153.006 123.265 160.019 123.511C167.048 123.742 174.061 124.081 181.074 124.713C174.061 125.36 167.048 125.7 160.019 125.915C153.006 126.162 145.994 126.239 138.981 126.254C131.968 126.224 124.956 126.162 117.943 125.915C110.931 125.684 103.918 125.36 96.9053 124.713C103.918 124.081 110.931 123.742 117.943 123.526ZM130.775 161.346C130.692 166.17 130.593 170.994 130.427 175.771C130.277 180.549 130.089 185.275 129.863 189.95C129.664 194.62 129.415 199.228 129.15 203.728L121.392 204.159L113.384 204.545C107.963 204.761 102.426 204.915 96.9053 204.961L95.4794 204.977L95.4628 203.621C95.3798 198.889 95.3965 194.158 95.5458 189.426L96.1594 175.232C96.3581 170.501 96.4411 165.77 96.3747 161.038C96.3581 156.307 96.1594 151.576 95.9934 146.844L95.9603 146.028L96.9053 145.997C102.26 145.781 107.615 145.611 112.97 145.519C118.324 145.395 123.679 145.35 129.034 145.272L130.692 145.241L130.725 146.844C130.825 151.668 130.808 156.507 130.775 161.346ZM138.981 138.137C131.968 138.106 124.956 138.044 117.943 137.797C110.931 137.582 103.918 137.243 96.9053 136.611C103.918 135.963 110.931 135.625 117.943 135.409C124.956 135.162 131.968 135.1 138.981 135.07C145.994 135.085 153.006 135.162 160.019 135.409C167.048 135.625 174.061 135.963 181.074 136.611C174.061 137.243 167.048 137.582 160.019 137.813C153.006 138.044 145.994 138.122 138.981 138.137ZM178.852 167.526C174.741 167.773 170.629 167.835 166.518 167.866C162.39 167.835 158.278 167.758 154.167 167.511C150.035 167.322 145.918 166.926 141.832 166.324C145.918 165.718 150.035 165.317 154.167 165.123C158.278 164.876 162.39 164.814 166.518 164.783C170.629 164.799 174.741 164.876 178.852 165.123C182.99 165.309 187.113 165.71 191.203 166.324C187.111 166.923 182.988 167.324 178.852 167.526ZM178.852 155.783C174.741 156.029 170.629 156.091 166.518 156.122C162.39 156.091 158.278 156.029 154.167 155.783C150.036 155.581 145.919 155.18 141.832 154.581C145.919 153.982 150.036 153.581 154.167 153.379C158.278 153.132 162.39 153.07 166.518 153.039C170.629 153.07 174.741 153.132 178.852 153.379C182.989 153.573 187.112 153.974 191.203 154.581C187.113 155.194 182.99 155.596 178.852 155.783ZM212.191 125.068C211.892 129.167 211.461 133.097 211.014 136.719C208.113 137.088 204.863 137.412 201.514 137.644C198.149 137.859 194.668 137.998 191.203 137.982L189.711 137.967L189.727 136.611C189.727 132.588 190.357 128.582 190.589 124.575C190.722 122.571 190.705 120.568 190.672 118.549C190.606 116.545 190.44 114.542 190.291 112.538L190.241 111.768L191.203 111.69C194.485 111.444 197.768 111.212 201.051 111.136L205.974 110.997C207.615 110.966 209.257 110.889 210.898 110.889L212.655 110.905L212.672 112.538C212.721 116.746 212.489 120.984 212.191 125.068ZM209.141 114.156C208.079 114.141 207.035 114.11 205.974 114.079L201.051 113.941C198.05 113.879 195.049 113.663 192.048 113.447C191.915 115.143 191.783 116.853 191.733 118.549C191.7 120.568 191.684 122.571 191.8 124.575C192.015 128.135 192.512 131.694 192.629 135.254C195.264 135.27 197.884 135.394 200.586 135.563C203.802 135.794 207.118 136.118 210.782 136.488C210.334 132.095 209.903 127.996 209.605 124.066C209.356 120.691 209.157 117.424 209.141 114.156ZM127.641 174.693C127.476 170.008 127.376 165.369 127.31 160.73C127.277 156.615 127.277 152.5 127.343 148.385C122.552 148.323 117.761 148.277 112.97 148.17C107.897 148.061 102.84 147.907 97.7674 147.707C97.6181 152.145 97.436 156.6 97.419 161.038C97.353 165.77 97.436 170.501 97.6347 175.232L98.2649 189.426C98.3972 193.726 98.3972 198.026 98.3474 202.31C103.056 202.372 107.764 202.511 112.555 202.711L120.612 203.096L128.918 203.512L128.222 188.918C127.99 184.109 127.791 179.378 127.641 174.693V174.693ZM128.222 188.918C127.99 184.109 127.791 179.378 127.641 174.693C127.476 170.008 127.376 165.369 127.31 160.73C127.277 156.615 127.277 152.5 127.343 148.385C122.552 148.323 117.761 148.277 112.97 148.17C107.897 148.061 102.84 147.907 97.7674 147.707C97.6181 152.145 97.436 156.6 97.419 161.038C97.353 165.77 97.436 170.501 97.6347 175.232L98.2649 189.426C98.3972 193.726 98.3972 198.026 98.3474 202.31C103.056 202.372 107.764 202.511 112.555 202.711L120.612 203.096L128.918 203.512L128.222 188.918ZM209.605 124.066C209.356 120.691 209.157 117.424 209.141 114.156C208.079 114.141 207.035 114.11 205.974 114.079L201.051 113.941C198.05 113.879 195.049 113.663 192.048 113.447C191.915 115.143 191.783 116.853 191.733 118.549C191.7 120.568 191.684 122.571 191.8 124.575C192.015 128.135 192.512 131.694 192.629 135.254C195.264 135.27 197.884 135.394 200.586 135.563C203.802 135.794 207.118 136.118 210.782 136.488C210.334 132.095 209.903 127.996 209.605 124.066L209.605 124.066ZM209.605 124.066C209.356 120.691 209.157 117.424 209.141 114.156C208.079 114.141 207.035 114.11 205.974 114.079L201.051 113.941C198.05 113.879 195.049 113.663 192.048 113.447C191.915 115.143 191.783 116.853 191.733 118.549C191.7 120.568 191.684 122.571 191.8 124.575C192.015 128.135 192.512 131.694 192.629 135.254C195.264 135.27 197.884 135.394 200.586 135.563C203.802 135.794 207.118 136.118 210.782 136.488C210.334 132.095 209.903 127.996 209.605 124.066L209.605 124.066ZM128.222 188.918C127.99 184.109 127.791 179.378 127.641 174.693C127.476 170.008 127.376 165.369 127.31 160.73C127.277 156.615 127.277 152.5 127.343 148.385C122.552 148.323 117.761 148.277 112.97 148.17C107.897 148.061 102.84 147.907 97.7674 147.707C97.6181 152.145 97.436 156.6 97.419 161.038C97.353 165.77 97.436 170.501 97.6347 175.232L98.2649 189.426C98.3972 193.726 98.3972 198.026 98.3474 202.31C103.056 202.372 107.764 202.511 112.555 202.711L120.612 203.096L128.918 203.512L128.222 188.918ZM128.222 188.918C127.99 184.109 127.791 179.378 127.641 174.693C127.476 170.008 127.376 165.369 127.31 160.73C127.277 156.615 127.277 152.5 127.343 148.385C122.552 148.323 117.761 148.277 112.97 148.17C107.897 148.061 102.84 147.907 97.7674 147.707C97.6181 152.145 97.436 156.6 97.419 161.038C97.353 165.77 97.436 170.501 97.6347 175.232L98.2649 189.426C98.3972 193.726 98.3972 198.026 98.3474 202.31C103.056 202.372 107.764 202.511 112.555 202.711L120.612 203.096L128.918 203.512L128.222 188.918ZM209.605 124.066C209.356 120.691 209.157 117.424 209.141 114.156C208.079 114.141 207.035 114.11 205.974 114.079L201.051 113.941C198.05 113.879 195.049 113.663 192.048 113.447C191.915 115.143 191.783 116.853 191.733 118.549C191.7 120.568 191.684 122.571 191.8 124.575C192.015 128.135 192.512 131.694 192.629 135.254C195.264 135.27 197.884 135.394 200.586 135.563C203.802 135.794 207.118 136.118 210.782 136.488C210.334 132.095 209.903 127.996 209.605 124.066L209.605 124.066ZM209.605 124.066C209.356 120.691 209.157 117.424 209.141 114.156C208.079 114.141 207.035 114.11 205.974 114.079L201.051 113.941C198.05 113.879 195.049 113.663 192.048 113.447C191.915 115.143 191.783 116.853 191.733 118.549C191.7 120.568 191.684 122.571 191.8 124.575C192.015 128.135 192.512 131.694 192.629 135.254C195.264 135.27 197.884 135.394 200.586 135.563C203.802 135.794 207.118 136.118 210.782 136.488C210.334 132.095 209.903 127.996 209.605 124.066L209.605 124.066ZM128.222 188.918C127.99 184.109 127.791 179.378 127.641 174.693C127.476 170.008 127.376 165.369 127.31 160.73C127.277 156.615 127.277 152.5 127.343 148.385C122.552 148.323 117.761 148.277 112.97 148.17C107.897 148.061 102.84 147.907 97.7674 147.707C97.6181 152.145 97.436 156.6 97.419 161.038C97.353 165.77 97.436 170.501 97.6347 175.232L98.2649 189.426C98.3972 193.726 98.3972 198.026 98.3474 202.31C103.056 202.372 107.764 202.511 112.555 202.711L120.612 203.096L128.918 203.512L128.222 188.918ZM209.605 124.066C209.356 120.691 209.157 117.424 209.141 114.156C208.079 114.141 207.035 114.11 205.974 114.079L201.051 113.941C198.05 113.879 195.049 113.663 192.048 113.447C191.915 115.143 191.783 116.853 191.733 118.549C191.7 120.568 191.684 122.571 191.8 124.575C192.015 128.135 192.512 131.694 192.629 135.254C195.264 135.27 197.884 135.394 200.586 135.563C203.802 135.794 207.118 136.118 210.782 136.488C210.334 132.095 209.903 127.996 209.605 124.066L209.605 124.066ZM209.605 124.066C209.356 120.691 209.157 117.424 209.141 114.156C208.079 114.141 207.035 114.11 205.974 114.079L201.051 113.941C198.05 113.879 195.049 113.663 192.048 113.447C191.915 115.143 191.783 116.853 191.733 118.549C191.7 120.568 191.684 122.571 191.8 124.575C192.015 128.135 192.512 131.694 192.629 135.254C195.264 135.27 197.884 135.394 200.586 135.563C203.802 135.794 207.118 136.118 210.782 136.488C210.334 132.095 209.903 127.996 209.605 124.066L209.605 124.066ZM761.386 150.881C748.362 150.962 735.338 150.957 722.314 151.11L683.242 151.629C670.218 151.85 657.194 151.879 644.17 151.968C637.624 152.008 631.223 152.054 624.558 151.926C621.052 151.725 617.673 150.631 614.791 148.763C611.909 146.896 609.636 144.327 608.22 141.339C607.513 139.855 607.043 138.284 606.825 136.674C606.708 135.874 606.647 135.067 606.642 134.26L606.663 131.982L606.77 122.902L606.988 104.741L607.21 86.5794L607.309 68.4182C607.409 56.311 607.351 44.2037 607.301 32.0965L607.267 23.0159C607.212 21.465 607.324 19.9129 607.6 18.3826C607.942 16.846 608.497 15.3572 609.251 13.9533C610.786 11.1295 613.129 8.75397 616.022 7.08812C618.927 5.40971 622.271 4.50251 625.691 4.46485C651.74 4.28725 677.787 3.98173 703.835 3.90799L742.908 3.7635C749.461 3.74996 755.84 3.68826 762.536 3.8034C766.096 4.00199 769.528 5.10741 772.457 6.99857C775.385 8.88973 777.698 11.4937 779.141 14.5252C779.859 16.0335 780.346 17.6277 780.588 19.2616C780.714 20.0758 780.784 20.8967 780.796 21.7193L780.799 23.9987L780.784 33.0793C780.777 39.1325 780.774 45.1865 780.693 51.2405C780.564 63.3478 780.485 75.455 780.245 87.5622L779.665 123.885L779.562 132.965C779.595 134.498 779.462 136.03 779.165 137.538C778.807 139.041 778.24 140.494 777.48 141.861C775.939 144.587 773.625 146.869 770.788 148.46C767.951 150.05 764.699 150.887 761.387 150.881L761.386 150.881ZM761.386 150.598C764.628 150.57 767.8 149.718 770.558 148.135C773.311 146.561 775.543 144.312 777.009 141.634C777.729 140.302 778.261 138.888 778.592 137.429C778.862 135.955 778.972 134.459 778.92 132.965L778.817 123.885L778.237 87.5622C777.997 75.455 777.918 63.3478 777.789 51.2405C777.708 45.1865 777.705 39.1325 777.698 33.0793L777.683 23.9987L777.674 21.7381C777.659 21.0474 777.597 20.3582 777.488 19.6748C777.283 18.307 776.871 16.973 776.265 15.712C775.052 13.1786 773.111 11.0047 770.656 9.42882C768.201 7.85293 765.327 6.93585 762.349 6.77813C761.635 6.73072 760.827 6.72695 760.001 6.73446L757.56 6.73823L752.676 6.745L742.907 6.71943L703.835 6.57494C677.787 6.5012 651.74 6.19568 625.691 6.01808C622.553 6.00207 619.471 6.78539 616.778 8.28301C614.085 9.78064 611.885 11.9353 610.417 14.5132C609.69 15.8085 609.146 17.1857 608.799 18.6107C608.507 20.0629 608.375 21.5389 608.406 23.0159L608.373 32.0965C608.322 44.2038 608.265 56.311 608.365 68.4182L608.464 86.5795L608.686 104.741L608.903 122.902L609.01 131.982L609.043 134.245C609.065 134.95 609.136 135.654 609.255 136.351C609.484 137.743 609.913 139.1 610.53 140.386C611.77 142.962 613.75 145.171 616.252 146.771C618.754 148.37 621.681 149.298 624.713 149.454L644.17 149.511C657.194 149.6 670.218 149.629 683.242 149.85L722.314 150.369C735.338 150.521 748.362 150.516 761.386 150.598Z" fill="white"/>
<path d="M828.994 263.636C815.97 263.717 802.946 263.712 789.922 263.865L750.85 264.384C737.826 264.604 724.801 264.634 711.778 264.723C705.231 264.764 698.83 264.809 692.165 264.68C688.659 264.48 685.28 263.386 682.398 261.518C679.516 259.651 677.243 257.082 675.827 254.093C675.121 252.61 674.651 251.039 674.432 249.429C674.316 248.629 674.255 247.822 674.25 247.014L674.27 244.737L674.378 235.657L674.595 217.495L674.817 199.334L674.916 181.174C675.016 169.066 674.958 156.958 674.908 144.851L674.875 135.771C674.82 134.22 674.931 132.668 675.207 131.138C675.549 129.601 676.104 128.112 676.858 126.708C678.393 123.884 680.736 121.509 683.63 119.843C686.535 118.165 689.878 117.258 693.298 117.22C719.347 117.042 745.395 116.736 771.443 116.663L810.515 116.519C817.068 116.505 823.447 116.443 830.143 116.559C833.703 116.757 837.135 117.863 840.064 119.754C842.993 121.645 845.305 124.249 846.748 127.281C847.466 128.789 847.953 130.383 848.195 132.017C848.321 132.831 848.391 133.652 848.404 134.474L848.406 136.753L848.391 145.834C848.385 151.888 848.382 157.941 848.301 163.995C848.172 176.102 848.093 188.21 847.852 200.317L847.272 236.639L847.169 245.72C847.202 247.253 847.069 248.785 846.773 250.293C846.414 251.795 845.847 253.248 845.087 254.615C843.547 257.342 841.232 259.625 838.395 261.215C835.558 262.805 832.307 263.642 828.994 263.636L828.994 263.636ZM828.994 263.352C832.235 263.325 835.407 262.474 838.166 260.891C840.918 259.316 843.15 257.067 844.616 254.39C845.337 253.057 845.869 251.643 846.199 250.184C846.469 248.71 846.58 247.214 846.528 245.72L846.424 236.639L845.844 200.317C845.604 188.21 845.525 176.102 845.396 163.995C845.315 157.941 845.312 151.888 845.305 145.834L845.29 136.753L845.281 134.493C845.266 133.802 845.205 133.113 845.096 132.429C844.89 131.062 844.478 129.728 843.873 128.467C842.659 125.933 840.718 123.76 838.263 122.184C835.808 120.608 832.934 119.691 829.956 119.534C829.243 119.486 828.434 119.482 827.609 119.49L825.167 119.493L820.283 119.5L810.515 119.474L771.443 119.33C745.395 119.257 719.347 118.951 693.299 118.773C690.161 118.757 687.078 119.54 684.385 121.038C681.693 122.535 679.493 124.69 678.024 127.268C677.297 128.563 676.753 129.941 676.406 131.365C676.114 132.818 675.983 134.294 676.014 135.771L675.98 144.851C675.93 156.958 675.872 169.066 675.972 181.174L676.071 199.334L676.293 217.495L676.511 235.657L676.618 244.737L676.651 246.999C676.673 247.705 676.744 248.408 676.863 249.106C677.092 250.498 677.52 251.855 678.137 253.141C679.378 255.717 681.358 257.926 683.86 259.525C686.362 261.125 689.289 262.053 692.321 262.208L711.778 262.266C724.802 262.354 737.826 262.384 750.85 262.604L789.922 263.123C802.946 263.276 815.97 263.271 828.994 263.352Z" fill="white"/>
<path d="M693.299 117.997C690.955 117.997 688.633 118.426 686.467 119.261C684.301 120.095 682.332 121.317 680.674 122.858C679.016 124.4 677.701 126.229 676.804 128.243C675.907 130.257 675.445 132.415 675.445 134.595V150.74H761.387C766.122 150.74 770.663 148.991 774.012 145.878C777.36 142.766 779.241 138.544 779.241 134.142V117.997H693.299ZM144.246 375.721C120.105 375.676 95.9638 376.131 71.8232 376.469C59.7526 376.689 47.6822 376.719 35.6115 376.808C29.5424 376.85 23.6177 376.89 17.4292 376.769C14.1623 376.581 11.0142 375.561 8.32949 373.821C5.64483 372.08 3.52725 369.686 2.20875 366.901C1.55056 365.519 1.11339 364.055 0.911136 362.556C0.803411 361.81 0.747309 361.059 0.743164 360.306L0.76422 358.195L0.871493 349.779L1.08926 332.948L1.31146 316.116L1.41021 299.285C1.51018 288.064 1.45272 276.843 1.40213 265.622L1.36894 257.206C1.3172 255.766 1.41971 254.325 1.67493 252.904C1.99166 251.476 2.50618 250.092 3.20566 248.786C4.63138 246.161 6.80794 243.952 9.49621 242.401C12.1965 240.839 15.3053 239.994 18.4856 239.957C42.6266 239.685 66.7676 239.499 90.9086 239.399L127.12 239.256C133.197 239.24 139.098 239.183 145.318 239.292C148.639 239.477 151.84 240.509 154.572 242.273C157.303 244.037 159.46 246.466 160.806 249.294C161.475 250.701 161.929 252.188 162.155 253.712C162.272 254.471 162.337 255.237 162.349 256.004L162.351 258.117L162.336 266.533C162.33 272.144 162.327 277.754 162.246 283.364C162.116 294.585 162.038 305.806 161.797 317.028L161.217 350.69L161.114 359.106C161.144 360.528 161.02 361.95 160.744 363.349C160.411 364.742 159.884 366.09 159.178 367.358C157.744 369.884 155.595 371.998 152.964 373.471C150.332 374.945 147.318 375.723 144.246 375.721ZM144.246 375.437C147.241 375.408 150.171 374.619 152.72 373.156C155.268 371.692 157.339 369.609 158.708 367.132C159.374 365.899 159.865 364.591 160.17 363.24C160.42 361.875 160.521 360.49 160.472 359.106L160.37 350.69L159.79 317.028C159.549 305.806 159.47 294.585 159.341 283.365C159.26 277.754 159.257 272.144 159.25 266.533L159.235 258.118L159.226 256.023C159.213 255.388 159.156 254.754 159.056 254.126C158.866 252.867 158.487 251.64 157.93 250.48C156.814 248.151 155.028 246.152 152.771 244.703C150.513 243.254 147.87 242.411 145.131 242.267C144.477 242.223 143.728 242.22 142.962 242.227L140.699 242.231L136.173 242.237L127.12 242.211L90.9085 242.067C66.7675 241.985 42.6265 241.799 18.4855 241.51C15.5884 241.498 12.7428 242.222 10.2555 243.603C7.76833 244.984 5.73391 246.97 4.37168 249.347C3.69925 250.544 3.19564 251.816 2.87332 253.132C2.60233 254.475 2.47972 255.84 2.50742 257.206L2.47465 265.623C2.42405 276.843 2.36658 288.064 2.46614 299.285L2.56531 316.116L2.78751 332.948L3.00486 349.78L3.11214 358.195L3.14451 360.292C3.16592 360.942 3.23161 361.59 3.34121 362.232C3.55434 363.514 3.95029 364.764 4.51861 365.949C5.6621 368.322 7.48627 370.356 9.7911 371.828C12.0959 373.301 14.7925 374.155 17.585 374.297L35.6115 374.351C47.6822 374.44 59.7525 374.469 71.8232 374.689C95.9638 375.026 120.105 375.482 144.246 375.437Z" fill="white"/>
<path d="M191.551 177.544C191.435 177.56 191.319 177.575 191.203 177.591V177.499C191.319 177.514 191.435 177.529 191.551 177.544ZM191.551 199.337C191.435 199.352 191.319 199.367 191.203 199.383V199.291C191.319 199.306 191.435 199.322 191.551 199.337Z" fill="white"/>
<path d="M213.626 182.447C220.64 181.86 227.654 181.553 234.669 181.344C241.683 181.118 248.697 181.057 255.711 181.03C262.726 181.054 269.74 181.115 276.754 181.34C283.768 181.547 290.782 181.856 297.796 182.447C290.782 183.036 283.768 183.345 276.754 183.553C269.74 183.778 262.726 183.839 255.711 183.864C248.697 183.835 241.683 183.775 234.669 183.548C227.654 183.34 220.64 183.033 213.626 182.447ZM213.626 194.625C220.64 194.039 227.654 193.732 234.669 193.524C241.683 193.297 248.697 193.237 255.711 193.208C262.726 193.233 269.74 193.294 276.754 193.519C283.768 193.727 290.782 194.035 297.796 194.625C290.782 195.216 283.768 195.525 276.754 195.732C269.74 195.957 262.726 196.018 255.711 196.042C248.697 196.014 241.683 195.954 234.669 195.728C227.654 195.519 220.64 195.212 213.626 194.625ZM213.626 206.511C220.64 205.924 227.654 205.617 234.669 205.409C241.683 205.183 248.697 205.122 255.711 205.094C262.726 205.119 269.74 205.179 276.754 205.405C283.768 205.613 290.782 205.921 297.796 206.511C290.782 207.101 283.768 207.41 276.754 207.617C269.74 207.843 262.726 207.903 255.711 207.928C248.697 207.9 241.683 207.839 234.669 207.614C227.654 207.404 220.64 207.098 213.626 206.511ZM327.737 206.611C324.798 206.957 321.555 207.25 318.202 207.462C314.844 207.663 311.373 207.799 307.928 207.775L306.565 207.766L306.568 206.511C306.578 202.5 307.148 198.489 307.37 194.479C307.487 192.473 307.473 190.468 307.438 188.462C307.387 186.457 307.224 184.452 307.093 182.447L307.046 181.732L307.928 181.67C311.212 181.441 314.495 181.224 317.778 181.151L322.703 181.027C324.345 180.993 325.987 180.923 327.629 180.935L329.238 180.947L329.254 182.446C329.301 186.638 329.088 190.855 328.82 194.938C328.544 199.023 328.147 202.959 327.737 206.611ZM327.521 206.411C327.111 202.041 326.713 197.956 326.438 194.02C326.17 190.081 325.957 186.276 326.004 182.447L327.629 183.957C325.987 183.969 324.345 183.899 322.703 183.865L317.778 183.741C314.495 183.669 311.212 183.451 307.928 183.222L308.763 182.447C308.632 184.452 308.469 186.457 308.418 188.462C308.383 190.468 308.369 192.473 308.486 194.479C308.708 198.489 309.278 202.5 309.288 206.511L307.928 205.246C311.05 205.224 314.146 205.36 317.355 205.561C320.569 205.772 323.893 206.066 327.521 206.411ZM245.875 273.633L238.092 274.026L230.072 274.375C224.659 274.574 219.139 274.725 213.626 274.763L212.319 274.772L212.302 273.532C212.236 268.8 212.238 264.067 212.374 259.336L212.945 245.139C213.128 240.407 213.196 235.674 213.149 230.942C213.13 226.211 212.948 221.478 212.791 216.746L212.766 216L213.626 215.97C218.983 215.779 224.34 215.62 229.696 215.526L245.767 215.303L247.293 215.282L247.319 216.746C247.405 221.564 247.399 226.399 247.356 231.225C247.294 236.047 247.199 240.862 247.028 245.625C246.766 255.176 246.339 264.581 245.875 273.633ZM245.659 273.432C245.194 263.556 244.768 254.03 244.506 244.654C244.335 239.952 244.24 235.303 244.178 230.661C244.134 226.022 244.129 221.393 244.215 216.746L245.767 218.189L229.696 217.966C224.34 217.872 218.983 217.712 213.626 217.522L214.461 216.746C214.304 221.478 214.122 226.211 214.103 230.942C214.051 235.675 214.119 240.407 214.307 245.139L214.878 259.336C215.013 264.067 215.015 268.8 214.95 273.532L213.626 272.302C218.827 272.339 224.021 272.49 229.321 272.69L245.659 273.432ZM258.552 224.49C264.27 223.903 269.988 223.596 275.706 223.388C281.424 223.162 287.141 223.101 292.859 223.073C298.577 223.098 304.294 223.158 310.012 223.384C315.73 223.592 321.448 223.9 327.165 224.49C321.448 225.08 315.73 225.389 310.012 225.597C304.294 225.822 298.577 225.882 292.859 225.907C287.141 225.879 281.424 225.819 275.706 225.593C269.988 225.384 264.27 225.077 258.552 224.49ZM258.552 236.225C264.27 235.638 269.988 235.331 275.706 235.123C281.424 234.897 287.141 234.836 292.859 234.808C298.577 234.833 304.294 234.893 310.012 235.119C315.73 235.327 321.448 235.634 327.165 236.225C321.448 236.815 315.73 237.124 310.012 237.331C304.294 237.557 298.577 237.617 292.859 237.642C287.141 237.613 281.424 237.553 275.706 237.327C269.988 237.118 264.27 236.811 258.552 236.225ZM258.552 247.45C264.299 246.863 270.045 246.556 275.792 246.348C281.539 246.121 287.285 246.061 293.032 246.033C298.778 246.058 304.524 246.118 310.271 246.343C316.017 246.551 321.764 246.86 327.511 247.45C321.764 248.04 316.017 248.349 310.271 248.557C304.524 248.782 298.778 248.843 293.032 248.867C287.285 248.839 281.539 248.779 275.792 248.552C270.045 248.344 264.299 248.037 258.552 247.45ZM258.552 258.015C264.27 257.428 269.988 257.122 275.706 256.913C281.424 256.687 287.141 256.627 292.859 256.598C298.577 256.623 304.294 256.683 310.012 256.909C315.73 257.116 321.448 257.425 327.165 258.015C321.448 258.606 315.73 258.914 310.012 259.121C304.294 259.347 298.577 259.407 292.859 259.432C287.141 259.404 281.424 259.343 275.706 259.117C269.988 258.909 264.27 258.602 258.552 258.015ZM258.552 269.24C264.299 268.653 270.045 268.347 275.792 268.138C281.539 267.912 287.285 267.852 293.032 267.823C298.778 267.848 304.524 267.908 310.271 268.134C316.017 268.342 321.764 268.65 327.511 269.24C321.764 269.83 316.017 270.139 310.271 270.346C304.524 270.572 298.778 270.632 293.032 270.657C287.285 270.629 281.539 270.568 275.792 270.343C270.045 270.134 264.299 269.827 258.552 269.24Z" fill="white"/>
<path d="M333.507 295.554C309.366 295.51 285.225 295.965 261.084 296.302C249.014 296.522 236.943 296.552 224.873 296.64C218.804 296.683 212.879 296.723 206.691 296.602C203.424 296.414 200.276 295.394 197.591 293.654C194.906 291.913 192.789 289.519 191.47 286.734C190.812 285.352 190.375 283.888 190.173 282.389C190.065 281.643 190.009 280.892 190.004 280.139L190.026 278.028L190.133 269.612L190.35 252.782L190.573 235.95L190.672 219.118C190.771 207.898 190.714 196.676 190.663 185.455L190.631 177.04C190.578 175.6 190.681 174.159 190.936 172.738C191.253 171.309 191.768 169.925 192.467 168.62C193.893 165.995 196.069 163.785 198.757 162.235C201.458 160.673 204.567 159.828 207.747 159.791C231.888 159.519 256.029 159.333 280.17 159.233L316.381 159.09C322.458 159.074 328.359 159.017 334.58 159.126C337.9 159.311 341.101 160.343 343.833 162.107C346.565 163.871 348.722 166.3 350.067 169.128C350.737 170.535 351.191 172.022 351.416 173.545C351.534 174.305 351.599 175.07 351.611 175.838L351.612 177.951L351.598 186.367C351.591 191.977 351.588 197.588 351.507 203.198C351.378 214.419 351.299 225.64 351.058 236.861L350.478 270.524L350.376 278.939C350.406 280.361 350.282 281.783 350.006 283.182C349.672 284.576 349.146 285.924 348.439 287.192C347.005 289.718 344.857 291.831 342.225 293.305C339.594 294.779 336.579 295.556 333.507 295.554ZM333.507 295.27C336.503 295.241 339.433 294.453 341.981 292.989C344.53 291.526 346.6 289.443 347.969 286.966C348.635 285.732 349.127 284.424 349.432 283.073C349.682 281.708 349.783 280.323 349.734 278.939L349.631 270.524L349.051 236.861C348.81 225.64 348.731 214.419 348.602 203.198C348.521 197.588 348.518 191.977 348.512 186.367L348.497 177.951L348.487 175.856C348.474 175.221 348.417 174.587 348.317 173.959C348.128 172.701 347.749 171.474 347.192 170.314C346.075 167.984 344.29 165.986 342.032 164.537C339.775 163.088 337.131 162.245 334.392 162.1C333.739 162.057 332.99 162.053 332.224 162.06L329.961 162.063L325.434 162.07L316.381 162.045L280.17 161.901C256.029 161.817 231.888 161.632 207.747 161.343C204.85 161.331 202.004 162.055 199.517 163.436C197.03 164.817 194.995 166.804 193.633 169.181C192.96 170.377 192.457 171.649 192.135 172.966C191.864 174.309 191.741 175.674 191.769 177.04L191.736 185.455C191.685 196.676 191.628 207.898 191.728 219.119L191.827 235.95L192.049 252.782L192.266 269.612L192.374 278.029L192.406 280.125C192.427 280.775 192.493 281.423 192.603 282.065C192.816 283.347 193.212 284.597 193.78 285.782C194.923 288.154 196.748 290.189 199.053 291.661C201.357 293.134 204.054 293.988 206.847 294.13L224.873 294.184C236.943 294.272 249.014 294.302 261.084 294.522C285.225 294.86 309.366 295.315 333.507 295.27ZM632.224 100.365C642.443 99.5859 652.662 99.1773 662.881 98.9003C673.1 98.5993 683.319 98.5196 693.538 98.4819C703.757 98.5151 713.976 98.5948 724.195 98.8943C734.414 99.1705 744.633 99.5806 754.852 100.365C744.633 101.15 734.414 101.56 724.195 101.837C713.976 102.136 703.757 102.217 693.538 102.249C683.319 102.211 673.1 102.132 662.881 101.831C652.662 101.554 642.443 101.146 632.224 100.365Z" fill="white"/>
<path d="M297.246 574.072C273.105 574.028 248.964 574.483 224.823 574.82C212.753 575.041 200.682 575.07 188.612 575.159C182.542 575.202 176.618 575.242 170.43 575.12C167.163 574.932 164.015 573.912 161.33 572.172C158.645 570.431 156.527 568.038 155.209 565.253C154.55 563.871 154.113 562.407 153.912 560.907C153.804 560.161 153.747 559.41 153.743 558.658L153.765 556.547L153.872 548.131L154.089 531.3L154.311 514.468L154.411 497.637C154.51 486.416 154.453 475.194 154.402 463.974L154.369 455.558C154.317 454.118 154.42 452.677 154.675 451.256C154.992 449.828 155.506 448.444 156.206 447.138C157.631 444.513 159.808 442.304 162.496 440.753C165.197 439.191 168.306 438.346 171.486 438.309C195.627 438.037 219.768 437.851 243.909 437.752L280.12 437.608C286.197 437.592 292.098 437.536 298.318 437.644C301.639 437.829 304.84 438.861 307.572 440.625C310.304 442.389 312.46 444.819 313.806 447.646C314.475 449.053 314.93 450.54 315.155 452.064C315.273 452.823 315.338 453.589 315.35 454.356L315.351 456.469L315.337 464.885C315.33 470.495 315.327 476.106 315.246 481.716C315.117 492.937 315.038 504.158 314.797 515.379L314.217 549.042L314.114 557.457C314.144 558.88 314.02 560.301 313.744 561.7C313.411 563.094 312.884 564.442 312.178 565.71C310.744 568.236 308.596 570.35 305.964 571.823C303.333 573.297 300.318 574.074 297.246 574.072ZM297.246 573.788C300.242 573.76 303.172 572.971 305.72 571.507C308.269 570.044 310.339 567.962 311.708 565.484C312.374 564.251 312.866 562.942 313.171 561.591C313.42 560.226 313.521 558.841 313.472 557.457L313.37 549.042L312.79 515.379C312.549 504.158 312.47 492.937 312.341 481.716C312.26 476.106 312.257 470.495 312.25 464.885L312.235 456.469L312.226 454.375C312.213 453.739 312.156 453.105 312.056 452.477C311.866 451.219 311.488 449.992 310.931 448.832C309.814 446.503 308.029 444.504 305.771 443.055C303.513 441.606 300.87 440.763 298.131 440.619C297.477 440.575 296.728 440.571 295.963 440.579L293.699 440.582L289.173 440.589L280.12 440.563L243.908 440.419C219.768 440.336 195.627 440.15 171.486 439.862C168.589 439.85 165.743 440.573 163.256 441.955C160.769 443.336 158.734 445.322 157.372 447.699C156.699 448.896 156.195 450.168 155.873 451.484C155.603 452.827 155.48 454.192 155.508 455.558L155.475 463.974C155.424 475.195 155.367 486.416 155.467 497.637L155.565 514.468L155.788 531.3L156.005 548.131L156.113 556.547L156.145 558.643C156.166 559.293 156.232 559.941 156.342 560.583C156.554 561.865 156.95 563.115 157.519 564.3C158.662 566.673 160.486 568.707 162.791 570.179C165.096 571.652 167.793 572.506 170.585 572.648L188.612 572.703C200.682 572.791 212.753 572.82 224.823 573.041C248.964 573.378 273.105 573.834 297.246 573.788Z" fill="white"/>
<path d="M642.362 22.8862C643.201 30.285 643.64 37.6845 643.938 45.0832C644.262 52.4827 644.348 59.8814 644.389 67.2809C644.353 74.6796 644.267 82.0791 643.944 89.4778C643.647 96.8773 643.207 104.276 642.362 111.676C641.518 104.276 641.077 96.8773 640.78 89.4779C640.457 82.0792 640.371 74.6797 640.336 67.2809C640.376 59.8815 640.463 52.4827 640.786 45.0833C641.084 37.6845 641.523 30.285 642.362 22.8862ZM675.443 100.909C671.907 101.109 668.206 101.281 664.436 101.418C660.675 101.584 656.82 101.647 652.987 101.678L652.104 101.685L652.088 100.842C651.984 95.0879 652.349 89.3326 652.571 83.5781C652.66 80.7004 652.713 77.8227 652.652 74.9459C652.64 72.0683 652.536 69.1906 652.432 66.3138L652.414 65.8194L652.987 65.7976C656.718 65.6554 660.449 65.55 664.179 65.4815L675.371 65.3303L676.42 65.316L676.429 66.3139C676.456 69.2472 676.472 72.197 676.412 75.1304C676.38 78.0697 676.289 80.9925 676.188 83.8927C676.026 89.7089 675.73 95.4115 675.443 100.909ZM675.3 100.776C675.012 94.7643 674.717 88.9572 674.555 83.2636C674.454 80.4086 674.363 77.5769 674.33 74.7617C674.27 71.9405 674.287 69.1344 674.314 66.3139L675.371 67.2967L664.179 67.1456C660.448 67.0756 656.718 66.9702 652.987 66.8295L653.542 66.314C653.438 69.1909 653.333 72.0685 653.322 74.9461C653.26 77.823 653.314 80.7006 653.402 83.5782C653.624 89.3327 653.989 95.088 653.885 100.843L652.987 100.007C656.616 100.039 660.221 100.101 663.923 100.267C667.614 100.404 671.374 100.577 675.3 100.776Z" fill="white"/>
<path d="M697.782 100.91C694.194 101.052 690.509 101.23 686.738 101.336C682.979 101.462 679.156 101.581 675.326 101.598L674.523 101.601L674.514 100.843C674.466 96.561 674.377 92.2785 674.44 87.9967C674.492 83.7141 674.683 79.4323 674.807 75.1497C674.972 70.8679 675.039 66.5858 675.006 62.3035C674.99 58.0209 674.911 53.7386 674.771 49.4565L674.755 48.9569L675.326 48.9403C682.788 48.7251 690.249 48.5919 697.71 48.5407L698.685 48.5332L698.696 49.4565C698.744 53.7917 698.801 58.145 698.775 62.4923C698.747 66.8359 698.706 71.1847 698.587 75.4876C698.47 79.7875 698.405 84.1024 698.24 88.3308L697.782 100.91ZM697.639 100.777L697.181 87.6618C697.016 83.3258 696.951 79.0771 696.834 74.8126C696.715 70.5511 696.674 66.3355 696.646 62.1146C696.62 57.8975 696.677 53.6864 696.725 49.4565L697.71 50.3723C690.249 50.3144 682.788 50.1812 675.326 49.9728L675.881 49.4565C675.748 53.7391 675.67 58.0214 675.646 62.3035C675.617 66.5853 675.683 70.8674 675.845 75.1497C675.969 79.4323 676.161 83.7141 676.212 87.9967C676.275 92.2785 676.187 96.561 676.138 100.843L675.326 100.088C678.958 100.105 682.597 100.224 686.299 100.35L697.639 100.777Z" fill="white"/>
<path d="M720.166 100.909L709.11 101.31C705.347 101.401 701.539 101.565 697.71 101.575L696.927 101.577L696.922 100.842C696.891 95.9292 696.759 91.016 696.809 86.1028C696.837 81.1904 697.025 76.2772 697.158 71.3641C697.332 66.4509 697.378 61.5377 697.395 56.6245L697.33 49.2551L697.155 41.8858L697.143 41.3839L697.71 41.3697C705.171 41.1823 712.633 41.0408 720.094 40.9911L721.05 40.9844L721.057 41.8859C721.093 46.8487 721.186 51.8356 721.157 56.8135C721.162 61.7952 721.084 66.7663 720.99 71.7089C720.865 76.6378 720.805 81.5871 720.637 86.4469L720.166 100.909ZM720.023 100.776L719.551 85.7604L719.199 71.0194C719.105 66.1356 719.026 61.2804 719.032 56.4364C719.003 51.588 719.095 46.7485 719.132 41.8857L720.094 42.7804C712.633 42.73 705.171 42.5885 697.71 42.4012L698.265 41.8857L698.089 49.2551L698.025 56.6245C698.042 61.5377 698.088 66.4508 698.261 71.364C698.395 76.2772 698.582 81.1904 698.61 86.1028C698.661 91.016 698.529 95.9292 698.497 100.842L697.71 100.11C701.343 100.12 704.996 100.283 708.694 100.376L720.023 100.776Z" fill="white"/>
<path d="M742.552 100.91C738.963 101.052 735.279 101.23 731.507 101.336C727.748 101.462 723.925 101.581 720.096 101.598L719.292 101.601L719.284 100.843C719.235 96.561 719.147 92.2785 719.21 87.9966C719.261 83.7141 719.453 79.4323 719.576 75.1497C719.741 70.8679 719.808 66.5858 719.776 62.3035C719.76 58.0209 719.681 53.7386 719.541 49.4565L719.525 48.9569L720.096 48.9403C727.557 48.7251 735.019 48.5919 742.48 48.5407L743.455 48.5332L743.465 49.4565C743.514 53.7917 743.57 58.145 743.544 62.4923C743.517 66.8359 743.476 71.1846 743.357 75.4876C743.239 79.7875 743.175 84.1024 743.009 88.3308L742.552 100.91ZM742.408 100.777L741.951 87.6618C741.785 83.3258 741.721 79.0771 741.603 74.8126C741.484 70.5511 741.443 66.3355 741.416 62.1146C741.39 57.8975 741.446 53.6864 741.495 49.4565L742.48 50.3723C735.019 50.3144 727.557 50.1812 720.096 49.9728L720.651 49.4565C720.518 53.7391 720.432 58.0209 720.415 62.3035C720.386 66.5853 720.453 70.8674 720.615 75.1497C720.738 79.4323 720.93 83.7141 720.982 87.9966C721.044 92.2785 720.956 96.561 720.908 100.843L720.096 100.088C723.728 100.105 727.366 100.224 731.068 100.35L742.408 100.777ZM720.331 226.308C723.517 217.901 726.921 209.577 730.456 201.304C732.216 197.165 734.01 193.039 735.838 188.926L736.178 188.154C736.334 187.816 736.525 187.493 736.748 187.19C737.198 186.563 737.805 186.049 738.518 185.691C739.219 185.333 739.996 185.121 740.795 185.071C741.593 185.02 742.394 185.132 743.141 185.399C743.889 185.68 744.563 186.108 745.116 186.654C745.588 187.17 745.972 187.751 746.254 188.376L747.788 191.393C751.822 199.468 755.654 207.634 759.784 215.664L761.349 218.668C761.569 219.153 761.843 219.616 762.166 220.048C762.484 220.444 762.904 220.759 763.388 220.963C763.866 221.177 764.389 221.29 764.92 221.294C765.451 221.298 765.976 221.193 766.458 220.987C766.94 220.788 767.362 220.481 767.687 220.095C768.017 219.672 768.294 219.215 768.514 218.734C770.655 214.754 772.68 210.718 774.767 206.713C778.863 198.664 783.043 190.654 787.305 182.684L790.504 176.708L792.103 173.719L792.903 172.225C793.059 171.951 793.119 171.784 793.353 171.421C793.554 171.084 793.795 170.769 794.072 170.482C794.639 169.904 795.338 169.451 796.117 169.157C796.897 168.862 797.737 168.734 798.577 168.781C799.417 168.827 800.235 169.048 800.971 169.427C801.707 169.806 802.342 170.333 802.831 170.97C803.056 171.275 803.255 171.597 803.424 171.932L803.801 172.689L804.555 174.204L806.055 177.237C813.933 193.461 821.63 209.763 828.77 226.304L828.492 226.423C819.596 210.635 811.257 194.608 803.1 178.503L801.593 175.474L800.843 173.957L800.469 173.2C800.384 173.031 800.286 172.869 800.175 172.715C799.961 172.448 799.688 172.228 799.375 172.068C799.061 171.909 798.714 171.815 798.357 171.792C798 171.769 797.643 171.818 797.308 171.936C796.974 172.054 796.671 172.238 796.42 172.475C796.125 172.8 795.882 173.164 795.7 173.554L794.865 175.032L793.197 177.987L789.86 183.898C785.423 191.785 780.888 199.626 776.254 207.42C773.984 211.338 771.652 215.228 769.436 219.172C768.955 220.315 768.036 221.251 766.856 221.801C766.245 222.056 765.581 222.183 764.912 222.173C764.242 222.162 763.583 222.014 762.982 221.74C761.831 221.156 760.95 220.201 760.503 219.055L758.896 216.07C754.565 208.132 749.937 200.331 745.51 192.436L743.872 189.466C743.682 189.067 743.432 188.695 743.13 188.361C742.854 188.1 742.525 187.894 742.162 187.755C741.787 187.625 741.386 187.573 740.987 187.601C740.588 187.629 740.201 187.737 739.851 187.917C739.506 188.09 739.21 188.338 738.988 188.639C738.871 188.793 738.769 188.956 738.683 189.126L738.331 189.894C736.46 193.991 734.563 198.076 732.637 202.151C728.789 210.302 724.81 218.402 720.612 226.418L720.331 226.308Z" fill="white"/>
<path d="M697.57 226.308C700.756 217.9 704.16 209.576 707.695 201.303C709.454 197.164 711.248 193.038 713.077 188.925L713.416 188.153C713.572 187.815 713.764 187.492 713.987 187.189C714.436 186.562 715.044 186.048 715.756 185.691C716.458 185.332 717.235 185.121 718.033 185.07C718.832 185.02 719.632 185.132 720.379 185.399C721.127 185.68 721.801 186.108 722.355 186.653C722.827 187.169 723.211 187.75 723.493 188.375L725.026 191.392C729.061 199.467 732.893 207.633 737.022 215.663L738.588 218.667C738.807 219.153 739.081 219.615 739.404 220.048C739.722 220.443 740.143 220.758 740.626 220.963C741.105 221.176 741.628 221.289 742.159 221.293C742.689 221.297 743.215 221.192 743.697 220.986C744.179 220.787 744.601 220.481 744.925 220.094C745.255 219.671 745.533 219.215 745.752 218.734C747.894 214.754 749.919 210.718 752.006 206.712C756.102 198.663 760.281 190.654 764.543 182.684L767.742 176.707L769.342 173.719L770.142 172.224C770.297 171.95 770.358 171.783 770.592 171.421C770.792 171.083 771.033 170.768 771.311 170.482C771.878 169.903 772.576 169.451 773.356 169.156C774.135 168.862 774.975 168.733 775.815 168.78C776.655 168.827 777.473 169.048 778.209 169.426C778.945 169.805 779.581 170.332 780.069 170.969C780.295 171.274 780.493 171.596 780.662 171.932L781.039 172.689L781.793 174.204L783.293 177.236C791.172 193.46 798.869 209.762 806.008 226.303L805.731 226.422C796.834 210.634 788.496 194.607 780.338 178.503L778.831 175.473L778.082 173.957L777.707 173.199C777.623 173.03 777.525 172.868 777.413 172.714C777.2 172.448 776.927 172.227 776.613 172.068C776.299 171.908 775.952 171.814 775.595 171.791C775.239 171.768 774.881 171.818 774.547 171.936C774.212 172.053 773.909 172.237 773.659 172.474C773.364 172.8 773.121 173.163 772.938 173.553L772.104 175.031L770.435 177.986L767.098 183.897C762.662 191.785 758.127 199.625 753.493 207.419C751.222 211.337 748.89 215.227 746.675 219.172C746.194 220.314 745.275 221.25 744.095 221.8C743.484 222.056 742.82 222.183 742.15 222.172C741.481 222.162 740.822 222.014 740.22 221.739C739.07 221.155 738.188 220.2 737.742 219.054L736.135 216.07C731.804 208.131 727.175 200.33 722.749 192.436L721.11 189.465C720.92 189.066 720.67 188.694 720.369 188.36C720.093 188.099 719.764 187.893 719.4 187.754C719.025 187.625 718.624 187.572 718.225 187.6C717.827 187.629 717.439 187.736 717.089 187.917C716.744 188.09 716.448 188.337 716.227 188.638C716.109 188.792 716.007 188.955 715.922 189.126L715.569 189.893C713.699 193.99 711.801 198.076 709.876 202.15C706.028 210.302 702.048 218.402 697.851 226.418L697.57 226.308Z" fill="white"/>
<path d="M768.571 219.688C768.229 220.309 767.708 220.829 767.067 221.191C766.425 221.553 765.688 221.742 764.938 221.737C764.187 221.732 763.453 221.533 762.817 221.162C762.182 220.791 761.669 220.264 761.338 219.638L753.731 205.281L745.81 219.688C745.468 220.309 744.948 220.829 744.306 221.191C743.665 221.553 742.927 221.742 742.177 221.737C741.426 221.732 740.692 221.533 740.057 221.162C739.421 220.791 738.909 220.264 738.577 219.638L730.418 204.238L720.472 226.363H805.87L786.439 187.188L768.571 219.688ZM83.8916 310.361L90.0918 350.939C89.9923 350.954 89.8931 350.954 89.8101 350.97C89.1799 351.032 88.5499 351.078 87.92 351.109H87.7212C78.4275 351.546 69.2177 349.284 61.3692 344.637C53.5207 339.989 47.4227 333.186 43.921 325.171C43.9048 325.094 43.8716 325.032 43.855 324.971C43.6227 324.447 43.3908 323.908 43.1917 323.368C43.0921 323.121 43.0095 322.859 42.9265 322.613C42.7938 322.243 42.6614 321.858 42.5287 321.472C42.3134 320.825 42.1308 320.162 41.9483 319.5C41.7496 318.76 41.5836 318.005 41.4181 317.265C41.3849 317.096 41.3683 316.926 41.335 316.756C41.2188 316.156 41.1193 315.57 41.0367 314.969C41.0035 314.815 40.9869 314.661 40.9703 314.506C40.8874 313.874 40.821 313.258 40.7712 312.626C40.7574 312.514 40.7519 312.4 40.7546 312.287C40.7048 311.609 40.6716 310.915 40.6554 310.237V310.068C40.5807 305.453 41.3371 300.858 42.8933 296.475C42.9265 296.398 42.9596 296.305 42.9928 296.228C43.2082 295.612 43.4402 295.011 43.689 294.425L43.8881 293.963C44.12 293.439 44.3686 292.915 44.6175 292.391C44.7005 292.206 44.783 292.036 44.866 291.867C45.148 291.327 45.4298 290.804 45.7115 290.28C45.7945 290.141 45.8775 290.002 45.9438 289.864C46.3251 289.201 46.7229 288.553 47.1374 287.921C47.2038 287.829 47.2698 287.736 47.3362 287.629C47.6842 287.105 48.0493 286.58 48.414 286.072C48.5629 285.871 48.7123 285.687 48.8616 285.502C48.9276 285.409 48.994 285.317 49.0604 285.24L83.8916 310.361ZM85.1847 307.356L51.0996 282.789C58.4517 274.606 68.9027 269.359 80.2955 268.132C91.6883 266.905 103.153 269.79 112.324 276.193L85.1847 307.356ZM96.193 349.953C95.2645 350.169 94.3194 350.354 93.3909 350.508L87.2072 309.96L114.926 278.135C115.374 278.505 115.805 278.875 116.236 279.26C116.335 279.337 116.418 279.414 116.501 279.492C117.33 280.231 118.142 281.002 118.905 281.803C118.905 281.805 118.906 281.807 118.906 281.809C118.907 281.811 118.909 281.813 118.91 281.814C118.912 281.816 118.913 281.817 118.915 281.817C118.917 281.818 118.92 281.818 118.922 281.818C120.516 283.484 121.963 285.268 123.249 287.151C123.265 287.167 123.265 287.182 123.282 287.197C124.558 289.064 125.673 291.022 126.614 293.053C126.632 293.082 126.644 293.113 126.647 293.146C127.095 294.102 127.476 295.072 127.841 296.059C127.907 296.228 127.973 296.398 128.023 296.568C128.371 297.539 128.686 298.524 128.951 299.527C130.363 304.837 130.635 310.354 129.752 315.763C128.87 321.171 126.85 326.365 123.808 331.048C120.766 335.73 116.762 339.81 112.023 343.054C107.285 346.297 101.906 348.642 96.193 349.953Z" fill="white"/>
<path d="M49.0273 285.21L49.8397 284.24C49.5746 284.563 49.3091 284.902 49.0605 285.241L49.0273 285.21ZM51.0665 282.759L51.0997 282.79C50.7516 283.175 50.4035 283.577 50.0554 283.977L51.0665 282.759ZM90.3243 350.925C90.6889 350.879 91.0536 350.848 91.4183 350.802L90.092 350.971V350.94C90.1583 350.94 90.2413 350.925 90.3243 350.925ZM92.1643 350.693C92.5787 350.648 92.9766 350.586 93.391 350.509V350.539L92.1643 350.693ZM112.357 276.164L113.65 277.15C113.219 276.827 112.771 276.502 112.324 276.194L112.357 276.164ZM114.943 278.121L114.926 278.136C114.528 277.812 114.114 277.489 113.7 277.181L114.943 278.121Z" fill="white"/>
<path d="M263.206 481.061L231.164 506.72L226.825 549.445C226.924 549.464 227.038 549.476 227.151 549.487L227.181 549.491C227.406 549.527 227.631 549.562 227.869 549.589C228.491 549.651 229.128 549.705 229.755 549.744C229.882 549.748 229.995 549.759 230.108 549.77C230.863 549.813 231.622 549.834 232.387 549.833C232.536 549.821 232.693 549.823 232.851 549.826L232.864 549.826L232.904 549.825C233.485 549.807 234.066 549.789 234.661 549.764C234.849 549.752 235.038 549.738 235.239 549.718L235.241 549.718C235.819 549.671 236.396 549.624 236.965 549.563L237.465 549.504C238.097 549.427 238.733 549.328 239.375 549.206C239.458 549.196 239.555 549.179 239.638 549.169C244.212 548.325 248.569 546.683 252.529 544.31L252.675 544.226C253.254 543.873 253.839 543.497 254.401 543.115C254.501 543.061 254.596 542.999 254.687 542.931C255.209 542.572 255.709 542.206 256.215 541.818L256.215 541.818C256.34 541.727 256.466 541.635 256.583 541.53C257.061 541.158 257.519 540.779 257.981 540.378C258.112 540.264 258.25 540.165 258.38 540.051C258.938 539.538 259.509 539.017 260.051 538.475L260.059 538.466C260.538 537.98 261.018 537.493 261.469 536.986L261.525 536.921C261.773 536.635 262.021 536.35 262.258 536.071C262.429 535.876 262.615 535.674 262.779 535.464C263.147 535.022 263.498 534.551 263.835 534.088C263.88 534.043 263.917 533.983 263.976 533.931C269.166 526.891 272.008 518.208 272.109 509.087C272.21 499.967 269.564 490.86 264.538 483.03L264.439 482.858C264.097 482.327 263.742 481.805 263.374 481.29C263.319 481.226 263.269 481.14 263.206 481.061Z" fill="white"/>
<path d="M261.183 478.42C260.585 477.693 259.953 476.967 259.301 476.271C255.31 471.979 250.59 468.493 245.411 466.011C240.233 463.53 234.698 462.101 229.121 461.808C223.545 461.515 218.037 462.363 212.912 464.303C207.787 466.243 203.145 469.237 199.252 473.114C198.516 473.845 197.82 474.611 197.153 475.398C197.031 475.526 196.918 475.668 196.804 475.81C196.132 476.619 195.482 477.435 194.878 478.3C194.851 478.32 194.83 478.345 194.815 478.375C193.526 480.206 192.387 482.15 191.409 484.189C191.404 484.211 191.391 484.219 191.385 484.241C190.397 486.296 189.576 488.44 188.931 490.654C188.932 490.656 188.933 490.658 188.933 490.66C188.933 490.663 188.933 490.665 188.933 490.667C188.933 490.669 188.932 490.671 188.931 490.672C188.929 490.674 188.928 490.675 188.926 490.676C188.614 491.738 188.352 492.826 188.126 493.914C188.1 494.025 188.075 494.135 188.058 494.26C187.94 494.826 187.835 495.384 187.739 495.957L229.16 504.049L261.183 478.42Z" fill="white"/>
</svg>
